{"glyphs":{"0":{"ha":845,"x_min":-39,"x_max":895,"o":"m 450 965 l 450 965 l 425 965 q 225 907 317 960 q 76 764 134 854 q 53 724 64 744 q 37 701 45 712 q -39 462 -34 592 q -39 437 -39 449 q -38 429 -39 433 q 47 183 -32 293 q 189 57 104 104 q 371 4 273 9 q 380 3 376 4 l 409 3 q 417 4 413 4 q 610 63 522 9 q 755 203 699 117 q 779 245 768 224 q 808 289 793 267 q 861 610 895 444 q 687 883 828 776 q 459 964 585 957 q 450 965 454 964 m 422 937 l 422 937 q 642 881 546 940 q 792 721 739 821 q 843 498 846 621 q 783 300 837 389 q 641 157 730 211 q 442 100 553 103 q 226 161 321 101 q 79 322 132 222 q 32 543 26 422 q 91 736 39 648 q 229 878 143 824 q 422 937 315 932 m 430 708 l 430 708 q 326 658 367 703 q 277 552 286 613 q 304 419 269 481 q 412 343 340 358 q 542 384 490 333 q 600 509 593 434 q 558 647 604 587 q 430 708 512 708 m 384 610 l 384 610 q 496 557 457 612 q 528 433 534 502 q 520 401 526 415 q 509 392 515 396 q 366 392 437 344 q 311 470 326 422 q 307 565 296 517 q 311 576 309 571 q 317 583 313 580 q 384 610 347 607 z "},"1":{"ha":526,"x_min":-34,"x_max":556,"o":"m 543 1023 l 543 1023 l 274 1023 l 16 893 q 11 881 10 888 q 13 867 11 874 q 17 847 16 857 q -1 838 8 842 q -26 824 -14 831 q -33 817 -31 821 q -34 816 -33 816 l -34 810 l -33 809 l 15 576 q 33 569 21 566 l 167 636 l 50 85 q 64 68 49 70 l 395 68 q 409 79 406 69 l 416 138 q 437 138 426 139 q 452 149 448 138 l 554 1004 q 543 1023 556 1018 m 525 995 l 525 995 l 427 165 l 123 165 l 243 731 q 226 743 241 746 l 81 671 l 39 875 l 279 995 l 525 995 z "},"2":{"ha":736,"x_min":-33,"x_max":751,"o":"m 427 943 l 427 943 l 397 943 l 396 943 q 155 888 271 938 q 66 840 108 868 q 45 820 52 831 q 44 812 43 816 q 45 785 45 799 q 9 760 26 774 q 1 749 3 756 q 1 727 0 739 q 8 593 5 660 q 11 539 9 566 q 29 523 12 520 q 174 591 100 562 q 243 612 203 602 q 313 613 283 622 q 334 594 328 608 q 277 549 307 570 q 16 385 151 459 q 12 376 12 381 l 12 337 l -27 315 q -33 307 -31 312 l -33 31 q -31 26 -31 29 q -20 20 -27 21 l -12 20 q -9 20 -10 20 q 616 30 304 24 q 675 31 646 30 q 694 43 690 29 l 690 100 q 698 100 694 100 q 723 100 711 100 q 737 112 736 102 q 736 132 737 121 q 724 311 730 222 q 721 361 723 336 q 702 374 718 376 l 475 359 q 477 360 475 360 q 527 387 501 374 q 597 431 563 407 q 664 511 639 463 q 676 534 670 523 q 689 551 682 543 q 745 702 738 619 q 694 850 751 784 q 575 921 646 900 q 436 943 504 941 q 427 943 431 943 m 38 366 l 38 366 q 294 527 170 439 q 378 599 340 559 q 405 638 397 617 q 397 684 412 659 q 347 713 380 709 q 278 708 314 716 q 218 690 243 699 q 81 628 147 664 l 71 809 l 72 810 q 176 867 121 845 q 454 915 309 923 q 590 886 522 911 q 696 802 659 862 q 714 675 728 743 q 660 557 701 608 q 575 491 624 515 q 457 428 517 458 q 338 367 397 398 q 302 345 318 357 q 309 321 290 328 l 694 346 l 709 127 l 38 117 l 38 366 z "},"3":{"ha":609,"x_min":-7,"x_max":643,"o":"m 602 996 l 602 996 l 49 996 q 39 989 43 995 q 38 971 36 981 q 40 926 39 949 l 5 926 q -6 916 -1 926 q -5 891 -7 904 q 3 707 -1 799 q 4 677 3 692 q 11 663 4 667 q 15 661 15 661 l 220 661 l 120 594 q 117 587 117 591 l 117 551 l 78 526 q 73 516 74 522 l 73 378 q 88 368 77 367 q 109 372 98 370 q 194 377 144 379 q 275 353 244 374 q 292 324 287 341 q 271 321 281 322 q 168 325 224 315 q 69 357 111 335 q 56 365 62 361 q 43 365 50 369 q 39 361 41 363 q 37 356 37 358 l 37 282 q 24 289 30 285 q 13 295 18 292 q 1 296 7 298 q -7 286 -5 292 l -7 79 q -1 69 -5 73 q 19 54 9 61 q 232 -11 115 -10 q 235 -11 233 -10 l 239 -11 q 242 -11 241 -10 q 428 31 336 -10 q 565 157 519 71 q 571 171 568 164 q 578 178 574 174 q 631 299 619 231 q 618 431 643 368 q 503 553 582 513 q 482 564 492 559 q 481 564 481 564 l 595 675 q 598 689 600 682 q 597 705 597 697 l 639 745 q 642 752 641 749 l 642 758 l 612 987 q 602 996 609 994 m 588 968 l 588 968 l 614 760 l 427 575 q 429 555 419 564 q 512 516 473 541 q 577 452 551 491 q 605 304 618 383 q 533 172 591 225 q 379 98 469 117 q 208 93 290 78 q 63 157 127 107 l 63 330 q 150 301 105 310 q 249 292 193 291 q 341 319 304 292 q 366 368 366 339 q 353 422 366 396 q 318 455 340 444 q 271 469 295 465 q 143 468 208 480 l 143 578 l 380 732 q 377 756 392 746 q 374 758 375 758 l 75 758 l 65 968 l 588 968 z "},"4":{"ha":877,"x_min":-26,"x_max":903,"o":"m 823 975 l 823 975 l 555 975 l 551 973 l 56 540 q 52 532 53 537 q 47 501 50 517 l 14 472 q 9 465 11 469 q -26 239 -8 352 q -26 237 -25 237 l -26 232 q -24 227 -25 229 q -13 220 -20 221 q 22 220 5 220 q 367 212 195 216 q 386 212 376 212 l 339 22 q 351 6 339 9 l 680 6 q 692 18 690 8 l 698 76 q 719 76 707 76 q 734 85 730 75 l 748 203 q 810 202 779 203 q 819 201 814 201 q 833 213 830 203 l 840 272 q 861 271 850 271 q 876 283 873 271 l 901 490 q 890 508 903 505 q 857 509 873 509 q 827 509 842 509 q 783 510 805 510 l 835 960 q 823 975 834 972 m 806 947 l 806 947 l 756 514 q 755 495 755 505 q 767 484 755 485 q 808 483 787 482 q 811 482 809 482 q 873 481 842 482 l 851 298 q 843 299 846 298 q 761 300 802 300 q 742 301 751 302 q 730 288 733 300 l 709 103 l 414 103 l 460 291 q 450 307 461 303 q 439 309 445 309 q 336 311 387 310 l 47 317 l 79 524 l 562 947 l 806 947 m 544 708 l 544 708 q 536 706 540 708 l 332 515 q 339 492 323 499 q 387 491 363 490 q 494 488 441 490 q 509 496 505 488 l 558 692 q 544 708 559 707 m 460 517 l 460 517 l 406 518 l 477 583 l 460 517 z "},"5":{"ha":708,"x_min":-41,"x_max":728,"o":"m 715 988 l 715 988 l 709 988 l 708 987 q 174 963 441 976 q 143 962 159 963 q 128 958 134 963 q 125 947 125 953 q 123 913 123 930 q 122 894 122 903 q 108 893 115 893 q 92 892 100 893 q 81 882 84 890 q 60 460 71 671 q 57 414 58 437 q 62 394 54 402 q 78 393 68 391 q 94 396 87 395 q 183 406 136 404 q 272 402 229 409 q 325 383 304 397 q 355 336 346 369 q 358 293 361 315 q 350 286 355 289 q 245 272 299 256 q 156 334 191 288 q 143 351 150 344 q 123 347 132 358 l 92 285 q 80 277 84 284 l -41 34 l -41 29 q -39 24 -40 27 q -15 9 -29 15 q 256 -64 113 -58 q 259 -64 258 -64 l 286 -64 q 289 -64 288 -64 q 483 -18 390 -63 q 627 115 576 26 q 640 138 633 127 q 656 160 647 149 q 714 326 705 233 q 688 500 723 419 q 572 635 648 583 l 553 648 l 641 648 q 652 659 646 648 l 660 718 q 680 718 669 718 q 695 728 691 718 l 726 970 q 715 988 728 984 m 698 960 l 698 960 l 670 745 q 654 745 662 745 q 418 745 536 746 q 380 746 399 747 q 368 739 372 746 q 351 647 358 693 q 368 636 355 634 q 396 643 382 640 q 573 601 496 668 q 642 528 613 570 q 688 377 686 460 q 659 221 691 294 q 554 99 623 144 q 404 40 486 54 q 213 42 308 24 q 34 106 119 61 l 137 313 q 258 241 184 254 q 404 301 349 230 q 429 377 429 335 q 406 453 430 418 q 349 492 385 481 q 272 504 312 503 q 200 501 231 505 q 128 492 164 498 l 151 935 l 698 960 z "},"6":{"ha":736,"x_min":-33,"x_max":774,"o":"m 415 958 l 415 958 l 410 958 q 226 872 310 931 q 88 722 142 812 q 73 695 81 709 q 62 680 68 688 q -33 387 -26 547 q -33 361 -33 374 q -32 349 -32 355 q 144 47 -20 153 q 385 -22 255 -19 q 388 -22 387 -22 l 404 -22 q 407 -22 406 -22 q 567 12 490 -22 q 689 118 644 46 q 705 149 697 134 q 716 163 710 157 q 774 346 773 245 q 774 349 774 347 l 774 368 q 774 370 774 369 q 724 544 772 464 q 561 653 661 639 q 363 616 462 667 q 344 606 354 611 q 481 716 401 676 q 505 726 493 722 q 510 747 518 734 l 491 767 q 530 789 510 779 q 551 798 541 793 q 553 818 561 804 q 427 949 490 884 q 415 958 422 956 m 519 813 l 519 813 q 340 659 409 760 q 289 566 309 615 q 282 541 283 553 q 302 532 287 527 q 325 560 314 544 q 345 574 334 568 q 467 624 402 611 q 591 618 531 637 q 694 541 650 600 q 744 408 734 484 q 734 261 755 333 q 659 143 713 190 q 502 78 591 90 q 325 89 413 66 q 170 162 236 112 q 44 371 65 247 q 69 618 24 495 q 208 823 114 741 q 408 929 296 898 l 519 813 m 433 477 l 433 477 q 365 458 395 475 q 323 412 334 441 q 332 344 311 382 q 374 293 347 315 q 432 265 400 270 q 493 286 463 260 q 533 355 524 314 q 521 434 541 397 q 433 477 490 482 m 464 298 l 464 298 q 412 299 437 286 q 371 334 387 313 q 349 372 357 351 q 375 378 361 376 q 418 378 396 382 q 456 348 444 372 q 464 298 467 323 z "},"7":{"ha":703,"x_min":-28,"x_max":743,"o":"m 704 966 l 704 966 l 695 966 l 694 966 q 73 946 384 956 q 33 945 53 945 q 18 939 24 945 q 17 937 18 939 q 16 934 16 935 l 16 876 q 0 876 8 875 q -21 873 -12 876 q -28 863 -26 869 l -28 566 q -13 555 -24 555 l 307 592 q 242 485 273 540 q 101 146 155 323 q 90 111 95 129 q 97 95 87 100 l 438 -9 l 440 -9 q 452 1 451 -7 q 453 19 453 9 q 454 36 453 27 q 456 67 455 52 q 478 61 467 64 q 496 71 491 58 q 497 106 496 88 q 588 447 509 286 q 711 671 646 562 q 740 718 727 694 q 742 728 743 722 l 715 954 q 704 966 713 964 m 42 918 l 42 918 l 690 939 l 715 729 q 575 482 641 608 q 532 391 551 437 q 469 92 477 247 l 163 186 q 210 322 184 254 q 285 496 242 412 q 369 640 323 570 q 390 672 380 656 q 378 693 397 689 l 42 653 l 42 918 z "},"8":{"ha":702,"x_min":-37,"x_max":741,"o":"m 384 1010 l 384 1010 l 363 1010 q 123 866 206 999 q 109 837 115 851 q 93 817 101 827 q 57 552 11 693 q 68 526 62 538 q 44 488 55 507 q 37 471 40 479 q 23 454 31 463 q -37 278 -32 374 q -37 256 -37 267 q -36 239 -36 248 q 78 19 -20 104 q 309 -74 176 -66 q 319 -75 315 -74 l 341 -75 q 344 -74 342 -74 q 527 -22 442 -72 q 659 114 611 28 q 668 133 663 123 q 682 151 674 141 q 740 322 736 228 q 741 325 740 323 l 741 349 l 739 375 q 692 507 730 446 q 629 582 666 549 q 661 757 673 665 q 576 927 646 859 q 403 1008 505 996 l 384 1010 m 361 983 l 361 983 q 513 943 446 985 q 613 829 579 901 q 633 673 646 758 q 606 597 625 633 q 600 586 603 591 q 600 573 597 580 q 614 559 606 566 q 713 356 704 471 q 641 142 722 242 q 462 33 567 58 q 255 42 357 8 q 87 167 153 75 q 36 372 22 266 q 134 559 50 477 q 148 573 142 566 q 141 596 151 586 q 115 770 99 678 q 201 918 134 860 q 361 983 269 977 m 366 488 l 366 488 q 291 444 317 483 q 271 358 264 406 q 315 287 281 311 q 390 269 349 263 q 459 315 431 275 q 476 394 482 353 q 441 463 470 435 q 366 488 412 490 m 297 384 l 297 384 q 368 381 336 401 q 406 321 399 361 q 407 305 408 313 q 398 299 405 300 q 339 303 366 288 q 301 350 312 319 q 297 384 296 367 m 368 810 l 368 810 q 303 770 326 805 q 283 694 281 734 q 313 618 286 651 q 386 590 340 585 q 446 632 425 598 q 465 705 466 667 q 437 779 462 746 q 368 810 412 811 m 328 713 l 328 713 q 369 695 353 714 q 391 653 386 677 q 393 622 395 637 q 385 618 391 618 q 328 643 348 612 q 311 708 307 674 q 316 711 312 711 q 328 713 321 713 z "},"9":{"ha":737,"x_min":-31,"x_max":768,"o":"m 345 979 l 345 979 l 319 979 q 163 942 234 977 q 52 830 93 907 q 43 813 47 821 q 35 803 40 808 q -31 604 -28 714 q -31 580 -31 592 q -30 574 -31 577 q -7 463 -28 516 q 102 337 29 376 q 269 311 176 299 q 353 333 312 317 q 216 250 293 277 q 202 245 210 248 q 189 238 194 243 q 187 224 184 233 q 208 197 196 211 q 210 195 210 196 q 181 182 195 189 q 151 172 165 178 q 142 159 142 168 q 149 149 144 153 q 262 3 205 75 q 271 -1 266 -1 l 273 -1 q 298 3 286 1 q 466 66 387 21 q 602 180 544 111 q 654 257 631 217 q 698 327 677 292 q 748 445 728 381 q 768 570 767 508 q 768 573 768 572 l 768 597 q 768 600 768 597 q 716 779 766 699 q 583 910 667 859 q 348 979 474 974 q 345 979 347 979 m 442 455 l 442 455 q 427 446 435 450 q 292 406 362 412 q 162 429 222 400 q 67 530 102 458 q 40 664 39 591 q 69 803 40 737 q 157 907 98 868 q 316 952 228 950 q 489 924 405 954 q 633 838 574 893 q 730 675 709 766 q 731 490 752 585 q 658 313 711 396 q 513 170 600 224 q 322 96 427 115 l 321 97 l 223 222 q 276 245 250 233 q 465 424 394 310 q 486 463 477 443 q 480 479 488 474 q 465 479 473 485 q 442 455 453 467 m 343 761 l 343 761 q 288 733 312 758 q 256 679 264 708 q 259 603 245 640 q 312 553 273 567 q 390 553 350 543 q 452 591 430 563 q 459 665 475 620 q 415 731 446 701 q 343 761 384 762 m 302 664 l 302 664 q 354 641 331 665 q 388 593 377 618 q 390 587 389 591 q 392 582 392 583 q 314 581 353 569 q 286 608 295 590 q 277 646 277 627 q 279 656 277 652 q 302 664 290 663 z "}," ":{"ha":345,"x_min":0,"x_max":0,"o":""}," ":{"ha":345,"x_min":0,"x_max":0,"o":""},"!":{"ha":291,"x_min":-11,"x_max":304,"o":"m 295 944 l 295 944 l 259 944 l 258 944 q 66 943 161 944 q 28 943 47 943 q 19 930 18 941 q 22 907 20 918 l -1 907 q -7 904 -3 907 q -11 898 -9 901 l -11 895 q -10 892 -10 893 q -7 873 -9 882 q 13 580 5 755 q 34 287 21 404 q 45 277 36 278 q 61 277 54 277 q 239 275 151 276 q 257 286 254 272 l 257 311 q 269 311 263 311 q 275 311 272 311 q 286 322 286 312 q 287 366 288 344 q 304 908 296 637 q 304 935 304 922 q 295 944 302 943 m 282 922 l 282 922 l 265 334 l 84 335 l 42 922 l 282 922 m 283 108 l 283 108 q 232 202 279 169 q 132 233 186 235 q 52 184 79 231 q 39 164 46 173 q 26 148 33 156 q 7 52 -3 102 q 59 -30 16 2 q 159 -51 106 -62 q 243 6 211 -41 q 253 20 248 13 q 283 99 281 54 q 283 108 283 104 m 149 212 l 149 212 q 244 161 213 211 q 250 54 276 112 q 159 -4 217 -1 q 64 45 101 -7 q 58 153 31 101 q 149 212 85 205 z "},"\"":{"ha":353,"x_min":-45,"x_max":398,"o":"m 154 1008 l 154 1008 l 125 1008 l 125 1008 q -15 1008 55 1008 q -22 1004 -19 1007 q -22 986 -26 996 l -35 986 q -45 977 -41 986 q -45 973 -45 975 l -6 699 q 3 690 -4 691 q 20 690 12 690 q 120 688 70 689 q 133 690 127 687 q 137 708 139 698 q 138 711 138 709 q 156 715 149 708 q 158 738 159 726 l 161 867 q 163 996 163 931 q 163 998 163 996 q 154 1008 163 1006 m 141 987 l 141 987 l 136 732 l 35 734 l -1 986 l 141 987 m 388 1008 l 388 1008 q 359 1008 374 1008 q 219 1008 290 1008 q 211 1001 214 1006 q 212 986 210 994 l 199 986 q 190 973 191 986 l 228 698 q 237 690 230 691 q 254 690 245 690 q 355 688 304 689 q 367 690 361 687 q 372 703 373 695 q 372 711 372 707 q 390 714 382 708 q 392 722 393 718 q 393 762 393 742 l 397 981 q 398 997 397 989 q 388 1008 398 1006 m 376 987 l 376 987 l 371 732 l 269 734 l 233 986 l 376 987 z "},"#":{"ha":958,"x_min":-43,"x_max":1006,"o":"m 521 918 l 521 918 l 358 918 q 351 912 353 917 q 342 883 346 895 q 328 883 335 882 q 317 876 321 883 l 281 745 l 139 744 q 130 739 133 743 q 121 708 125 720 q 107 708 115 707 q 96 703 100 708 q 52 538 73 621 q 49 525 49 531 q 58 516 49 519 l 220 519 l 191 406 l 49 406 q 39 399 41 406 q 35 385 36 393 q 31 370 33 376 q 16 370 24 370 q 4 363 8 370 q -18 279 -8 321 q -41 195 -28 236 q -43 191 -41 193 l -43 188 q -38 181 -41 184 q -20 179 -29 176 q 37 180 9 180 q 130 180 83 180 l 86 18 q 96 3 84 7 l 267 3 q 277 11 273 5 q 284 40 281 25 q 299 40 291 40 q 311 47 307 39 l 346 184 q 427 184 387 184 q 433 185 430 185 q 469 185 451 186 l 424 16 q 434 3 425 6 l 606 3 q 614 10 611 5 l 622 40 q 637 40 629 40 q 649 47 644 40 l 685 189 q 766 189 726 189 q 823 190 795 189 q 839 197 834 189 q 848 226 843 214 q 859 227 850 228 q 873 231 867 226 l 916 393 q 914 402 918 397 q 907 406 911 406 l 740 406 l 771 526 l 922 528 q 929 534 926 529 q 938 564 935 551 q 954 564 945 564 q 965 573 962 564 l 1006 729 l 1006 737 q 997 745 1002 745 l 826 745 l 867 905 q 859 918 868 915 l 696 918 q 686 903 688 913 q 681 882 684 892 q 666 882 673 882 q 654 876 658 882 l 618 745 l 488 745 l 529 904 q 521 918 531 915 m 504 897 l 504 897 l 464 735 q 470 723 463 727 l 652 722 q 663 731 660 723 l 707 897 l 842 897 l 802 736 q 805 725 800 730 q 809 722 809 722 l 982 722 l 945 586 l 770 583 q 762 578 766 583 l 716 399 q 719 387 714 392 q 722 386 720 387 q 724 385 724 385 l 892 385 l 854 248 q 750 247 802 248 q 693 246 722 247 q 682 245 687 246 q 675 236 676 243 l 631 62 l 483 62 l 528 231 q 519 243 530 241 q 465 243 492 245 q 410 242 437 241 q 377 242 394 241 q 344 241 359 243 q 336 233 338 239 l 292 62 l 144 62 l 189 227 q 180 239 189 236 q 122 237 151 239 q 18 237 70 237 l 56 385 l 224 385 q 233 391 230 385 q 277 555 256 473 q 280 567 279 562 q 270 576 278 575 q 225 576 249 578 q 180 576 202 574 q 175 575 178 575 q 108 574 142 575 q 144 710 126 642 q 147 721 146 716 q 149 722 148 722 l 317 723 q 324 730 323 725 l 370 897 l 504 897 m 574 581 l 574 581 q 458 578 516 581 q 428 578 441 580 q 421 570 423 576 l 378 399 q 388 385 376 387 l 561 385 q 571 390 568 385 l 619 570 q 610 581 618 578 q 574 581 593 583 m 403 406 l 403 406 l 432 522 q 480 522 456 522 q 543 524 511 522 q 558 524 551 524 q 559 524 559 524 q 559 522 559 524 l 528 406 l 403 406 z "},"$":{"ha":494,"x_min":-19,"x_max":541,"o":"m 345 1004 l 345 1004 l 333 1004 l 332 1003 q 229 1002 280 1003 q 199 1002 214 1002 q 189 992 189 998 l 189 969 l 166 969 q 157 960 159 967 l 157 909 q 90 860 118 892 q 81 850 85 855 q 68 839 75 844 q 2 712 16 787 q 14 570 -12 637 q 48 518 28 536 q 98 482 68 500 q 161 445 130 463 q 222 403 193 426 q 256 367 241 387 q 270 321 271 347 q 263 318 267 319 q 164 335 209 301 q 93 413 119 369 q 75 409 82 420 l 66 374 q 65 374 65 374 q 65 374 65 374 q 62 379 63 376 q 43 376 51 389 q -17 160 13 269 q -19 155 -18 157 l -19 151 q -18 149 -18 150 q -5 135 -12 142 q 157 52 64 71 l 157 -12 q 168 -21 159 -19 l 318 -21 q 328 -9 328 -19 q 328 -3 328 -6 q 328 12 328 4 l 352 12 q 361 22 358 12 q 361 49 361 35 q 361 86 360 68 q 427 140 397 109 q 444 157 436 149 q 515 254 488 199 q 539 370 541 308 q 483 493 533 440 q 378 583 433 547 q 289 638 334 612 q 262 659 275 646 q 257 688 250 671 q 327 691 293 707 q 380 643 361 676 q 389 626 384 633 q 406 631 400 621 q 416 665 412 647 q 416 666 416 665 q 417 665 417 666 q 418 662 418 664 q 438 663 429 650 l 487 819 q 487 823 487 821 q 474 840 482 832 q 372 909 430 885 q 355 916 363 913 q 355 920 355 918 q 355 975 354 947 q 354 995 355 985 q 345 1004 353 1002 m 212 980 l 212 980 l 333 982 l 333 908 q 337 899 334 903 q 357 892 346 895 q 464 819 419 867 l 426 696 q 425 696 425 695 q 420 703 422 699 q 320 753 382 753 q 266 732 291 750 q 234 687 241 713 q 254 636 227 661 q 322 593 286 612 q 403 538 362 570 q 474 471 444 507 q 511 306 536 399 q 357 124 473 182 q 346 119 351 122 q 338 111 340 117 l 339 34 l 212 34 l 212 94 q 204 104 212 100 q 40 186 109 120 q 37 189 38 187 l 90 379 q 102 362 96 370 q 187 298 138 319 q 290 307 236 278 q 325 363 328 330 q 295 426 321 396 q 207 495 257 467 q 111 554 156 523 q 56 648 64 590 q 75 799 41 729 q 188 899 109 869 q 208 905 199 901 q 212 913 212 909 l 212 980 z "},"%":{"ha":1040,"x_min":-43,"x_max":1102,"o":"m 231 953 l 231 953 l 207 953 l 205 952 q 100 921 149 949 q 21 844 52 892 q -14 787 2 817 q -37 724 -29 758 q -43 682 -39 703 l -43 662 q -39 640 -40 651 q 27 500 -26 555 q 157 431 81 445 q 309 458 233 417 q 375 513 349 481 q 423 585 401 546 q 454 734 463 658 q 397 870 446 811 q 267 948 348 928 l 231 953 m 204 926 l 204 926 q 343 883 286 929 q 421 766 401 838 q 410 620 441 694 q 302 510 372 541 q 158 502 231 480 q 38 598 84 523 q 11 741 0 667 q 73 866 22 814 q 204 926 124 918 m 838 -39 l 838 -39 q 1027 74 960 -28 q 1073 158 1055 114 q 1073 327 1102 244 q 966 456 1044 410 q 792 479 880 502 q 652 376 705 456 q 620 323 635 350 q 597 267 606 297 q 636 62 573 151 q 817 -39 699 -27 l 838 -39 m 831 459 l 831 459 q 985 409 924 463 q 1059 274 1046 355 q 1021 117 1072 193 q 900 32 972 49 q 762 47 829 16 q 659 153 694 78 q 646 288 631 220 q 709 404 661 356 q 831 459 758 452 m 711 880 l 711 880 l 35 77 q 30 62 28 68 q 39 54 32 57 q 53 49 45 52 q 194 6 123 25 q 235 -3 215 0 q 245 1 241 -3 l 277 34 q 288 32 283 33 q 299 34 293 31 l 944 742 q 950 750 948 747 q 951 757 951 754 q 948 764 950 760 q 941 772 945 767 q 907 805 925 789 q 844 859 876 833 q 783 916 812 886 q 768 916 776 920 l 734 876 q 711 880 724 888 m 122 108 l 122 108 l 775 884 l 918 757 l 918 754 l 287 61 l 285 60 q 122 108 203 81 m 214 816 l 214 816 q 144 774 166 811 q 127 694 121 738 q 171 623 134 650 q 258 618 217 595 q 309 690 299 640 q 291 777 317 738 q 214 816 264 817 m 191 751 l 191 751 q 247 723 228 753 q 260 658 266 692 q 248 643 258 647 q 185 646 213 626 q 153 702 157 666 q 157 736 152 720 q 191 751 170 749 m 841 349 l 841 349 q 769 294 789 341 q 767 200 749 248 q 850 142 796 142 q 933 198 903 141 q 941 269 948 233 q 907 329 933 305 q 841 349 882 352 m 789 271 l 789 271 q 821 286 802 282 q 877 258 858 287 q 892 195 897 230 q 875 174 890 180 q 814 182 840 161 q 785 238 789 203 q 789 271 784 256 z "},"&":{"ha":856,"x_min":-41,"x_max":890,"o":"m 404 1006 l 404 1006 l 381 1006 q 222 961 296 1003 q 192 943 208 952 q 103 865 138 914 q 71 763 71 817 q 90 656 71 709 q 136 559 109 603 l 137 557 q 37 448 81 509 q -16 356 6 406 q -41 254 -37 307 q -41 235 -41 245 l -38 207 q 41 65 -22 125 q 188 -23 104 6 q 350 -42 271 -52 q 442 -12 397 -35 q 527 35 486 10 q 597 79 563 56 l 667 7 q 686 9 677 0 l 703 31 q 708 27 705 29 q 725 32 718 23 q 889 258 808 144 l 890 261 l 890 263 q 889 267 889 264 q 886 272 888 270 l 826 319 q 884 467 862 391 q 875 481 885 477 q 692 569 784 525 q 674 571 684 575 q 667 559 668 566 q 659 545 663 551 q 637 549 648 553 q 628 536 630 544 q 604 496 617 515 l 535 549 q 557 565 546 557 q 642 661 610 606 q 674 776 674 715 q 629 895 673 837 q 425 1004 549 991 l 404 1006 m 688 541 l 688 541 l 854 461 q 805 338 835 397 q 796 321 800 330 q 800 305 792 313 l 858 260 l 713 61 q 711 61 712 60 q 699 75 705 67 q 644 132 671 103 q 627 132 635 137 q 490 45 560 85 q 374 5 435 14 q 224 28 301 0 q 92 113 148 57 q 25 245 35 169 q 45 362 20 304 q 110 470 69 420 q 191 558 150 521 q 204 569 199 564 q 205 584 210 574 q 194 601 199 592 q 140 734 157 661 q 164 871 123 808 q 319 970 222 949 q 505 957 417 992 q 596 892 555 935 q 646 793 636 848 q 608 658 652 719 q 503 561 564 597 q 500 543 495 552 q 612 454 556 498 q 627 453 621 448 q 638 465 633 458 q 688 541 666 501 m 380 838 l 380 838 q 323 803 339 835 q 314 733 308 771 q 334 683 319 707 q 373 652 350 659 q 423 667 395 644 q 461 727 449 690 q 456 796 473 764 q 380 838 429 836 m 346 788 l 346 788 q 395 761 377 786 q 399 718 406 742 q 378 678 392 694 q 350 709 359 688 q 346 788 332 748 m 323 455 l 323 455 q 305 437 311 450 q 280 387 290 415 q 277 331 271 358 q 301 298 284 309 q 342 287 319 288 q 388 289 365 285 q 429 297 411 292 q 454 307 442 300 q 454 327 463 316 l 333 452 q 323 455 328 456 m 370 313 l 370 313 q 333 315 353 312 q 304 335 313 319 q 307 379 298 357 l 370 313 z "},"'":{"ha":119,"x_min":-45,"x_max":163,"o":"m 154 1008 l 154 1008 l 125 1008 l 125 1008 q -15 1008 55 1008 q -22 1004 -19 1007 q -22 986 -26 996 l -35 986 q -45 977 -41 986 q -45 973 -45 975 l -6 699 q 3 690 -4 691 q 20 690 12 690 q 120 688 70 689 q 133 690 127 687 q 137 708 139 698 q 138 711 138 709 q 156 715 149 708 q 158 738 159 726 l 161 867 q 163 996 163 931 q 163 998 163 996 q 154 1008 163 1006 m 141 987 l 141 987 l 136 732 l 35 734 l -1 986 l 141 987 z "},"(":{"ha":468,"x_min":-7,"x_max":522,"o":"m 507 1015 l 507 1015 l 217 1015 q 211 1011 214 1014 l 191 987 q 178 985 184 987 q 161 965 170 976 q -7 492 3 755 q -7 461 -7 477 q -7 456 -7 458 q -1 377 -5 416 q 74 129 17 249 q 217 -88 131 8 q 235 -106 226 -98 q 241 -110 237 -109 l 399 -110 q 408 -104 406 -109 q 407 -92 411 -97 q 401 -81 404 -87 l 435 -81 q 443 -77 439 -81 q 444 -67 446 -72 q 297 369 319 134 q 300 587 286 478 q 489 971 337 808 q 513 996 501 983 q 507 1015 522 1009 m 479 993 l 479 993 q 277 576 313 817 q 276 357 264 467 q 414 -60 299 134 l 282 -60 q 174 81 221 5 q 70 331 102 199 q 56 600 39 462 q 224 993 86 820 l 479 993 z "},")":{"ha":458,"x_min":-43,"x_max":479,"o":"m 290 1017 l 290 1017 l 1 1017 q -9 1004 -9 1014 q 4 988 -4 995 l -34 988 q -37 987 -35 988 q -40 985 -39 985 q -43 979 -42 982 l -43 976 q -41 970 -42 972 q -17 946 -29 958 q 172 564 134 783 q 173 311 190 437 q 29 -92 145 93 q 38 -108 26 -104 l 197 -108 q 202 -105 200 -106 q 215 -92 209 -99 q 227 -79 221 -86 q 238 -75 233 -80 q 269 -42 254 -60 q 419 207 363 68 q 479 491 476 345 q 479 493 479 492 l 479 521 q 479 523 479 522 q 436 764 477 647 q 323 980 395 880 q 298 1012 311 996 q 290 1017 295 1015 m 94 -58 l 94 -58 l 117 -16 q 237 452 233 203 q 146 833 242 655 q 28 995 98 922 l 283 995 q 445 648 406 841 q 440 345 473 492 q 322 66 407 197 q 226 -58 279 0 l 94 -58 z "},"*":{"ha":325,"x_min":-43,"x_max":373,"o":"m 218 1096 l 218 1096 l 131 1096 q 124 1091 127 1095 q 122 1088 122 1088 l 122 1066 l 113 1066 q 102 1057 107 1066 l 102 1044 l 77 1069 q 64 1068 70 1073 l 5 1008 q 1 1000 1 1004 q 3 995 3 997 l -16 977 q -14 962 -20 968 q -3 951 -8 956 l -13 951 q -22 946 -18 951 q -24 942 -24 943 l -24 920 l -24 920 l -35 920 q -40 917 -36 920 q -43 911 -42 914 l -43 823 q -41 818 -42 821 q -35 814 -37 814 l 17 814 q 16 813 17 814 q 7 805 12 809 q 1 795 2 800 q 3 789 2 791 l -16 770 q -17 759 -19 765 q 47 695 14 726 q 59 696 54 692 l 102 739 l 102 677 q 104 673 102 677 q 113 669 107 669 l 199 669 q 208 675 204 669 q 208 678 208 677 l 208 699 l 220 699 q 228 707 223 699 l 228 720 l 253 696 q 265 696 260 692 l 326 757 q 328 769 330 763 q 345 786 336 778 q 346 801 351 795 q 334 813 340 807 q 333 814 333 814 l 346 814 q 351 818 348 814 q 354 824 354 821 l 354 844 l 365 844 q 370 847 367 844 q 373 853 373 850 l 373 941 q 363 951 370 951 l 313 951 q 325 962 319 956 q 328 975 330 967 l 346 994 q 346 1008 351 1000 l 285 1068 q 271 1069 278 1073 l 229 1026 l 228 1025 l 228 1088 q 226 1091 228 1088 q 218 1096 223 1095 m 206 1074 l 206 1074 l 206 997 q 212 989 206 992 q 222 989 218 987 l 278 1044 l 321 1000 l 267 945 q 270 930 262 937 q 274 928 273 928 l 352 928 l 352 866 l 274 866 q 271 865 273 866 q 267 850 262 859 l 321 794 l 278 751 l 224 804 q 209 804 216 810 q 207 801 208 803 q 206 798 206 799 l 206 720 l 144 720 l 144 798 q 142 801 144 798 q 125 804 136 811 l 72 751 l 28 794 l 83 850 q 79 865 87 859 q 76 866 76 866 l -2 866 l -2 928 l 75 928 q 80 930 76 928 q 82 946 87 937 l 28 1000 l 72 1044 l 127 989 q 142 992 136 985 q 144 996 144 996 l 144 1074 l 206 1074 z "},"+":{"ha":522,"x_min":-5,"x_max":543,"o":"m 380 725 l 380 725 l 202 725 q 193 715 194 723 l 193 696 l 165 696 q 155 686 159 696 l 154 572 l 33 572 q 31 571 33 572 q 28 570 28 570 q 24 564 24 566 l 24 534 l 4 534 q 2 534 3 534 q -1 532 0 533 q -5 526 -4 530 l -5 339 q -3 334 -4 337 q 15 330 4 328 q 69 331 42 330 l 150 332 q 149 231 149 281 q 148 186 148 209 q 157 177 149 179 l 344 177 q 351 183 349 178 q 353 186 353 186 l 353 205 l 380 205 q 390 214 385 205 l 390 336 q 427 336 408 336 q 481 337 454 337 q 507 338 494 336 q 511 341 509 339 q 514 346 514 344 l 514 374 q 518 375 516 374 q 533 375 526 374 q 543 384 541 376 l 543 563 q 533 572 539 572 l 390 572 l 390 717 q 388 720 390 718 q 380 725 385 724 m 368 703 l 368 703 l 368 559 q 370 555 368 557 q 374 552 372 553 q 378 550 376 550 l 522 550 l 522 396 l 425 395 q 378 395 401 395 q 370 389 373 394 q 368 386 368 386 l 368 228 l 207 228 q 208 253 208 240 q 210 359 208 307 q 210 382 210 371 q 193 392 205 393 q 87 390 140 391 q 45 389 66 389 l 45 550 l 203 550 q 212 559 209 550 q 212 589 213 574 q 214 694 213 642 q 214 703 214 699 l 368 703 z "},",":{"ha":156,"x_min":-49,"x_max":203,"o":"m 101 197 l 101 197 l 91 197 q 19 163 48 195 q 16 160 18 162 q 7 155 12 157 q -33 41 -49 110 q 15 -21 -20 1 q -1 -31 7 -26 q -10 -35 -5 -33 q -16 -43 -15 -37 q -16 -46 -16 -45 q -31 -54 -23 -50 q -43 -65 -40 -56 q -43 -68 -43 -67 q -39 -75 -43 -73 l 28 -129 q 41 -127 35 -132 q 101 -83 73 -107 q 133 -56 117 -69 q 181 3 160 -31 q 203 73 201 36 q 203 75 203 74 l 203 81 l 203 92 q 198 119 201 105 q 109 197 177 184 l 101 197 m 15 -46 l 15 -46 q 62 -18 39 -33 q 79 -3 72 -12 q 73 12 83 7 q 62 16 67 14 q 15 74 23 35 q 33 147 6 113 q 101 175 62 178 q 165 139 140 173 q 180 92 178 117 q 157 6 184 45 q 94 -60 130 -33 q 61 -83 78 -73 l 15 -46 z "},"-":{"ha":390,"x_min":-6,"x_max":409,"o":"m 399 553 l 399 553 l 20 553 q 11 543 11 549 l 11 515 l 4 515 q -6 506 -3 515 l -6 333 q 5 323 -4 324 q 31 325 18 323 q 359 335 195 330 q 381 336 370 335 q 391 342 388 336 q 392 345 392 344 l 392 373 q 402 374 397 372 q 409 382 408 376 l 409 543 q 408 547 408 545 q 399 553 405 551 m 387 531 l 387 531 l 387 394 l 33 383 l 33 531 l 387 531 z "},"­":{"ha":390,"x_min":-6,"x_max":409,"o":"m 399 553 l 399 553 l 20 553 q 11 543 11 549 l 11 515 l 4 515 q -6 506 -3 515 l -6 333 q 5 323 -4 324 q 31 325 18 323 q 359 335 195 330 q 381 336 370 335 q 391 342 388 336 q 392 345 392 344 l 392 373 q 402 374 397 372 q 409 382 408 376 l 409 543 q 408 547 408 545 q 399 553 405 551 m 387 531 l 387 531 l 387 394 l 33 383 l 33 531 l 387 531 z "},".":{"ha":152,"x_min":-45,"x_max":219,"o":"m 177 161 l 177 161 q 174 26 219 92 q 170 23 172 24 q 168 19 169 21 q 165 16 166 18 q 163 12 164 14 q 122 -27 147 -13 q 67 -41 96 -41 q 36 -36 52 -41 q -45 60 -33 -12 l -45 68 l -45 68 q -45 72 -45 70 q -45 77 -45 75 q -20 144 -43 115 q -18 146 -19 145 q -16 149 -16 148 q -13 153 -14 151 q -11 157 -12 155 q 80 209 22 205 l 89 209 l 98 208 q 177 161 148 201 m 174 109 l 174 109 q 143 165 169 143 q 81 186 117 187 q 16 155 41 184 q -5 84 -10 124 q 68 7 6 22 q 147 31 114 -1 q 174 109 180 62 z "},"/":{"ha":684,"x_min":-43,"x_max":732,"o":"m 595 925 l 595 925 l 591 925 q 585 922 587 924 l 559 891 q 541 894 551 901 l -40 -37 l -43 -43 l -43 -47 q -42 -50 -42 -48 q -33 -56 -39 -55 q 17 -72 -7 -64 q 120 -101 68 -88 l 124 -101 l 130 -98 l 154 -71 q 174 -69 165 -75 l 728 785 q 732 793 731 788 l 732 796 q 726 806 731 802 q 706 827 717 817 q 615 907 660 867 q 600 922 608 915 q 595 925 597 924 m 31 -12 l 31 -12 l 593 898 q 593 897 593 898 q 605 887 600 892 q 707 795 657 842 l 707 795 l 163 -50 l 162 -50 q 33 -12 96 -33 q 31 -12 32 -12 z "},":":{"ha":178,"x_min":-33,"x_max":232,"o":"m 190 161 l 190 161 q 186 26 232 92 q 183 23 185 24 q 180 19 182 21 q 178 16 179 18 q 176 12 177 14 q 135 -27 160 -13 q 80 -41 109 -41 q 49 -36 64 -41 q -32 60 -20 -12 l -33 68 l -33 68 q -33 72 -33 70 q -33 77 -33 75 q -7 144 -31 115 q -5 146 -6 145 q -3 149 -3 148 q 0 153 -1 151 q 2 157 1 155 q 93 209 35 205 l 102 209 l 111 208 q 190 161 161 201 m 187 109 l 187 109 q 156 165 182 143 q 94 186 130 187 q 28 155 54 184 q 7 84 3 124 q 81 7 19 22 q 160 31 127 -1 q 187 109 193 62 m 190 602 l 190 602 q 186 467 232 533 q 183 464 185 465 q 180 460 182 462 q 178 456 179 458 q 176 453 177 454 q 135 414 160 428 q 80 400 109 400 q 49 405 64 400 q -32 500 -20 429 l -33 509 l -33 509 q -33 513 -33 511 q -33 517 -33 515 q -7 585 -31 555 q -5 587 -6 586 q -3 589 -3 589 q 0 594 -1 591 q 2 597 1 596 q 93 650 35 646 l 102 650 l 111 649 q 190 602 161 642 m 187 549 l 187 549 q 156 606 182 584 q 94 627 130 628 q 28 595 54 625 q 7 525 3 565 q 81 448 19 463 q 160 471 127 440 q 187 549 193 503 z "},";":{"ha":172,"x_min":-40,"x_max":228,"o":"m 110 197 l 110 197 l 100 197 q 28 163 57 195 q 24 160 26 162 q 16 155 20 157 q -24 41 -40 110 q 24 -21 -12 1 q 8 -31 16 -26 q -1 -35 3 -33 q -7 -43 -6 -37 q -7 -46 -7 -45 q -22 -54 -14 -50 q -35 -65 -31 -56 q -35 -68 -35 -67 q -31 -75 -34 -73 l 37 -129 q 50 -127 44 -132 q 110 -83 82 -107 q 142 -56 126 -69 q 190 3 169 -31 q 212 73 210 36 q 212 75 212 74 l 212 81 l 212 92 q 207 119 210 105 q 118 197 186 184 l 110 197 m 24 -46 l 24 -46 q 71 -18 47 -33 q 87 -3 81 -12 q 82 12 92 7 q 71 16 76 14 q 23 74 32 35 q 42 147 15 113 q 110 175 71 178 q 174 139 149 173 q 189 92 187 117 q 166 6 193 45 q 103 -60 139 -33 q 70 -83 87 -73 l 24 -46 m 186 602 l 186 602 q 182 467 228 533 q 179 464 181 465 q 176 460 178 462 q 174 456 175 458 q 172 453 173 454 q 131 414 156 428 q 76 400 105 400 q 45 405 60 400 q -36 500 -24 429 l -37 509 l -37 509 q -37 513 -37 511 q -37 517 -37 515 q -11 585 -35 555 q -9 587 -10 586 q -7 589 -7 589 q -4 594 -5 591 q -2 597 -3 596 q 89 650 31 646 l 98 650 l 107 649 q 186 602 157 642 m 183 549 l 183 549 q 152 606 178 584 q 90 627 125 628 q 24 595 50 625 q 3 525 -1 565 q 77 448 15 463 q 156 471 123 440 q 183 549 189 503 z "},"<":{"ha":554,"x_min":-5,"x_max":562,"o":"m 541 758 l 541 758 l 538 758 l 24 572 q 17 553 14 566 q 18 538 18 546 q 1 531 9 534 q -5 524 -4 528 l -5 519 q -5 515 -5 517 q 8 290 1 402 q 12 275 7 281 q 267 175 138 220 q 526 88 396 131 q 534 90 530 87 q 539 97 539 93 l 539 130 l 540 131 q 553 128 547 127 q 561 138 559 131 q 562 187 561 162 q 562 360 562 273 q 562 362 562 361 l 562 366 q 561 370 562 368 q 552 376 558 376 q 541 375 547 376 q 500 381 522 375 q 459 394 478 387 q 380 423 420 408 q 381 424 380 424 q 382 424 381 424 q 386 425 384 425 q 511 449 448 437 q 517 457 515 452 l 518 486 q 529 488 524 487 q 537 494 534 489 q 539 509 539 501 q 546 655 543 583 q 550 736 548 696 q 549 752 551 745 q 541 758 547 757 m 528 731 l 528 731 l 517 508 l 277 462 q 273 442 263 454 q 460 371 366 405 q 535 354 496 357 q 540 354 537 353 l 539 154 q 494 168 517 161 q 291 237 393 202 q 163 284 227 260 q 52 330 107 307 l 39 554 l 528 731 z "},"=":{"ha":555,"x_min":7,"x_max":555,"o":"m 547 613 l 547 613 l 45 613 q 39 608 41 612 q 37 604 37 605 l 37 576 l 16 576 q 11 572 15 576 q 7 566 9 570 l 7 380 q 12 373 9 376 q 23 371 18 370 q 435 378 229 374 q 513 378 474 377 q 525 382 519 378 q 526 385 525 383 q 527 387 527 387 l 527 416 l 546 416 q 555 424 551 416 l 555 604 q 547 613 554 611 m 534 591 l 534 591 l 534 438 l 58 430 l 58 591 l 534 591 m 7 309 l 7 309 l 7 123 q 9 119 8 121 q 18 113 12 115 l 24 113 l 24 113 q 505 121 264 117 q 526 126 517 119 q 527 130 527 129 l 527 158 q 540 158 533 158 q 547 159 543 158 q 555 167 554 160 l 555 346 q 546 355 555 354 l 46 355 q 37 347 37 352 l 37 318 l 18 318 q 9 313 14 318 q 7 309 9 311 m 534 334 l 534 334 l 534 180 l 58 173 l 58 333 l 59 334 l 534 334 z "},">":{"ha":566,"x_min":-14,"x_max":581,"o":"m 85 742 l 85 742 l 82 742 q 79 741 81 741 q 73 728 73 736 q 71 708 72 718 q 56 714 64 710 q 43 707 47 715 l 16 478 q 26 467 17 469 q 31 467 29 467 q 108 444 72 463 q 201 396 155 421 q 205 394 203 395 q 206 394 205 394 q 206 393 206 393 l 67 382 q 56 372 57 380 q 53 355 54 363 l 36 354 q 26 347 28 353 l -13 101 l -14 100 l -14 96 q -13 95 -13 96 q -5 87 -11 89 l -1 87 l 530 216 q 537 225 537 218 q 538 238 537 232 q 553 241 545 240 q 566 248 562 243 q 568 267 569 256 q 572 328 570 298 l 581 491 l 581 493 q 580 496 580 495 q 578 500 579 498 q 564 508 571 505 q 427 582 496 547 q 85 742 258 665 m 546 262 l 546 262 l 41 140 l 76 361 l 317 380 q 325 399 336 384 q 159 486 242 444 q 70 517 117 509 l 93 715 l 94 715 q 398 572 247 645 q 558 486 479 531 l 546 262 z "},"?":{"ha":589,"x_min":-43,"x_max":637,"o":"m 353 978 l 353 978 l 328 978 l 326 977 q 133 930 224 974 q 45 874 87 909 q -17 791 2 839 q -21 776 -19 783 q -29 764 -24 770 q -39 740 -35 752 q -43 728 -41 733 l -43 723 q -38 715 -42 719 l 132 589 q 144 588 138 586 q 163 611 155 597 q 193 646 174 627 q 233 678 212 665 q 276 692 255 691 q 310 663 301 690 q 317 613 318 635 q 314 591 317 602 q 294 574 306 582 q 233 537 262 554 q 188 480 203 519 q 182 460 185 470 q 172 446 178 454 q 155 391 160 420 q 149 264 142 328 q 162 245 148 249 l 362 245 q 374 256 374 248 q 374 274 375 264 q 374 277 374 275 q 376 294 374 286 q 393 299 387 292 q 396 313 397 306 q 399 352 395 333 q 417 373 406 363 q 460 402 437 390 q 504 431 484 415 q 585 541 557 477 q 604 583 594 562 q 635 688 627 633 l 637 710 l 637 736 l 635 757 q 546 909 616 850 q 380 976 475 968 l 353 978 m 369 321 l 369 321 l 197 321 q 195 342 195 332 q 214 471 193 409 q 251 516 226 501 q 301 547 275 532 q 359 618 344 571 q 363 695 370 655 q 332 756 357 735 q 258 758 307 778 q 202 721 227 745 q 158 669 177 696 l 157 669 l 8 780 q 45 837 20 812 q 99 880 70 862 q 281 947 180 932 q 470 925 382 962 q 600 787 558 888 q 596 636 623 716 q 514 506 568 555 q 476 479 496 490 q 437 455 456 469 q 375 368 391 422 q 369 321 369 345 m 416 74 l 416 74 q 364 182 412 144 q 256 218 317 220 q 150 161 195 215 q 135 138 142 150 q 120 120 127 130 q 97 9 87 67 q 158 -85 108 -48 q 273 -110 213 -121 q 370 -44 333 -98 q 381 -28 375 -35 q 416 64 414 12 q 416 74 416 68 m 261 193 l 261 193 q 372 136 335 193 q 377 11 408 79 q 273 -55 340 -52 q 163 1 205 -58 q 156 126 125 66 q 261 193 187 186 z "},"@":{"ha":1048,"x_min":-19,"x_max":1084,"o":"m 637 1037 l 637 1037 l 593 1037 l 591 1036 q 338 986 463 1032 q 127 842 214 939 q -17 503 -1 697 q -19 480 -16 491 l -19 460 q -19 456 -17 458 l -19 452 q -17 450 -17 452 q -16 422 -16 436 q 76 159 -4 275 q 294 -11 156 44 q 488 -48 388 -47 q 491 -50 490 -47 l 509 -50 q 512 -48 510 -48 q 720 -6 618 -47 q 902 104 821 35 q 926 125 915 114 q 930 133 930 130 q 930 141 929 137 q 946 155 937 148 q 955 163 951 158 q 956 174 958 168 l 844 262 q 918 291 884 273 q 980 340 953 309 q 1084 613 1083 456 q 1084 617 1083 616 l 1084 634 q 1084 638 1083 635 q 1051 806 1083 725 q 950 943 1019 888 q 815 1009 890 987 q 667 1036 741 1031 l 637 1037 m 593 753 l 593 753 l 724 755 q 722 736 723 745 q 732 550 719 642 q 749 480 737 514 q 787 435 762 446 q 854 456 812 424 q 932 584 919 509 q 917 733 946 660 q 823 854 887 807 q 658 906 753 901 q 470 884 563 911 q 313 806 377 857 q 210 657 237 743 q 196 476 183 572 q 461 180 224 235 q 655 169 557 157 q 830 245 753 181 l 928 168 q 615 16 793 47 q 351 36 479 -6 q 135 186 222 78 q 31 493 33 321 q 124 804 28 665 q 309 949 195 898 q 550 1012 423 1001 q 788 994 677 1023 q 950 915 884 970 q 1044 762 1015 859 q 1062 608 1064 692 q 1028 451 1061 524 q 926 341 996 378 q 815 309 878 317 q 703 322 753 302 q 658 352 681 332 q 627 395 635 372 q 621 433 625 416 q 607 439 614 444 q 593 429 599 435 q 459 397 527 387 q 348 476 391 408 q 327 609 311 541 q 407 716 342 677 q 560 722 482 753 q 584 709 573 715 q 597 719 595 708 l 593 753 m 573 741 l 573 741 q 520 755 547 751 q 336 680 406 772 q 283 587 300 638 q 287 463 266 523 q 363 366 309 403 q 471 339 414 336 q 576 374 528 342 q 583 346 581 360 q 597 323 589 334 q 690 260 635 275 q 804 254 745 244 q 664 192 743 203 q 466 201 570 177 q 294 294 361 225 q 217 482 230 370 q 243 684 204 594 q 348 786 276 748 q 490 838 420 824 q 648 848 570 856 q 788 798 726 840 q 878 671 849 756 q 886 555 896 615 q 825 461 877 495 q 792 456 804 450 q 772 483 780 463 q 746 615 749 540 q 745 751 743 690 q 744 770 746 764 q 727 777 742 776 q 690 776 708 777 q 585 774 637 774 q 573 772 579 777 q 570 757 568 766 q 573 741 572 748 m 559 634 l 559 634 q 496 603 522 631 q 484 538 471 576 q 526 496 497 508 q 586 488 555 484 q 605 492 593 488 q 618 504 617 496 l 606 625 q 587 633 599 633 q 559 634 573 635 m 559 577 l 559 577 l 567 509 q 521 524 542 509 q 503 566 500 539 q 559 577 528 582 z "},"A":{"ha":748,"x_min":-26,"x_max":776,"o":"m 602 910 q 709 532 683 723 q 763 -15 776 13 l 718 -17 l 721 -43 q 361 -68 450 -64 q 391 217 360 -50 l 337 228 q 321 24 328 165 q 307 25 311 24 q 277 45 303 27 q 272 -7 275 -1 q 267 -9 268 -5 l 259 -1 l 151 48 q -26 100 77 79 q 214 889 -16 394 q 255 901 243 877 q 340 905 268 929 q 595 909 454 892 q 602 910 597 912 m 281 886 q 55 156 81 453 l 59 154 q 245 94 132 139 q 289 69 271 77 q 315 294 300 222 q 471 269 370 297 q 445 -5 470 227 q 732 12 726 15 q 616 804 715 396 q 587 878 610 806 q 281 886 345 858 m 383 705 l 387 703 q 479 416 459 558 l 476 408 q 321 424 376 437 q 340 570 308 430 q 383 705 351 627 m 363 525 q 356 457 350 460 q 379 455 372 458 l 383 463 q 363 525 369 522 z "},"B":{"ha":702,"x_min":-35,"x_max":741,"o":"m 404 949 l 422 949 q 671 798 621 945 q 678 731 674 739 q 644 593 677 676 q 736 368 741 530 q 581 87 734 233 q 137 -31 372 -37 l 97 -31 q 58 1 71 -31 q -35 826 72 643 q 14 843 -18 836 q -3 883 -3 875 q 404 949 254 953 m 37 864 q 121 53 134 667 l 166 53 q 644 210 454 46 q 706 365 705 291 l 706 387 q 608 581 709 528 q 595 590 595 581 q 647 731 644 637 q 527 903 650 859 q 433 918 480 916 l 394 918 q 37 864 273 922 m 417 754 q 478 720 461 753 l 478 699 q 316 601 476 640 q 296 739 302 640 q 417 754 351 755 m 335 666 l 335 658 l 338 635 q 406 665 404 655 l 384 669 l 357 671 l 335 666 m 428 486 l 450 486 q 516 432 517 477 l 516 414 q 339 289 514 338 q 317 467 332 309 q 428 486 357 488 m 356 395 q 362 328 355 384 q 452 370 394 327 l 452 384 q 414 403 447 402 l 365 404 q 356 395 356 403 z "},"C":{"ha":558,"x_min":-35,"x_max":595,"o":"m 345 924 q 571 907 439 937 l 571 903 q 538 845 564 893 l 549 833 q 486 646 475 730 l 477 646 l 468 649 q 458 576 467 576 q 353 594 398 600 q 247 478 238 551 q 245 448 242 477 l 248 435 q 372 333 261 320 l 380 334 l 549 385 l 558 386 q 595 373 591 385 q 575 169 564 264 l 583 107 l 590 87 q 555 73 569 74 l 559 42 l 567 21 q 454 -16 528 -7 l 419 -20 q 30 233 174 -49 q -11 384 -1 302 l -14 402 q 92 791 -35 581 q 345 924 200 907 m 39 453 q 269 105 68 218 q 448 77 355 66 l 461 79 q 555 104 524 87 l 548 134 q 562 359 534 242 l 557 359 l 380 302 q 243 361 292 292 q 216 435 227 388 q 330 676 198 589 q 378 692 347 688 q 458 683 414 695 l 458 688 q 528 888 451 747 q 349 894 432 904 l 340 893 q 39 565 79 861 q 39 453 31 522 z "},"D":{"ha":762,"x_min":-14,"x_max":782,"o":"m 186 879 l 244 879 q 747 608 606 879 q 782 457 782 536 l 782 412 q 524 -23 782 190 q 280 -90 427 -90 q 84 -81 261 -90 q 75 -63 75 -70 q -14 812 75 67 l 0 821 l 22 821 l 18 852 l 18 857 q 186 879 37 879 m 49 835 q 133 -1 133 127 l 142 -5 q 319 -14 295 -14 q 737 306 608 -14 q 755 417 755 367 l 755 452 q 444 821 755 710 q 213 852 338 852 q 49 835 49 848 m 347 648 q 519 457 471 648 q 524 408 524 441 q 444 271 524 311 q 391 261 413 261 l 373 261 q 333 306 333 261 q 302 635 333 333 q 347 648 313 644 m 338 568 l 338 564 q 359 297 359 323 q 382 288 374 288 q 467 359 467 288 l 467 368 q 338 568 467 511 z "},"E":{"ha":587,"x_min":-34,"x_max":629,"o":"m 418 816 q 473 811 472 821 q 506 565 488 669 q 503 559 502 564 l 480 560 l 472 558 q 473 496 476 503 q 420 496 465 498 q 458 321 443 412 q 424 307 437 309 q 437 259 435 269 q 565 303 502 279 q 623 43 584 271 l 629 13 q 621 2 629 3 l 595 -2 l 603 -50 q 596 -60 605 -58 q 79 -91 222 -98 l 77 -87 q 54 207 81 54 l 53 211 q -34 612 19 404 q 3 631 -8 629 l -5 680 q 418 816 222 781 m 25 663 q 109 279 76 467 q 130 -1 138 108 q 598 31 483 10 q 548 265 585 108 q 309 197 463 237 l 278 292 l 286 297 l 304 300 q 433 340 358 309 q 386 504 426 351 q 264 455 352 484 l 258 463 l 255 480 q 237 555 243 522 q 254 561 244 560 l 312 572 q 475 591 354 579 l 471 612 q 445 788 459 677 l 397 781 q 25 663 227 751 z "},"F":{"ha":669,"x_min":-5,"x_max":690,"o":"m 65 768 q 685 808 677 852 q 690 526 685 665 l 685 525 q 649 524 681 525 l 649 519 q 642 459 659 463 q 532 465 537 466 q 500 212 556 222 q 479 151 486 151 q 340 146 468 149 q 353 36 347 73 l 372 -83 q 361 -94 374 -92 l 328 -94 l 335 -134 l 334 -157 q 79 -134 271 -166 q 54 -93 58 -119 l 52 -75 q 26 704 -5 278 q 60 722 62 709 q 65 768 60 751 m 88 736 q 111 33 65 318 l 121 -37 q 342 -66 150 -58 l 323 58 q 299 233 313 122 l 307 241 q 500 243 475 239 q 500 441 522 309 q 302 437 408 436 l 302 441 q 306 559 295 557 q 663 553 478 569 l 662 557 q 656 790 657 586 q 88 736 560 811 m 329 468 l 329 463 q 424 466 342 466 l 437 468 l 436 473 q 342 471 417 469 l 329 468 z "},"G":{"ha":764,"x_min":-37,"x_max":817,"o":"m 574 269 q 576 273 575 271 l 574 269 m 351 824 q 541 793 432 832 q 439 520 479 602 l 430 524 q 411 481 421 482 q 315 504 369 500 q 274 370 262 498 l 277 357 q 364 235 283 279 l 369 235 q 374 370 376 344 l 364 414 l 372 420 l 395 422 l 393 448 q 400 458 393 458 l 502 468 q 753 503 618 479 q 786 491 784 500 l 791 435 q 581 -24 817 170 q 401 -91 491 -82 q 28 158 157 -115 q -12 337 -3 239 q 174 758 -37 586 q 351 824 265 816 m 42 369 q 303 -11 73 71 q 425 -26 340 -25 q 750 265 656 -3 q 761 467 771 359 l 761 471 q 425 429 479 435 l 427 412 q 425 304 432 357 q 485 323 447 316 q 540 307 538 329 q 417 197 505 205 q 258 315 319 186 q 244 363 246 338 q 331 568 227 532 l 340 568 q 427 555 366 572 l 508 777 l 503 777 q 357 793 430 800 l 349 792 q 42 468 96 768 q 42 369 41 387 m 387 233 q 419 224 387 226 q 477 256 452 227 l 442 252 q 387 233 433 252 z "},"H":{"ha":693,"x_min":-2,"x_max":705,"o":"m 113 861 q 361 818 360 826 l 338 558 l 364 560 l 373 556 q 393 798 380 798 l 420 800 q 427 822 419 822 l 685 838 q 694 831 694 838 l 696 800 q 662 71 705 662 q 658 66 658 71 l 635 69 l 631 69 q 624 42 632 57 l 593 45 l 504 39 q 340 24 452 36 q 336 28 340 29 q 347 270 343 254 l 307 267 q 290 35 299 35 l 264 33 q 256 10 265 11 q 16 -1 65 2 q 12 3 16 3 q 62 746 -2 288 q 79 836 65 774 l 102 833 q 113 861 109 833 m 134 821 q 75 56 58 340 l 271 60 l 271 64 q 290 319 275 319 l 330 322 q 410 318 388 326 q 399 77 407 307 l 408 82 q 598 98 530 94 l 638 97 q 669 811 667 551 l 664 810 q 448 793 595 806 q 433 529 431 557 l 428 529 q 307 543 308 526 l 331 799 q 134 821 187 825 z "},"I":{"ha":355,"x_min":-13,"x_max":355,"o":"m 13 805 q 330 851 309 846 l 332 847 q 355 94 318 638 q 334 57 325 87 l 326 50 q 105 16 111 -6 q 88 62 93 43 l 85 75 q -13 762 34 269 q 7 789 13 768 q 13 805 4 802 m 37 779 q 135 111 92 277 q 149 78 149 81 l 328 116 q 304 817 290 623 l 37 779 z "},"J":{"ha":606,"x_min":-41,"x_max":616,"o":"m 608 838 q 612 833 608 833 q 616 705 612 819 q 372 -113 616 49 q 292 -131 323 -131 q -41 180 42 -131 l -41 198 q -10 247 -24 207 q 185 376 132 376 q 226 269 196 376 q 275 229 248 229 l 292 229 q 328 403 321 235 l 328 420 q 310 549 326 549 l 226 549 q 105 553 188 549 l 101 562 l 101 621 q 96 776 101 671 q 119 781 104 781 l 119 811 l 123 821 q 190 816 168 816 l 363 816 q 608 838 500 816 m 292 785 l 150 789 l 150 629 q 163 616 150 623 l 354 616 q 376 482 372 616 l 376 412 q 279 198 366 198 q 172 345 207 198 l 168 345 q 7 224 128 332 q 136 -6 39 83 q 301 -64 223 -64 l 328 -64 q 559 309 482 -64 q 585 638 585 474 l 585 802 q 292 785 437 785 z "},"K":{"ha":760,"x_min":3,"x_max":808,"o":"m 448 690 q 761 668 477 691 l 761 664 q 437 325 758 653 l 437 320 l 807 78 l 807 73 q 704 28 808 67 q 708 15 708 19 q 408 -104 465 -89 q 313 10 358 -35 l 317 -60 q 268 -81 317 -72 q 254 -126 272 -125 q 73 -151 102 -149 q 22 198 47 -152 q 5 567 12 431 q 29 612 3 612 l 27 652 q 35 663 27 661 l 346 680 q 355 671 355 680 q 343 591 340 623 q 406 642 377 642 q 448 690 406 648 m 454 664 q 317 478 404 602 l 308 473 l 304 473 q 321 651 311 585 l 55 637 q 62 428 58 496 l 77 165 q 109 -73 85 15 l 289 -49 l 286 5 q 281 190 283 73 l 285 191 q 488 -20 479 -21 q 753 75 743 75 q 403 314 742 90 l 397 322 q 708 647 705 638 q 454 664 690 646 z "},"L":{"ha":562,"x_min":2,"x_max":593,"o":"m 104 804 q 420 764 122 800 q 309 271 367 593 l 313 271 q 580 359 476 301 l 584 350 q 576 243 576 283 q 593 17 576 156 q 540 -19 580 17 q 286 -54 446 -54 q 20 -45 180 -54 q 2 88 2 -3 q 64 772 2 341 l 96 772 q 104 804 96 790 m 122 772 q 64 119 64 374 l 64 79 q 77 8 64 8 q 309 -1 104 8 q 566 35 450 -1 q 553 222 553 151 l 553 315 q 282 239 370 239 q 277 243 282 243 q 389 741 345 617 l 122 772 z "},"M":{"ha":869,"x_min":1,"x_max":916,"o":"m 54 669 q 55 666 54 668 q 54 669 54 667 m 159 715 q 158 716 159 715 q 157 718 157 717 l 157 719 l 159 715 m 290 775 q 374 566 330 689 l 378 566 l 374 619 l 374 650 q 392 659 374 659 l 392 704 q 659 734 392 719 q 747 579 659 728 q 895 219 832 422 q 916 113 916 130 l 895 99 l 903 64 q 663 -52 704 -52 q 596 126 653 -44 l 592 126 l 592 45 q 574 37 592 37 l 574 -7 q 334 -43 554 -28 q 298 113 334 -31 l 294 113 l 294 104 l 298 59 q 281 50 287 50 l 281 10 q 63 -25 281 -6 q 5 574 27 -25 q 1 588 1 583 q 18 597 12 597 l 18 637 q 290 775 18 651 m 45 619 q 90 55 63 144 q 272 81 272 73 q 254 361 254 318 q 258 379 258 369 l 268 379 q 370 37 343 156 l 374 37 q 565 59 475 45 q 574 303 574 284 l 583 309 l 587 309 q 694 33 684 35 q 889 130 796 69 q 645 708 854 363 q 414 686 479 694 q 418 566 418 604 l 418 393 l 410 393 q 281 743 410 421 q 45 623 45 631 l 45 619 z "},"N":{"ha":663,"x_min":-24,"x_max":661,"o":"m 655 311 q 654 301 654 304 q 652 292 653 297 q 655 309 654 301 l 656 313 l 655 311 m 247 730 q 345 544 286 673 l 349 544 l 349 553 q 340 628 340 623 q 362 633 348 633 l 362 637 l 358 659 q 620 690 389 671 q 661 473 661 651 l 661 428 q 651 10 661 345 q 629 -17 646 -17 l 629 -39 q 371 -70 629 -55 l 327 64 l 322 64 q 331 10 331 28 q 309 -7 309 5 q 313 -21 313 -17 q 96 -52 313 -33 q -24 548 66 -52 l -24 566 q -2 574 -9 574 l -7 583 l -7 593 q 247 730 9 610 m 20 574 q 122 10 69 211 q 304 28 142 10 q 260 326 260 268 l 260 330 l 269 330 q 402 -12 384 73 l 625 10 q 633 370 633 176 l 633 495 q 611 659 630 659 q 385 642 576 659 l 385 637 q 420 344 411 448 l 411 344 q 247 694 337 524 l 237 694 q 20 574 33 591 z "},"O":{"ha":749,"x_min":-28,"x_max":777,"o":"m 386 728 q 755 437 650 728 q 777 307 777 355 q 648 2 777 159 q 404 -101 524 -101 l 368 -101 q -1 180 122 -101 q -28 303 -28 241 l -28 347 q 96 616 -18 479 q 386 728 231 728 m 21 374 q 217 31 21 176 q 399 -20 300 -20 l 421 -20 q 723 181 614 -20 q 745 295 745 243 l 745 314 q 559 654 745 523 q 404 697 475 697 l 363 697 q 52 512 176 697 q 21 374 21 436 m 345 488 q 501 347 435 488 l 505 306 q 381 197 505 221 l 372 197 q 248 347 266 197 l 248 375 q 345 488 261 488 m 275 383 l 275 371 q 355 227 275 250 q 376 222 369 227 q 452 254 414 222 l 452 258 q 350 399 452 340 q 332 404 342 404 l 315 404 q 275 383 275 395 z "},"P":{"ha":652,"x_min":-3,"x_max":694,"o":"m 326 851 l 374 851 q 686 669 616 851 q 694 607 694 636 l 694 580 q 592 322 694 465 q 321 229 486 229 q 339 7 339 43 l 313 7 l 317 -37 l 317 -51 l 313 -51 q 28 -20 108 -20 q 23 -15 28 -15 q 37 136 37 67 q -3 718 37 307 q 23 732 14 732 l 19 762 l 19 772 q 188 838 47 804 q 326 851 275 851 m 45 758 q 81 229 81 389 l 81 140 q 77 64 81 117 q 317 34 232 51 q 294 314 294 229 q 307 318 303 318 q 343 314 326 318 q 654 496 578 314 q 672 607 672 566 q 428 821 672 788 q 379 825 428 825 l 334 825 q 45 758 180 825 m 330 651 q 446 576 446 640 l 446 572 q 317 465 446 485 l 299 465 q 290 478 290 465 q 277 642 290 518 q 330 651 284 647 m 307 567 q 313 500 313 523 l 313 491 l 317 491 q 397 531 369 491 q 307 567 397 557 z "},"Q":{"ha":847,"x_min":-26,"x_max":894,"o":"m 422 844 q 783 542 670 844 q 809 368 809 443 q 751 159 809 260 l 751 155 q 894 93 779 155 l 894 88 l 783 -45 q 707 -103 711 -103 l 698 -98 l 653 -125 q 498 -32 588 -98 q 378 -50 416 -50 q -18 323 105 -50 q -26 422 -26 389 l -26 435 q 320 830 -26 718 q 422 844 378 844 m 54 448 q 241 66 54 241 q 422 4 342 4 l 440 4 q 555 21 485 4 q 707 -67 675 -62 q 849 83 787 -14 q 711 137 785 119 l 707 146 q 778 355 778 234 l 778 395 q 596 764 778 610 q 436 813 504 813 l 395 813 q 85 604 209 813 q 54 448 54 512 m 382 564 q 534 408 470 564 q 538 363 538 385 q 405 243 538 264 q 294 337 330 243 q 280 426 280 369 l 280 431 q 351 559 280 526 l 382 564 m 329 511 q 307 426 307 471 q 400 275 307 292 q 414 271 409 271 q 458 351 458 297 q 360 501 458 426 q 329 511 342 511 z "},"R":{"ha":699,"x_min":-3,"x_max":722,"o":"m 340 884 l 397 884 q 704 707 631 884 l 718 631 q 615 395 718 496 l 615 391 q 722 71 722 191 q 677 67 716 71 l 682 58 l 682 45 q 486 9 682 34 q 406 -13 486 5 q 349 235 375 94 l 344 235 l 344 227 q 362 45 357 68 l 353 40 l 349 40 l 317 45 l 317 5 q 33 36 115 36 l 28 45 q 37 191 37 138 q -3 774 37 393 q 64 827 6 774 q 340 884 215 884 m 64 796 q 104 231 104 378 q 95 98 99 137 q 335 67 262 85 q 313 347 317 243 l 321 351 l 384 351 q 460 54 397 351 q 695 98 535 75 l 695 102 q 615 351 693 170 l 584 400 l 584 409 q 690 640 690 491 q 526 840 690 786 q 401 858 463 858 l 349 858 q 64 796 218 858 m 349 685 q 464 614 450 685 l 464 604 q 335 498 443 498 l 321 498 q 295 675 309 498 q 349 685 300 680 m 326 623 q 340 525 330 525 q 397 569 397 525 l 397 591 q 326 623 368 623 z "},"S":{"ha":566,"x_min":-44,"x_max":593,"o":"m 354 827 q 585 741 589 757 l 584 736 q 580 522 555 621 l 576 524 q 531 548 539 546 l 543 500 q 537 497 538 501 q 374 578 447 561 l 370 581 q 334 580 351 585 q 427 479 319 522 q 567 306 550 397 q 565 133 588 227 q 328 -98 520 -43 q 212 -87 259 -98 l 191 -80 q -25 10 122 -64 q -4 74 -10 52 l 2 99 q 18 252 20 172 l 52 229 q 48 286 47 277 l 52 283 q 200 195 149 210 l 213 193 q 258 205 252 183 q 154 340 283 309 q 5 662 -44 463 l 12 684 q 184 842 38 789 q 354 827 275 846 m 64 689 q 168 411 18 515 q 314 282 329 342 q 313 227 325 280 l 311 219 q 216 165 296 157 l 194 171 q 73 237 157 180 q 67 161 77 200 l 40 49 q 231 -27 166 -11 l 267 -35 q 511 64 418 -75 q 536 125 529 102 l 547 169 q 408 460 593 354 q 313 590 293 509 l 315 599 q 419 631 327 648 q 547 572 455 623 l 548 576 q 555 735 538 668 q 351 800 422 782 q 64 689 105 861 z "},"T":{"ha":699,"x_min":-17,"x_max":734,"o":"m 707 854 l 711 846 l 711 783 q 734 534 711 730 l 725 530 l 685 530 l 685 490 q 676 481 685 481 l 672 481 q 627 477 629 481 q 565 481 589 481 l 486 481 q 498 -39 486 473 q 450 -52 489 -49 l 450 -83 q 254 -115 450 -106 q 196 -87 196 -115 q 170 468 196 203 q -13 428 28 441 l -17 437 q 36 748 -17 748 q 58 775 58 748 q 210 806 58 806 q 707 854 493 842 m 58 570 l 58 512 q 237 539 161 539 q 267 28 267 339 l 267 -34 q 303 -39 292 -39 q 472 -17 472 -30 q 463 548 463 401 l 463 557 l 467 566 q 623 557 525 557 l 711 557 q 681 824 690 701 q 85 766 584 824 q 58 570 58 696 z "},"U":{"ha":794,"x_min":-10,"x_max":794,"o":"m 701 870 q 794 306 794 610 l 794 288 q 568 -68 794 113 q 376 -121 473 -121 q 75 87 211 -121 q -10 643 -10 333 l -1 648 l 35 648 q 30 736 30 707 l 30 764 q 39 772 31 772 l 132 772 q 306 781 211 772 q 310 777 306 777 q 288 496 288 602 l 288 470 q 399 243 288 243 l 434 243 q 483 319 483 243 q 488 350 488 336 q 399 701 488 477 q 452 719 412 710 l 425 794 q 701 870 572 830 m 456 777 q 550 412 550 530 l 550 368 q 470 221 550 268 q 421 212 430 216 q 261 492 261 212 q 283 750 270 677 q 141 745 188 745 l 56 745 l 56 719 q 199 61 56 202 q 421 -45 307 -45 q 754 208 641 -45 q 772 306 772 273 q 692 839 772 555 q 456 777 592 803 z "},"V":{"ha":626,"x_min":-35,"x_max":667,"o":"m 667 421 l 667 423 q 667 421 667 422 m 357 851 q 641 798 641 812 l 641 793 q 485 -37 577 83 l 477 -33 l 468 -33 q 441 -68 447 -68 q 268 -47 342 -47 l 237 -47 q 157 -55 201 -47 q -35 656 -35 444 l -35 687 q 5 700 -35 694 q 37 732 5 732 q 259 802 94 732 l 263 793 q 294 513 263 713 l 298 513 q 303 602 303 574 l 303 740 q 312 821 303 798 l 334 816 l 348 816 l 348 843 q 357 851 349 851 m 374 821 l 374 798 q 379 629 374 705 q 330 256 379 456 l 321 256 q 237 762 237 626 q 32 700 94 704 q 214 12 32 510 l 268 16 l 303 16 q 472 -2 374 16 q 610 776 559 159 q 614 781 614 776 q 374 821 606 785 z "},"W":{"ha":1004,"x_min":-27,"x_max":1040,"o":"m 455 518 q 454 525 454 520 l 454 526 q 455 518 455 524 m 640 824 q 662 623 648 795 q 701 414 666 612 l 711 414 q 724 588 724 507 l 724 730 q 742 739 724 739 l 742 775 l 746 783 l 1040 734 q 964 233 1040 602 q 853 -56 906 40 l 848 -56 q 680 -34 756 -34 l 631 -34 q 564 -43 606 -34 q 524 68 533 36 l 519 68 l 462 -79 q 257 -56 308 -56 q 168 -66 242 -56 q -27 677 -27 425 q -9 682 -20 682 l -9 717 q 93 739 -9 725 q 244 802 180 770 l 248 792 q 306 379 248 668 l 311 379 q 328 628 328 487 l 328 708 q 346 717 328 717 l 346 748 l 351 757 l 373 753 l 408 753 q 640 824 483 753 m 404 721 l 373 726 l 373 623 q 315 250 373 456 l 306 250 q 222 757 222 626 l 218 757 q 18 694 119 713 q 199 5 18 508 q 279 15 270 15 q 457 -7 374 10 q 533 197 498 78 l 542 197 q 600 33 559 128 l 652 37 l 684 37 q 857 19 749 37 q 972 437 972 316 q 1008 713 991 508 l 773 748 q 711 273 773 458 l 701 273 q 617 783 617 685 q 404 721 479 721 z "},"X":{"ha":827,"x_min":-41,"x_max":874,"o":"m 794 843 q 798 838 794 838 l 594 456 l 874 180 q 821 149 821 165 q 532 60 798 144 q 452 172 471 136 q 403 69 437 158 l 394 64 l 368 64 q 261 34 368 34 q 30 12 55 12 l 30 16 q 248 380 131 175 q -41 661 -41 656 q 248 802 43 715 q 380 642 380 651 l 390 642 q 474 802 461 802 q 514 829 500 802 l 794 843 m 523 802 q 408 576 420 576 q 239 772 246 768 l 43 683 q 323 407 44 677 l 119 64 q 385 96 361 88 q 470 269 460 267 q 589 118 570 124 l 825 189 q 563 452 768 252 l 759 816 l 523 802 z "},"Y":{"ha":637,"x_min":-41,"x_max":684,"o":"m 684 775 l 683 770 q 456 105 492 100 q 293 -111 329 -117 l 5 -52 q 2 -46 6 -47 l 175 203 l -41 701 l -40 705 l -1 725 q -15 749 -7 726 l 265 832 q 329 596 309 688 l 333 596 q 375 710 353 713 q 437 753 390 762 q 684 775 440 757 m 341 455 l 332 456 q 250 795 302 598 q 23 734 242 796 l 237 247 q 79 13 220 215 l 84 12 l 328 -39 q 525 351 496 179 q 648 745 531 354 q 413 722 435 727 q 341 455 345 479 z "},"Z":{"ha":739,"x_min":-18,"x_max":768,"o":"m 18 825 q 333 802 183 802 q 657 825 399 802 q 724 549 675 790 q 688 491 688 534 q 595 420 602 433 l 600 420 q 715 447 669 438 q 768 167 724 423 q 732 154 732 158 l 737 113 q 159 51 478 51 q 71 56 100 56 q 39 287 57 122 q 71 309 71 303 l 71 345 q 288 465 251 431 q 213 460 274 465 q -1 496 -1 460 l -18 767 l -9 772 l 13 767 l 13 816 l 18 825 m 324 776 q 39 793 249 776 l 39 789 q 57 549 53 577 q 231 541 151 541 l 243 541 q 399 553 298 541 l 399 549 q 138 349 333 435 q 97 322 97 327 q 119 132 119 147 l 208 132 q 737 184 498 132 l 737 189 q 693 416 705 390 q 422 349 686 416 l 422 353 q 697 562 422 357 q 644 798 644 778 q 324 776 397 776 z "},"[":{"ha":538,"x_min":81,"x_max":426,"o":"m 417 1028 l 417 1028 l 115 1028 q 106 1023 109 1027 q 105 1019 105 1019 l 105 985 l 91 985 q 88 984 90 985 q 85 982 86 983 q 81 975 82 979 l 81 -156 q 82 -159 81 -157 q 99 -165 88 -167 q 141 -165 120 -165 q 372 -168 257 -167 q 374 -168 374 -167 l 383 -168 q 392 -161 389 -167 q 393 -158 393 -159 l 393 -124 q 410 -123 402 -125 q 417 -114 416 -121 l 417 56 q 409 66 414 66 l 297 66 l 297 798 l 393 802 q 402 812 402 806 l 402 846 q 420 846 411 845 q 426 854 425 849 l 426 1019 q 417 1028 424 1027 m 404 1006 l 404 1006 l 404 867 q 396 867 400 867 q 297 863 347 865 q 284 862 290 863 q 275 853 277 861 l 275 55 q 278 48 275 52 q 284 45 281 45 l 395 45 l 395 -102 l 127 -99 l 127 1006 l 404 1006 z "},"\\":{"ha":386,"x_min":-123,"x_max":534,"o":"m 20 1069 l 20 1069 l 16 1069 q 10 1065 13 1067 q -5 1050 3 1057 q -96 970 -50 1010 q -116 949 -106 960 q -123 939 -120 945 l -123 936 q -120 931 -121 934 q -113 924 -116 927 q -120 915 -117 919 q -120 904 -123 910 l 359 -132 l 364 -135 l 368 -135 q 459 -110 414 -124 q 527 -87 494 -100 q 531 -81 530 -85 l 531 -77 q 520 -62 527 -69 q 520 -62 520 -62 q 521 -62 521 -62 q 525 -60 523 -61 q 528 -44 534 -54 l 26 1064 q 20 1069 24 1067 m 18 1041 l 18 1041 l 500 -45 q 370 -83 435 -67 l -96 938 l -96 939 q 5 1029 -46 985 q 17 1041 12 1036 q 18 1041 18 1041 z "},"]":{"ha":444,"x_min":31,"x_max":396,"o":"m 387 1022 l 387 1022 l 85 1022 q 77 1016 79 1021 q 75 1013 75 1014 l 75 991 l 42 991 q 33 985 37 991 q 31 981 32 983 l 31 818 q 40 808 33 810 q 63 808 52 808 q 153 804 108 806 q 161 804 157 804 l 161 61 l 95 61 q 86 56 91 61 q 85 52 85 53 l 85 30 l 84 30 l 50 30 q 41 20 43 30 q 41 -154 40 -67 q 58 -161 46 -164 q 297 -159 178 -160 q 336 -158 317 -159 q 347 -157 342 -159 q 353 -149 353 -153 l 353 -128 l 387 -127 q 396 -119 395 -126 l 396 1013 q 387 1022 395 1020 m 375 1000 l 375 1000 l 375 -106 l 106 -108 l 106 39 l 218 39 q 227 48 223 39 l 227 848 q 218 856 224 855 q 205 857 212 857 q 106 861 156 859 q 97 861 102 861 l 97 1000 l 375 1000 z "},"^":{"ha":688,"x_min":22,"x_max":587,"o":"m 326 1086 l 326 1086 l 323 1086 q 317 1083 320 1084 q 308 1074 313 1079 q 190 958 248 1017 q 54 827 121 893 q 39 812 45 820 q 47 795 37 801 l 26 774 l 22 768 l 22 764 l 25 759 q 172 640 98 699 l 174 639 l 179 639 q 185 643 182 640 l 307 750 l 369 672 q 390 672 379 663 q 560 754 475 713 q 570 770 572 758 q 558 783 566 777 q 556 786 557 785 l 582 799 q 585 802 584 800 q 587 807 586 805 l 587 808 q 585 812 586 810 q 583 816 585 814 l 332 1082 q 326 1086 330 1084 m 324 1059 l 324 1059 l 557 811 l 398 734 l 333 814 q 317 816 326 822 q 197 710 257 763 q 192 706 195 707 l 66 808 l 324 1059 z "},"_":{"ha":730,"x_min":5,"x_max":701,"o":"m 692 -10 l 692 -10 l 43 -10 q 34 -20 34 -14 l 34 -47 l 15 -47 q 5 -57 8 -47 l 5 -230 q 12 -239 7 -236 q 15 -239 14 -239 l 18 -239 q 19 -239 18 -239 q 168 -237 94 -238 q 645 -228 406 -233 q 662 -227 653 -228 q 672 -218 672 -225 l 672 -191 l 692 -190 q 701 -180 700 -188 l 701 -20 q 692 -10 700 -12 m 680 -32 l 680 -32 l 680 -168 l 56 -180 l 56 -32 l 680 -32 z "},"`":{"ha":694,"x_min":128,"x_max":595,"o":"m 443 930 l 443 930 l 439 930 l 438 930 q 183 920 311 925 q 162 919 172 920 q 153 909 153 918 q 165 897 157 901 l 136 895 q 128 888 130 894 l 128 886 l 130 882 l 403 669 q 412 668 407 667 q 554 664 483 665 l 562 663 l 562 663 q 570 672 570 665 q 570 676 570 674 q 562 688 566 682 q 574 687 568 687 q 591 688 583 686 q 595 694 595 690 l 595 696 l 595 699 l 449 926 q 443 930 446 929 m 439 901 l 439 901 l 564 704 l 535 705 q 456 707 496 706 q 435 708 446 707 l 201 891 l 275 894 l 439 901 z "},"a":{"ha":709,"x_min":-40,"x_max":705,"o":"m 651 653 l 651 653 l 615 653 q 447 650 531 650 q 433 650 439 650 q 423 641 426 650 q 427 610 424 626 l 394 611 q 389 609 391 610 q 376 612 383 610 q 226 618 298 633 q 94 548 154 603 q 67 519 80 534 q 56 509 62 515 q -40 304 -33 427 q -40 285 -40 295 q -39 279 -39 282 q -26 202 -37 239 q 92 39 8 97 q 286 -7 175 -19 q 438 54 370 4 q 444 6 441 30 q 460 -9 444 -9 q 625 48 543 18 q 659 62 643 54 q 666 74 666 66 q 665 88 665 81 l 698 101 q 705 109 703 104 l 705 119 q 704 122 704 121 q 696 389 701 256 l 689 640 q 671 652 686 654 q 653 653 662 653 q 651 653 652 652 m 665 628 l 665 628 l 680 119 q 547 71 614 94 q 508 58 527 64 q 507 58 507 58 l 498 119 q 483 127 494 130 q 470 119 476 124 q 362 64 420 81 q 241 58 304 47 q 97 140 153 75 q 27 291 41 205 q 54 456 14 376 q 132 548 83 511 q 243 597 182 586 q 338 596 286 604 q 427 565 389 588 q 441 556 434 559 q 456 572 457 556 l 449 626 q 456 625 452 626 q 563 627 509 625 q 665 628 614 629 m 410 430 l 410 430 q 335 406 370 427 q 286 350 300 385 q 293 273 272 315 q 370 214 320 227 q 469 215 420 201 q 481 219 475 216 q 489 229 488 222 q 479 324 485 276 q 471 408 475 366 q 453 427 471 426 q 410 430 432 431 m 408 363 l 408 363 l 421 232 q 351 249 384 231 q 314 287 327 262 q 309 338 301 311 q 313 349 310 345 q 325 355 319 353 q 408 363 365 373 z "},"b":{"ha":738,"x_min":-1,"x_max":786,"o":"m 306 884 l 306 884 l 302 885 q 125 865 214 869 q 55 865 90 865 q 45 853 45 862 q 45 835 45 844 l 9 835 q -1 827 3 833 l -1 823 q -1 821 -1 823 q 1 788 0 805 q 34 81 17 435 q 43 73 37 75 q 92 60 67 66 q 241 24 166 41 q 253 22 247 23 q 264 22 260 20 q 270 34 269 24 q 271 58 271 46 q 302 52 286 55 q 316 64 315 52 q 453 41 382 37 q 586 83 524 45 q 616 104 601 94 q 631 113 624 109 q 753 271 720 171 q 753 471 786 371 q 658 604 725 551 q 505 666 591 657 q 328 627 411 670 q 315 619 321 623 q 314 618 315 618 l 314 873 q 306 884 313 881 m 290 858 l 290 858 l 290 593 q 307 582 292 579 q 320 593 313 586 q 412 633 357 620 q 513 640 467 646 q 650 579 590 629 q 733 455 709 528 q 724 264 761 358 q 599 123 688 171 q 461 97 532 91 q 328 140 391 102 q 307 151 317 146 q 294 140 296 151 l 292 79 l 237 92 q 160 110 198 100 q 104 125 132 117 l 71 841 q 126 841 98 841 q 290 858 208 844 m 391 491 l 391 491 q 305 479 347 496 q 298 467 298 475 l 295 252 q 309 239 297 241 q 421 248 366 227 q 502 323 475 270 q 492 435 528 389 q 391 491 456 481 m 319 263 l 319 263 l 321 437 q 332 437 326 437 q 419 399 383 435 q 442 342 442 373 q 422 283 442 311 q 412 271 418 276 q 399 266 406 268 q 319 263 359 254 z "},"c":{"ha":545,"x_min":-11,"x_max":590,"o":"m 405 696 l 405 696 l 376 696 q 249 676 311 695 q 138 611 187 656 q 115 586 126 598 q 90 563 102 574 q -11 319 -5 460 q -11 296 -11 308 q -10 285 -9 291 q 71 82 -3 170 q 174 9 114 33 q 300 -14 234 -14 q 302 -15 301 -14 l 313 -15 q 315 -14 314 -14 q 530 35 427 -10 q 546 42 538 37 q 550 57 553 47 q 545 64 547 60 q 566 72 555 68 q 588 83 578 77 q 590 90 589 86 l 590 92 l 589 96 l 443 300 q 429 305 436 308 q 414 298 422 302 q 325 296 370 278 q 272 349 291 313 q 269 420 253 385 q 285 435 273 432 q 341 444 312 447 q 396 430 370 441 q 418 420 407 423 q 431 432 428 422 q 448 463 439 447 q 466 464 457 456 l 569 658 q 563 674 572 670 q 544 679 553 677 q 407 696 477 694 q 405 696 406 696 m 540 655 l 540 655 l 452 488 l 451 488 q 397 506 425 500 q 256 448 308 520 q 253 334 220 392 q 326 270 280 286 q 424 275 372 255 q 429 277 427 277 l 559 96 q 427 56 495 68 q 259 59 341 41 q 120 146 176 78 q 55 379 43 251 q 159 597 66 507 q 323 668 229 657 q 505 662 418 678 q 540 655 523 659 z "},"d":{"ha":732,"x_min":-24,"x_max":730,"o":"m 703 901 l 703 901 l 668 901 q 481 901 574 901 q 433 900 456 900 q 422 882 420 896 q 425 863 424 872 q 424 861 425 861 l 393 861 q 384 851 388 861 q 403 592 393 722 l 403 587 q 384 592 393 589 q 237 594 307 610 q 109 524 168 578 q 83 496 96 511 q 70 485 77 491 q -24 282 -17 402 q -24 262 -24 272 q -23 251 -22 256 q 54 64 -14 144 q 230 -31 122 -15 l 256 -33 l 273 -33 l 296 -31 q 454 31 383 -20 q 455 29 454 31 q 461 -20 458 4 q 471 -33 462 -30 l 475 -33 l 684 39 q 692 50 691 42 q 691 54 692 52 q 691 67 691 60 l 723 77 q 730 86 728 80 l 730 104 q 730 106 730 105 q 730 148 730 127 l 722 485 l 714 826 q 713 885 714 856 q 711 895 713 890 q 703 901 708 900 m 688 877 l 688 877 l 706 98 l 523 35 q 523 36 523 35 q 515 95 519 66 q 500 105 512 106 q 480 91 490 100 q 359 37 425 51 q 228 42 294 23 q 74 176 123 78 q 49 380 24 273 q 126 506 69 453 q 257 574 182 559 q 352 573 300 581 q 443 543 404 566 q 454 535 448 539 q 467 536 460 532 q 472 551 474 542 l 448 876 l 688 877 m 429 408 l 429 408 q 356 386 391 406 q 305 332 321 366 q 306 258 289 299 q 383 193 331 208 q 486 193 435 178 q 499 197 493 194 q 505 209 506 201 q 488 381 496 295 q 477 401 490 396 q 429 408 454 408 m 424 341 l 424 341 l 437 210 q 433 209 437 209 q 429 209 430 209 q 368 225 397 210 q 332 260 345 238 q 323 310 319 283 q 329 326 325 319 q 338 330 333 328 q 424 341 379 350 z "},"e":{"ha":642,"x_min":-43,"x_max":679,"o":"m 358 681 l 358 681 l 338 681 q 232 662 284 678 q 100 578 155 637 q 75 553 87 566 q -43 298 -33 448 q -43 279 -43 288 q -42 262 -42 271 q -3 143 -35 202 q 75 43 30 84 q 304 -45 172 -43 q 307 -46 305 -45 l 326 -46 q 328 -45 327 -45 q 484 -16 404 -44 q 622 61 564 13 q 639 83 635 70 q 668 106 654 94 q 677 117 675 113 q 674 132 679 122 q 594 283 634 208 q 582 291 590 292 q 560 277 570 286 q 469 230 522 249 q 368 216 416 211 q 317 240 338 218 l 612 387 q 615 408 622 397 l 652 427 q 656 440 659 432 q 651 455 654 448 q 538 611 614 546 q 361 680 462 676 q 358 681 359 680 m 629 442 l 629 442 l 285 271 q 280 255 277 265 q 288 239 283 245 q 368 191 317 195 q 466 203 420 188 q 570 254 522 220 q 578 260 574 257 q 579 260 578 260 l 650 123 q 526 51 595 76 q 327 19 429 13 q 142 90 225 24 q 37 239 71 151 q 44 445 1 340 q 172 608 86 549 q 385 654 271 665 q 528 588 468 642 q 622 460 588 534 q 629 442 627 450 m 309 511 l 309 511 q 263 499 286 511 q 230 467 241 487 q 218 366 210 418 q 232 354 220 354 q 415 438 324 395 q 417 456 425 446 q 367 493 394 477 q 309 511 340 510 m 329 425 l 329 425 l 241 385 q 242 425 239 405 q 253 458 245 443 q 311 438 285 456 q 314 436 311 438 q 321 432 317 434 q 327 427 324 429 q 329 425 330 425 z "},"f":{"ha":503,"x_min":-14,"x_max":533,"o":"m 502 1018 l 502 1018 l 498 1018 l 496 1017 q 357 985 425 1012 q 240 905 290 958 q 228 891 234 899 q 214 880 221 886 q 143 780 169 837 q 108 624 113 705 q 95 624 102 623 q 60 622 77 623 q 33 620 45 623 q 26 612 26 616 l 26 583 q 12 583 18 583 q -7 581 1 583 q -14 572 -12 577 l -14 391 q -11 387 -12 389 q 1 381 -7 381 l 109 393 q 149 76 121 233 q 162 3 155 39 q 170 -32 165 -14 q 184 -41 173 -41 q 460 -4 322 -23 q 467 8 468 -1 q 462 29 465 19 l 498 35 q 507 46 506 38 q 425 424 457 233 l 486 430 q 494 444 495 433 q 492 465 492 456 q 492 466 492 466 q 522 469 507 467 q 533 479 531 469 l 533 483 l 511 631 q 501 640 509 638 q 468 638 485 640 q 416 636 441 637 q 405 636 410 635 q 412 705 404 671 q 460 711 437 706 q 473 721 469 712 q 473 746 473 736 q 491 749 482 747 q 505 752 499 749 q 512 764 511 755 l 512 1005 q 502 1018 511 1015 m 488 992 l 488 992 l 488 773 q 476 771 482 772 q 446 768 461 769 q 418 758 431 766 q 388 706 395 740 q 380 644 380 672 q 382 616 378 629 q 397 611 388 609 q 486 614 441 612 q 490 615 488 615 l 507 492 l 405 481 q 393 470 393 479 q 395 451 393 460 q 414 340 404 395 q 479 56 442 197 l 230 24 q 173 427 190 224 q 170 452 174 440 q 159 457 165 457 l 50 446 l 50 597 l 113 600 q 155 601 134 600 q 169 612 168 603 q 169 631 170 621 q 188 762 172 699 q 248 878 204 825 q 357 958 294 930 q 488 992 419 985 z "},"g":{"ha":725,"x_min":-30,"x_max":732,"o":"m 675 743 l 675 743 l 645 743 q 482 741 564 742 q 445 741 463 742 q 434 732 436 740 q 437 703 435 717 q 406 702 423 702 q 399 699 401 701 q 388 703 394 701 q 233 708 311 724 q 88 622 148 686 q 66 600 77 611 q -30 391 -24 515 q -30 370 -30 380 q -29 359 -28 365 q 11 222 -24 287 q 109 120 46 157 q 209 87 152 97 q 313 81 265 78 q 431 113 375 86 q 427 102 429 108 q 420 90 424 96 q 407 82 414 86 q 295 59 355 56 q 181 78 235 62 q 154 87 168 83 q 140 80 144 88 l 130 43 q 111 48 123 45 q 100 41 104 47 l 47 -172 q 56 -186 45 -182 q 95 -195 75 -192 q 249 -216 171 -212 q 260 -216 254 -215 l 298 -216 q 300 -216 299 -216 q 448 -191 375 -215 q 577 -117 522 -167 q 604 -88 591 -102 q 637 -56 621 -73 q 714 103 696 14 q 732 283 732 193 q 732 286 732 285 l 732 312 q 732 315 732 313 q 700 655 728 486 q 686 728 694 692 q 675 743 686 739 m 664 718 l 664 718 q 690 556 679 637 q 706 237 712 397 q 676 57 704 142 q 567 -85 648 -27 q 393 -148 488 -138 q 207 -144 298 -159 q 113 -126 159 -138 l 159 59 q 259 37 208 43 q 364 41 312 31 q 457 88 416 52 q 500 173 493 123 q 483 187 500 191 q 458 174 471 181 q 326 144 397 144 q 191 166 254 143 q 87 248 126 191 q 38 373 48 304 q 47 505 27 441 q 122 621 69 572 q 243 685 174 669 q 343 687 288 694 q 439 655 399 680 q 451 647 445 650 q 467 658 464 645 l 460 716 l 664 718 m 425 521 l 425 521 q 348 498 384 519 q 298 441 313 477 q 304 364 283 406 q 378 306 330 319 q 474 304 426 292 q 492 310 483 306 q 500 323 500 313 q 482 496 491 410 q 473 515 484 509 q 433 521 453 520 l 425 521 m 432 322 l 432 322 q 336 359 376 320 q 318 396 323 376 q 322 437 313 417 q 333 444 326 442 q 418 454 374 463 l 432 322 z "},"h":{"ha":747,"x_min":-33,"x_max":751,"o":"m 283 869 l 283 869 l 279 869 l 16 821 q 7 807 5 817 q 10 789 9 798 l -24 783 q -30 779 -27 781 q -33 773 -31 776 l -33 768 q -32 767 -32 768 q -30 755 -31 761 q 106 -42 37 356 q 115 -49 109 -47 l 118 -49 l 327 -33 q 336 -24 334 -31 q 335 3 336 -10 l 366 6 q 376 22 377 9 q 373 50 374 35 q 350 333 361 191 q 357 371 349 353 q 429 355 399 389 q 457 275 452 323 q 464 187 463 227 q 459 -16 467 85 q 458 -41 456 -30 q 468 -49 461 -47 l 471 -49 l 682 -35 q 690 -30 687 -35 q 694 0 693 -16 q 695 2 694 1 l 720 3 q 730 13 728 5 q 733 34 732 23 q 749 280 748 157 q 750 282 749 281 l 750 317 q 749 319 749 317 q 733 474 751 398 q 653 605 713 545 q 520 677 594 664 q 419 661 468 683 q 332 604 370 640 q 325 597 329 600 l 293 859 q 283 869 292 867 m 270 843 l 270 843 l 304 569 q 325 562 310 553 q 345 583 334 572 q 424 637 379 616 q 517 652 469 658 q 637 586 583 641 q 710 467 692 530 q 724 349 724 409 q 715 100 728 224 q 707 27 712 64 l 522 16 l 525 54 q 526 253 530 154 q 518 333 525 291 q 490 406 511 374 q 421 441 460 444 q 353 409 382 439 q 325 336 324 380 l 350 29 l 166 16 l 33 800 l 270 843 z "},"i":{"ha":336,"x_min":-14,"x_max":352,"o":"m 78 -43 l 78 -43 q 81 -43 80 -43 q 245 14 163 -16 q 281 28 263 20 q 288 40 288 33 q 288 55 288 47 q 313 65 300 60 q 328 82 328 68 q 326 130 326 106 q 312 575 319 353 q 311 608 313 592 q 296 620 309 620 q 224 620 260 622 q 78 617 151 617 q 56 618 67 618 q 45 608 47 616 q 48 578 46 593 l 17 578 q 7 568 8 577 q 68 -35 37 267 q 78 -43 71 -41 m 287 595 l 287 595 l 302 87 l 302 87 q 130 25 216 54 l 71 593 l 133 593 q 136 593 134 593 q 273 596 204 596 q 287 595 280 596 m 196 991 l 196 991 l 181 991 l 180 990 q 64 932 110 985 q 55 921 60 926 q 41 910 48 916 q -14 795 -9 863 q -14 781 -14 788 q -14 773 -13 777 q 45 662 -5 702 q 157 624 94 623 q 271 677 220 626 q 283 693 277 686 q 299 706 291 699 q 351 805 342 746 l 352 821 l 352 833 l 351 849 q 304 943 342 905 q 210 989 265 981 l 196 991 m 180 966 l 180 966 q 275 936 237 968 q 325 855 314 904 q 309 756 336 806 q 234 695 280 710 q 142 696 188 680 q 68 758 96 711 q 66 893 32 829 q 180 966 101 958 z "},"j":{"ha":377,"x_min":-45,"x_max":383,"o":"m 210 1060 l 210 1060 l 196 1060 l 195 1059 q 80 1004 126 1055 q 69 991 75 997 q 56 980 63 985 q 7 810 -18 909 q 96 709 30 740 q 94 707 96 707 q 78 705 86 707 q 69 693 71 703 l 73 671 l 43 667 q 31 654 32 665 q 73 313 62 485 q 72 163 79 238 q 58 98 69 130 q 9 92 34 97 q -5 81 -1 92 l -5 57 q -20 55 -13 56 q -41 48 -32 54 q -45 42 -43 45 l -45 -204 q -43 -210 -43 -207 q -34 -215 -39 -214 l -31 -215 l -3 -212 q 119 -178 60 -203 q 223 -108 178 -153 q 239 -90 231 -99 q 259 -72 249 -81 q 330 36 307 -24 q 363 161 353 95 q 382 397 382 278 q 383 400 382 399 l 383 472 q 382 474 382 473 q 372 692 381 583 q 368 729 370 711 q 355 741 367 741 l 267 730 q 283 746 275 737 q 298 763 291 755 q 307 770 302 766 q 366 882 361 819 q 333 996 370 945 q 224 1059 295 1046 l 210 1060 m 194 1035 l 194 1035 q 286 1008 248 1037 q 337 932 324 979 q 329 837 351 886 q 258 768 304 787 q 163 763 212 749 q 85 823 115 777 q 65 916 58 868 q 107 997 73 964 q 194 1035 141 1031 m 19 69 l 19 69 q 57 74 38 73 q 92 87 77 75 q 129 157 119 111 q 138 238 138 203 q 134 398 141 319 q 96 684 121 542 l 345 715 q 350 662 348 688 q 356 330 363 496 q 344 193 353 262 q 313 61 335 124 q 216 -77 282 -26 q 61 -144 151 -127 q 19 -150 40 -148 l 19 69 z "},"k":{"ha":779,"x_min":-37,"x_max":825,"o":"m 727 881 l 727 881 l 723 881 l 479 838 q 468 831 472 837 l 455 806 q 441 804 449 804 q 429 798 433 803 q 340 616 385 707 q 338 613 339 615 q 338 613 338 612 q 337 614 338 613 q 310 861 323 738 q 294 871 307 873 l 10 804 q 2 793 2 800 q 5 778 3 785 q 3 778 3 778 q -28 770 -14 774 q -37 761 -35 767 l -37 757 q -35 753 -35 755 q 115 -47 40 353 q 129 -58 117 -59 l 353 -39 q 361 -25 362 -34 q 360 -7 361 -16 q 364 -7 362 -7 q 389 -5 376 -7 q 400 5 398 -3 l 387 171 l 518 -3 q 532 -6 524 -9 q 781 85 657 39 q 782 105 791 95 l 819 119 q 825 127 823 121 l 825 132 l 823 136 l 524 486 l 736 863 q 727 881 740 877 m 701 852 l 701 852 l 499 493 q 499 477 494 485 l 791 135 l 570 54 l 372 316 q 358 318 365 322 q 351 304 351 314 l 375 18 l 176 1 l 29 783 l 287 844 l 322 533 q 332 523 324 524 q 345 528 340 521 l 486 814 l 701 852 z "},"l":{"ha":316,"x_min":-7,"x_max":315,"o":"m 261 842 l 261 842 l 223 842 l 221 841 q 42 838 132 838 q 33 822 31 834 l 35 799 q 20 799 27 799 q 6 800 13 800 q -5 793 -1 800 q -7 789 -5 791 l -7 785 q -5 776 -5 781 l 55 -26 q 69 -36 58 -37 q 231 20 151 -9 q 266 34 249 26 q 275 45 275 39 q 275 61 275 52 l 308 75 q 314 82 312 77 q 313 111 315 96 q 299 818 307 464 q 298 831 298 825 q 290 840 297 837 q 264 841 277 842 q 261 842 262 841 m 274 817 l 274 817 l 290 94 q 288 92 289 93 q 274 87 281 90 q 117 31 196 58 l 58 814 q 64 814 61 814 q 172 816 118 812 q 274 817 223 818 z "},"m":{"ha":1101,"x_min":-18,"x_max":1109,"o":"m 485 700 l 485 700 l 467 700 l 465 699 q 432 694 448 699 q 304 620 359 673 q 303 623 302 620 q 296 673 300 648 q 284 682 293 681 l 31 626 q 23 612 21 621 q 25 594 24 602 l -9 587 q -18 577 -15 583 l -18 572 q -16 567 -15 570 q 34 277 12 422 q 83 -12 57 132 q 94 -27 83 -23 l 96 -27 q 105 -25 100 -26 q 305 -11 205 -18 q 315 4 317 -7 q 313 26 314 16 q 347 28 327 26 q 354 37 353 31 q 328 368 340 203 q 336 393 330 382 q 348 397 341 396 q 410 374 390 404 q 435 301 429 344 q 441 229 441 259 q 439 26 446 127 q 435 -14 437 5 q 446 -27 437 -24 l 449 -27 q 459 -25 454 -26 q 677 -13 568 -20 q 687 3 686 -9 q 688 24 688 16 l 702 24 q 705 26 703 24 q 714 26 710 26 q 721 28 718 26 q 725 37 724 31 q 729 85 729 60 q 727 370 733 228 q 729 398 726 386 q 775 389 758 402 q 802 352 793 376 q 815 302 811 328 q 821 255 819 276 q 816 -16 827 119 q 827 -27 818 -24 l 829 -27 q 838 -25 833 -26 q 1041 -13 940 -20 q 1051 3 1050 -9 q 1054 24 1051 16 q 1079 26 1065 25 q 1090 43 1090 30 q 1107 311 1107 176 q 1109 315 1107 313 l 1109 328 q 1107 332 1107 330 q 1105 417 1107 375 q 1090 500 1102 460 q 1017 622 1071 566 q 896 695 962 677 l 865 700 l 847 700 q 830 698 838 699 q 704 637 760 684 q 659 595 681 617 q 589 661 629 633 q 502 698 549 690 q 485 700 493 699 m 881 38 l 881 38 q 883 75 882 56 q 884 284 889 180 q 877 353 883 315 q 853 421 871 391 q 800 460 836 452 q 729 443 756 469 q 703 374 703 418 q 706 189 705 282 q 702 50 707 119 l 500 38 l 504 93 q 505 133 505 113 q 505 257 507 195 q 499 343 505 298 q 471 423 493 388 q 407 463 445 461 q 339 438 369 464 q 304 370 309 412 q 316 215 308 292 q 328 60 323 138 q 328 51 328 56 l 145 38 l 50 605 l 275 654 l 282 590 q 302 583 288 576 q 320 602 311 591 q 405 660 356 637 q 505 673 454 682 q 571 645 540 665 q 625 598 602 624 q 650 568 637 581 q 671 572 662 560 q 704 603 688 587 q 739 633 719 619 q 980 623 865 722 q 1061 508 1041 569 q 1083 367 1082 446 q 1066 52 1086 209 l 1065 50 l 881 38 z "},"n":{"ha":730,"x_min":-15,"x_max":731,"o":"m 485 747 l 485 747 l 471 747 l 469 746 q 431 740 450 745 q 306 666 359 719 l 305 669 l 299 720 q 285 728 295 729 l 33 672 q 24 659 23 668 q 28 641 26 649 l -7 633 q -14 627 -12 631 q -15 623 -14 625 l -15 620 l -14 618 l 86 28 q 101 20 91 18 q 133 22 117 21 q 300 35 216 28 q 317 47 315 33 l 315 72 q 317 72 317 72 q 346 74 332 73 q 357 90 358 77 q 353 127 355 109 q 332 395 342 261 q 330 401 331 398 q 338 439 329 421 q 406 428 376 456 q 438 347 431 397 q 444 257 444 297 q 439 37 448 147 q 439 28 437 33 q 449 20 442 20 q 463 21 456 20 q 633 31 548 26 q 659 33 646 32 q 672 44 671 33 q 675 71 674 58 q 705 73 690 71 q 711 83 711 77 q 715 109 713 96 q 730 343 729 226 q 731 346 730 345 l 731 389 q 730 391 730 390 q 723 497 730 444 q 692 597 716 551 q 612 693 663 650 q 499 745 561 736 l 485 747 m 503 84 l 503 84 l 506 129 q 507 140 506 134 q 507 301 510 220 q 502 387 507 342 q 475 468 496 433 q 408 509 447 509 q 338 482 368 510 q 306 409 308 454 q 331 102 318 256 l 331 98 l 146 84 l 51 651 l 277 701 l 285 635 q 302 627 290 624 q 317 643 310 633 q 401 703 353 680 q 502 720 450 727 q 620 653 567 707 q 691 535 673 598 q 706 390 707 464 q 688 97 707 243 l 688 96 l 503 84 z "},"o":{"ha":640,"x_min":-15,"x_max":668,"o":"m 360 696 l 360 696 l 340 696 q 126 596 214 688 q 96 566 111 581 q -15 322 -7 466 q -15 300 -15 311 q -14 283 -14 292 q 47 121 -5 191 q 184 14 99 50 q 302 -12 241 -10 q 304 -13 303 -12 l 326 -13 l 345 -12 q 536 80 457 0 q 550 96 543 88 q 564 109 557 102 q 640 220 613 155 q 667 353 667 285 q 668 355 667 354 l 668 373 q 667 376 667 374 q 639 507 666 444 q 534 635 604 585 q 378 694 464 686 l 360 696 m 338 671 l 338 671 q 514 620 435 673 q 625 475 592 566 q 640 315 652 397 q 582 165 629 233 q 447 65 526 91 q 287 58 368 40 q 143 133 205 77 q 58 277 81 189 q 98 521 29 408 q 200 626 138 585 q 338 671 261 667 m 340 509 l 340 509 q 261 469 293 505 q 225 386 229 433 q 270 282 224 317 q 371 255 315 248 q 458 321 427 262 q 469 411 479 366 q 426 483 459 455 q 340 509 392 511 m 305 446 l 305 446 q 402 382 374 446 q 395 288 418 333 q 322 282 359 271 q 264 325 286 292 q 256 416 239 368 q 265 434 260 426 q 274 438 269 436 q 305 446 289 445 z "},"p":{"ha":721,"x_min":-8,"x_max":768,"o":"m 476 685 l 476 685 l 457 685 l 456 684 q 404 678 430 684 q 267 612 328 661 q 267 612 267 612 q 267 613 267 612 q 256 667 262 640 q 242 674 252 676 q 66 604 154 641 q 37 591 52 598 q 32 580 31 587 q 32 567 32 574 l -2 551 q -8 543 -6 549 l -8 538 q -7 536 -7 538 q -5 514 -6 526 q 66 -189 31 163 q 79 -206 66 -204 q 305 -189 191 -186 q 326 -189 315 -189 q 336 -174 336 -188 q 332 -149 334 -161 q 360 -150 346 -150 q 362 -150 361 -150 q 374 -134 376 -148 l 346 60 q 515 63 431 40 q 638 143 587 87 q 648 155 643 149 q 660 165 654 159 q 723 247 698 201 q 750 435 768 338 q 665 601 732 531 q 494 684 597 671 l 476 685 m 348 -125 l 348 -125 l 292 -125 q 289 -125 290 -125 q 187 -132 238 -126 q 129 -141 158 -136 l 56 572 l 57 573 q 235 646 145 612 q 236 645 237 646 q 248 584 241 614 q 264 578 255 572 q 280 591 273 584 q 399 652 334 635 q 533 652 465 669 q 692 524 639 619 q 724 321 746 429 q 653 193 707 248 q 526 120 600 138 q 430 116 483 111 q 338 142 378 121 q 324 151 332 148 q 310 136 309 151 l 348 -125 m 345 503 l 345 503 q 281 491 312 502 q 264 474 266 489 q 297 271 281 373 q 301 256 298 260 q 315 250 304 252 q 469 298 405 233 q 494 405 512 350 q 418 488 475 460 q 345 503 382 503 m 295 439 l 295 439 q 384 418 342 443 q 428 369 413 400 q 430 304 442 338 q 424 292 428 298 q 416 287 420 289 q 321 274 371 264 l 295 439 z "},"q":{"ha":713,"x_min":-39,"x_max":714,"o":"m 298 727 l 298 727 l 279 727 q 86 641 165 722 q 72 625 79 632 q 58 612 65 618 q -39 393 -33 522 q -39 374 -39 384 q -39 368 -39 371 q 14 217 -33 283 q 136 116 60 151 q 255 93 191 92 q 374 117 319 94 q 391 125 383 121 l 368 -189 q 380 -205 366 -203 q 429 -205 404 -207 q 617 -206 523 -206 q 620 -207 618 -206 l 648 -207 q 658 -198 655 -205 q 659 -174 659 -186 q 659 -168 659 -171 l 687 -168 q 697 -158 693 -168 q 698 -113 698 -136 q 714 648 707 267 q 707 656 713 654 l 499 727 l 495 727 q 485 718 488 726 l 480 682 q 456 688 468 686 q 448 683 451 687 q 316 726 387 719 l 298 727 m 673 -143 l 673 -143 l 432 -142 l 456 182 q 451 198 458 192 q 440 199 445 202 q 429 193 435 196 q 335 160 389 168 q 235 161 281 153 q 107 231 161 178 q 33 355 52 283 q 41 519 13 438 q 136 652 69 600 q 300 703 212 707 q 463 644 388 698 q 480 630 471 637 q 499 639 494 625 q 507 698 503 668 q 507 699 507 699 l 690 636 l 673 -143 m 406 549 l 406 549 q 337 528 369 547 q 290 475 305 509 q 289 403 274 436 q 337 349 303 370 q 453 330 391 317 q 471 344 468 330 q 489 519 480 431 q 487 534 491 527 q 474 541 481 538 q 406 549 441 551 m 425 479 l 425 479 l 412 351 q 391 353 401 351 q 325 391 352 362 q 311 463 298 420 q 315 470 313 467 q 322 474 318 472 q 425 479 372 495 z "},"r":{"ha":694,"x_min":-16,"x_max":729,"o":"m 728 384 l 728 384 q 728 370 729 376 q 719 360 727 363 q 695 355 707 357 q 696 332 696 343 q 693 319 697 325 q 661 309 680 311 q 467 271 564 290 q 452 267 460 269 q 441 273 445 266 q 438 286 437 279 q 422 366 435 315 q 396 400 412 387 q 353 408 379 412 q 336 403 343 406 q 332 389 333 397 q 330 350 328 371 q 334 310 332 329 q 353 78 344 194 q 355 48 355 63 q 347 39 354 41 q 315 36 331 37 q 315 27 315 31 q 316 10 317 18 q 306 -1 316 2 q 298 -2 302 -1 q 126 -14 212 -9 q 98 -16 112 -16 q 85 -9 90 -16 l -15 581 l -16 583 l -16 587 q -13 593 -14 589 q -8 597 -11 595 l 26 604 q 24 622 25 612 q 31 635 22 631 l 283 691 q 298 684 294 692 q 303 638 300 661 q 305 630 304 633 q 380 684 338 662 q 469 710 422 706 l 469 710 l 485 710 l 502 708 q 608 658 559 699 q 686 568 657 618 q 724 444 719 510 q 728 384 728 416 m 503 342 l 503 342 l 703 382 q 701 439 702 410 q 679 530 696 486 q 605 630 654 584 q 496 685 555 675 q 399 666 446 689 q 319 610 353 644 q 308 598 314 605 q 297 590 302 591 q 286 595 290 590 q 281 621 281 607 q 276 665 279 642 l 50 615 l 146 48 l 330 62 l 330 66 l 315 247 q 305 370 310 308 q 333 441 304 412 q 399 473 361 470 q 467 441 437 476 q 498 360 492 408 q 503 342 503 346 z "},"s":{"ha":528,"x_min":-15,"x_max":578,"o":"m 288 700 l 288 700 l 269 700 l 267 700 q 95 623 166 695 q 83 608 89 614 q 67 595 75 601 q 11 495 24 554 q 19 381 -3 437 q 75 317 38 342 q 152 277 112 293 q 195 261 173 269 q 237 239 218 252 q 255 216 250 231 q 155 237 202 212 q 87 278 119 254 q 64 294 76 288 q 51 283 54 294 l 46 241 q 28 254 37 248 q 12 245 16 258 q -14 4 -1 124 q -15 -3 -14 1 l -15 -7 q -7 -16 -13 -13 q 26 -27 9 -22 q 182 -54 102 -50 q 191 -54 186 -54 l 208 -54 q 210 -54 209 -54 q 358 -24 288 -53 q 483 61 429 4 q 490 70 486 65 q 507 85 498 77 q 561 161 543 119 q 571 253 578 203 q 498 363 556 322 q 378 427 441 405 l 378 429 l 535 585 q 536 599 539 591 q 515 615 527 608 q 408 673 469 648 q 290 700 348 698 q 288 700 289 699 m 73 258 l 73 258 l 99 241 q 184 199 136 216 q 276 196 231 183 q 313 227 301 205 q 313 273 326 248 q 254 318 294 302 q 182 347 214 334 q 108 392 138 365 q 71 468 78 419 q 97 584 63 534 q 191 659 131 634 q 356 665 273 689 q 507 591 439 641 l 410 494 q 332 547 380 536 q 279 544 309 550 q 239 515 250 537 q 247 477 232 495 q 277 449 261 460 q 327 421 301 431 q 379 401 352 412 q 466 357 424 383 q 531 293 507 331 q 547 199 555 254 q 500 113 536 150 q 421 53 464 76 q 238 9 335 8 q 50 42 140 11 l 73 258 m 353 437 l 353 437 q 329 447 341 441 q 296 466 311 454 q 273 484 283 474 q 353 437 326 481 z "},"t":{"ha":467,"x_min":-40,"x_max":509,"o":"m 159 989 l 159 989 l 154 989 q 138 966 140 982 q 134 949 136 957 l 119 950 q 104 940 109 950 q 97 922 99 930 q 90 867 92 895 q 83 767 85 817 l 83 767 q 64 768 73 768 q 15 770 39 769 q 5 768 9 771 q 0 749 -3 760 q 1 730 0 740 q -23 730 -11 730 q -35 729 -29 732 q -40 721 -39 726 l -40 715 q -39 711 -39 713 q -31 550 -35 631 q -29 538 -31 543 q -20 531 -28 532 l 79 532 q 78 495 79 513 q 80 340 77 420 q 102 187 83 260 q 222 14 134 72 q 427 -52 311 -44 q 450 -52 439 -53 q 458 -39 458 -47 q 456 -19 457 -28 q 456 -12 456 -15 l 479 -13 q 497 -1 494 -15 q 485 214 491 106 q 484 251 485 233 q 475 262 482 259 q 461 267 468 264 q 431 281 448 272 q 406 302 415 290 q 387 362 391 330 q 382 475 380 418 q 382 486 382 480 l 385 536 q 429 537 407 537 q 432 537 430 537 q 446 538 439 537 q 456 547 453 538 l 459 576 l 486 576 q 495 585 493 578 l 509 732 l 509 739 q 503 747 507 744 q 483 749 493 749 q 444 751 463 749 l 395 753 q 418 853 404 804 q 444 954 433 903 q 429 969 444 968 l 159 989 m 416 945 l 416 945 q 381 807 400 876 q 372 760 376 783 q 369 741 369 751 q 380 729 368 731 q 416 728 397 728 q 477 724 446 726 q 484 724 480 724 l 473 601 l 375 600 q 365 591 366 597 q 363 578 363 585 q 358 473 360 525 q 361 368 355 420 q 372 318 364 345 q 397 275 380 292 q 459 241 425 253 l 472 12 q 329 44 397 16 q 214 131 261 72 q 168 218 182 172 q 149 315 155 264 q 142 545 138 430 q 142 581 142 563 q 133 595 141 594 q 114 595 125 596 q 35 595 75 595 q 33 595 33 593 l 24 745 l 136 741 q 146 750 144 742 q 146 783 147 766 q 153 911 147 847 q 163 964 156 938 l 416 945 z "},"u":{"ha":726,"x_min":4,"x_max":742,"o":"m 298 708 l 298 708 l 290 708 q 289 707 290 708 q 94 703 191 706 q 75 694 81 705 l 70 664 l 45 663 q 35 653 37 662 q 4 342 9 498 q 4 306 4 324 l 5 298 q 11 221 5 260 q 32 147 16 182 q 114 39 60 87 q 235 -18 168 -9 l 247 -19 l 254 -19 l 271 -18 q 420 56 356 -3 q 420 47 420 52 q 424 4 422 26 q 437 -7 426 -7 l 693 40 q 701 50 700 43 l 699 73 q 730 78 714 75 q 739 95 742 82 l 661 686 q 647 696 657 696 q 632 695 640 695 q 457 688 545 692 q 435 686 446 689 q 428 675 429 683 l 429 650 q 420 650 425 650 q 399 648 410 650 q 389 639 391 647 q 391 617 389 628 q 403 340 397 479 q 401 296 406 318 q 397 286 399 290 q 391 283 394 284 q 328 298 354 271 q 300 362 306 323 q 294 433 294 400 q 309 696 292 565 q 298 708 308 705 m 282 683 l 282 683 q 278 641 280 662 q 271 427 268 534 q 274 376 271 404 q 286 322 277 348 q 312 277 295 296 q 357 256 329 259 q 437 283 406 252 q 468 362 468 315 q 460 512 465 437 l 454 652 q 453 664 454 658 l 638 671 l 714 100 l 487 59 q 486 61 486 60 q 481 124 484 93 q 460 130 474 139 q 441 111 450 121 q 358 59 405 79 q 262 47 311 39 q 158 106 205 60 q 90 204 112 152 q 73 271 77 236 q 68 340 68 307 q 79 541 67 441 q 96 678 86 610 l 282 683 z "},"v":{"ha":550,"x_min":-46,"x_max":587,"o":"m 227 673 l 227 673 l 223 673 l 1 596 q -6 582 -8 592 q -2 571 -4 576 q -2 570 -1 570 l -39 557 q -46 548 -44 553 l -46 544 l 186 -14 q 195 -21 189 -19 l 199 -21 l 440 13 q 449 23 448 16 q 454 49 452 36 l 479 52 q 488 65 488 56 q 503 136 496 100 q 576 500 544 317 q 586 637 587 568 q 587 640 586 639 l 587 646 q 570 657 583 659 q 487 652 528 655 q 365 647 426 650 q 351 637 354 647 l 349 608 l 320 607 q 312 598 313 604 q 311 586 311 593 q 304 452 308 519 l 304 446 l 237 665 q 227 673 234 672 m 218 646 l 218 646 l 321 305 q 344 307 334 291 q 351 344 348 325 q 360 386 356 365 q 366 465 365 425 q 374 610 371 538 q 374 623 374 616 l 562 632 q 562 627 562 629 q 555 523 562 574 q 534 408 546 465 q 466 76 501 241 l 465 75 l 244 44 l 243 44 l 22 578 l 218 646 z "},"w":{"ha":896,"x_min":-38,"x_max":940,"o":"m 247 705 l 247 705 l 243 705 l 9 658 q 2 644 0 653 q 6 626 4 635 l -31 618 q -38 610 -36 616 l -38 606 q -34 593 -35 600 l 118 20 q 127 14 121 16 l 376 14 q 385 22 382 16 l 397 54 q 412 54 404 54 q 424 60 420 54 l 435 89 l 452 22 q 463 14 456 16 l 711 14 q 720 21 717 16 l 732 54 q 746 53 739 54 q 758 58 753 53 q 851 314 806 186 q 922 530 890 421 l 940 627 l 940 629 q 939 633 940 631 q 929 640 936 640 l 717 659 q 703 650 706 660 l 696 618 q 673 619 685 619 q 664 612 667 618 l 642 497 l 632 448 l 604 619 q 602 633 604 627 q 592 694 597 663 q 582 705 590 702 l 576 705 l 479 701 q 421 698 450 699 q 392 697 406 698 q 380 688 383 696 l 374 659 q 370 659 372 659 q 352 658 361 658 q 342 651 345 657 q 332 595 336 623 q 299 435 317 515 l 257 694 q 247 705 255 702 m 570 680 l 570 680 q 578 626 574 652 q 627 326 602 476 q 638 318 630 318 q 650 325 646 317 q 668 378 659 351 q 677 400 673 389 q 695 482 688 441 q 724 633 710 557 l 914 617 l 899 536 q 863 423 883 479 q 740 78 804 250 l 512 78 l 477 212 q 454 214 467 229 l 405 78 l 177 78 l 28 637 l 235 677 l 292 327 q 302 318 294 319 q 315 325 310 317 l 332 380 q 345 401 342 387 q 363 471 355 435 q 402 673 385 572 l 570 680 z "},"x":{"ha":509,"x_min":-15,"x_max":549,"o":"m 420 685 l 420 685 l 353 685 l 351 685 q 335 685 343 685 q 322 677 326 685 l 315 646 q 313 646 314 646 q 296 646 305 646 q 282 637 286 646 l 273 594 q 273 596 273 595 q 257 676 265 636 q 248 682 254 682 q 223 682 236 682 q 34 670 129 677 q 25 654 22 665 q 31 633 28 643 l -1 631 q -14 625 -9 631 q -15 621 -14 623 l -15 616 l -14 615 l 66 338 q -14 40 26 189 q -15 38 -14 39 l -15 35 q -13 29 -14 32 q -3 24 -9 24 q 201 11 99 15 q 218 19 213 8 l 224 51 l 248 50 q 258 60 256 52 q 264 96 262 77 q 266 100 264 98 l 282 18 q 294 8 285 9 q 319 8 306 7 q 321 7 320 8 l 374 7 q 376 8 375 8 q 492 12 434 8 q 508 20 503 10 q 507 39 510 29 q 504 50 505 44 l 539 52 q 548 66 549 56 q 528 138 541 102 q 443 376 487 258 q 528 602 488 488 q 544 650 537 625 q 548 669 547 659 q 535 682 548 680 q 422 685 479 685 q 420 685 421 684 m 521 658 l 521 658 q 490 569 507 612 q 418 381 456 475 q 420 369 416 375 q 460 258 439 313 q 498 149 479 203 q 521 75 511 113 q 494 73 508 74 q 452 72 473 73 l 344 72 l 298 291 q 286 301 295 301 q 274 291 277 300 l 236 75 q 224 75 231 75 q 101 82 163 78 q 52 86 77 84 l 130 376 q 53 645 92 511 l 53 646 q 64 648 58 648 q 237 658 150 654 l 274 456 q 286 447 277 447 q 298 456 294 446 l 343 661 q 428 661 385 661 q 507 658 467 660 q 521 658 514 658 z "},"y":{"ha":618,"x_min":-44,"x_max":662,"o":"m 389 676 l 389 676 l 384 676 q 374 668 377 675 l 367 631 q 364 631 366 630 q 351 631 357 631 q 341 624 345 631 l 319 508 l 318 512 l 301 655 q 289 665 298 665 q 273 663 281 665 q 24 652 148 659 q 0 652 12 652 q -9 634 -14 648 l 4 609 q -5 608 1 608 q -33 607 -20 608 q -44 597 -41 605 l -44 593 q -16 539 -31 566 q 71 353 31 448 q 113 227 97 292 q 117 181 119 203 q 117 179 118 180 q 8 98 65 136 q 4 87 3 94 q 6 75 5 81 l -24 54 q -28 43 -29 50 l 10 -205 q 20 -215 12 -213 l 24 -215 q 281 -80 163 -168 q 424 60 363 -20 q 483 142 455 100 q 580 352 543 241 q 646 576 618 464 l 662 649 l 662 651 q 661 654 661 653 q 649 663 658 662 q 626 663 637 663 q 414 675 520 669 l 389 676 m 635 639 l 635 639 q 629 610 632 625 q 573 408 606 510 q 494 214 541 305 q 329 7 435 92 q 65 -142 210 -89 l 30 84 q 134 161 84 119 q 159 186 146 172 q 174 216 171 199 q 169 282 178 245 q 149 347 159 319 q 22 627 96 492 l 22 629 l 278 640 l 323 355 q 336 346 328 346 q 347 356 345 347 l 396 651 l 635 639 z "},"z":{"ha":625,"x_min":-31,"x_max":662,"o":"m 515 646 l 515 646 l 464 646 l 463 646 q 41 589 248 643 q 19 583 30 587 q 9 571 7 579 q 14 553 10 562 l -23 543 q -31 534 -28 540 l -31 530 q -28 524 -29 528 q 12 372 -8 448 q 26 364 16 363 l 169 394 l 68 317 q 64 304 62 312 l 64 304 q 27 275 45 290 q 25 264 24 270 l 50 39 q 62 27 52 29 l 64 27 q 68 28 66 28 q 307 44 187 40 q 595 41 450 47 q 614 41 605 39 q 623 52 623 44 q 623 55 623 54 q 622 80 623 67 q 633 79 627 79 q 650 79 642 79 q 661 90 661 81 q 661 106 662 98 q 656 260 659 183 q 655 296 656 278 q 646 306 654 305 q 631 307 639 307 q 437 302 534 309 q 383 299 410 300 l 564 431 q 568 444 569 436 l 603 469 q 607 479 607 473 l 594 631 q 581 644 593 642 q 517 646 549 646 q 515 646 515 645 m 570 619 l 570 619 l 582 484 l 315 292 q 324 271 306 275 q 327 271 326 271 q 541 283 433 278 l 631 283 l 637 104 l 581 106 q 283 106 433 111 l 113 92 q 111 104 112 97 q 90 287 100 195 q 90 302 89 295 l 283 450 q 277 472 295 465 q 78 431 178 452 q 71 430 75 430 l 37 563 q 132 585 83 575 q 570 619 349 629 z "},"{":{"ha":688,"x_min":39,"x_max":635,"o":"m 566 1109 l 566 1109 l 541 1109 l 535 1107 q 406 1090 470 1103 q 296 1062 354 1082 q 201 1004 238 1042 q 197 998 199 1000 q 182 986 190 991 q 152 932 158 962 q 144 869 145 903 q 144 725 142 797 q 144 581 146 653 q 142 556 144 568 l 141 555 q 124 555 134 555 q 99 559 111 556 q 84 564 92 562 q 71 561 77 566 q 66 554 66 556 l 66 535 q 47 537 57 540 q 39 528 41 533 l 39 316 q 41 311 41 314 q 56 305 47 303 q 72 310 64 307 q 132 310 102 319 q 139 302 138 309 q 145 264 144 284 q 147 142 148 203 q 147 18 146 80 q 151 -53 147 -13 q 169 -119 154 -92 q 258 -186 199 -162 q 368 -219 318 -210 q 512 -239 439 -233 q 518 -239 515 -239 l 532 -239 q 534 -239 532 -238 q 570 -237 552 -238 q 601 -231 587 -235 q 608 -221 608 -227 q 609 -208 608 -215 q 625 -205 617 -207 q 635 -194 633 -203 l 635 26 q 635 30 635 28 q 622 39 631 38 q 595 29 609 35 q 528 20 566 20 q 472 48 490 20 q 456 119 456 82 q 461 220 456 167 q 460 324 466 273 q 422 414 455 374 q 386 445 406 432 l 402 463 q 458 556 448 502 q 461 669 467 610 q 456 781 456 728 q 465 832 458 807 q 469 844 467 839 q 478 847 473 846 q 530 849 503 853 q 581 836 557 844 q 602 833 591 829 q 606 837 604 834 q 608 841 608 840 l 608 862 q 625 859 616 858 q 635 866 632 860 q 635 870 635 869 l 635 1089 q 635 1093 635 1091 q 622 1103 632 1101 q 604 1105 612 1105 l 566 1109 m 609 891 l 609 891 q 589 897 600 893 q 527 904 559 905 q 468 884 494 903 q 433 812 438 859 q 430 728 427 766 q 436 636 433 685 q 427 545 439 588 q 372 475 414 502 q 342 461 357 467 q 334 454 336 459 q 339 437 329 441 q 357 429 349 432 q 424 358 409 404 q 436 258 439 311 q 429 151 433 208 q 442 47 425 94 q 514 -6 465 -1 q 608 5 563 -11 q 609 5 609 5 l 609 -179 q 608 -180 609 -180 l 607 -181 q 513 -183 560 -187 q 420 -170 466 -178 q 318 -143 373 -161 q 230 -92 264 -125 q 208 -46 212 -73 q 203 7 203 -19 q 201 142 200 75 q 200 278 202 210 q 196 318 199 294 q 184 353 193 342 q 167 362 176 359 q 94 363 130 374 l 94 533 q 112 529 102 530 q 148 529 127 527 q 182 542 169 532 q 195 573 193 553 q 198 608 198 593 q 198 751 200 680 q 198 893 196 822 q 204 948 199 922 q 231 994 209 974 q 334 1046 271 1028 q 448 1071 396 1063 q 527 1081 486 1078 q 606 1078 568 1084 q 609 1076 608 1078 l 609 891 z "},"|":{"ha":617,"x_min":158,"x_max":444,"o":"m 433 1079 l 433 1079 l 231 1079 q 220 1069 222 1077 l 220 1043 l 185 1043 q 180 1042 184 1043 q 173 1029 174 1038 q 172 966 172 998 q 159 -175 165 411 q 158 -222 159 -199 q 158 -239 158 -231 q 163 -248 159 -243 q 172 -251 167 -250 l 385 -251 q 393 -248 389 -250 q 397 -240 397 -243 l 397 -215 l 398 -214 l 434 -214 q 437 -213 434 -214 q 444 -202 444 -210 l 444 1067 q 444 1070 444 1068 q 433 1079 441 1077 m 418 1052 l 418 1052 l 418 -186 l 417 -187 l 232 -187 l 247 1052 l 418 1052 z "},"}":{"ha":688,"x_min":34,"x_max":626,"o":"m 151 1109 l 151 1109 l 127 1109 l 125 1108 q 68 1102 97 1107 q 59 1097 62 1101 q 56 1088 56 1093 q 56 1077 56 1083 q 38 1071 45 1077 q 34 1064 36 1067 l 34 843 q 40 834 36 838 q 52 832 46 830 q 64 837 58 834 q 142 850 99 850 q 203 812 184 850 q 214 716 218 766 q 208 616 211 669 q 216 516 204 564 q 269 435 228 469 q 281 427 275 431 l 269 413 q 233 367 250 391 q 209 285 212 329 q 209 198 205 241 q 214 113 213 156 q 203 30 216 71 q 143 20 175 16 q 84 33 112 23 q 72 38 78 36 q 60 35 66 39 q 56 26 56 29 l 56 9 q 43 11 50 13 q 34 0 37 7 l 34 -221 q 37 -227 35 -224 q 46 -233 40 -231 q 109 -239 77 -239 q 112 -239 111 -239 l 123 -239 l 158 -237 q 338 -203 250 -228 q 410 -174 374 -193 q 469 -127 446 -156 q 476 -117 473 -122 q 495 -94 486 -106 q 512 -41 509 -72 q 517 17 516 -9 q 519 254 519 135 q 520 287 519 270 q 522 313 521 300 q 533 315 527 315 q 568 311 551 315 q 586 305 577 308 q 602 311 595 302 q 604 315 604 315 l 604 333 q 614 331 609 332 q 625 340 623 333 q 626 345 625 342 l 626 551 q 625 557 625 554 q 610 564 620 566 q 593 559 601 562 q 539 557 566 551 q 528 562 533 559 q 524 579 525 570 q 520 625 520 602 q 522 759 519 692 q 521 892 524 825 q 511 968 521 930 q 447 1038 495 1013 q 354 1075 398 1064 q 183 1106 270 1097 l 151 1109 m 599 533 l 599 533 l 599 363 q 578 368 589 366 q 539 366 562 370 q 506 350 517 363 q 494 308 496 335 q 492 262 492 281 q 492 124 491 194 q 488 -14 494 55 q 482 -57 487 -37 q 461 -94 477 -77 q 359 -149 423 -130 q 243 -174 296 -168 q 99 -183 172 -189 q 84 -181 92 -182 l 83 -180 l 83 5 q 109 -2 96 1 q 193 -4 152 -13 q 252 51 233 5 q 263 117 262 82 q 261 184 264 151 q 256 277 257 229 q 270 365 254 324 q 334 429 286 405 q 348 434 340 431 q 359 442 356 437 q 352 460 363 455 q 332 469 341 465 q 279 515 296 486 q 258 578 262 543 q 257 649 254 612 q 262 719 259 685 q 262 786 264 751 q 249 852 260 821 q 177 903 226 899 q 83 890 127 907 l 83 1077 l 123 1081 l 155 1081 l 170 1080 q 363 1044 268 1071 q 434 1014 396 1035 q 486 960 473 993 q 494 885 494 923 q 494 751 496 818 q 494 616 492 684 q 496 578 494 601 q 509 543 499 555 q 520 536 514 538 q 599 533 559 521 z "},"~":{"ha":538,"x_min":24,"x_max":531,"o":"m 411 506 l 425 506 q 531 426 513 444 q 385 292 465 292 l 353 292 q 176 328 326 292 q 144 288 158 328 l 132 288 q 24 368 38 349 q 171 501 92 501 l 197 501 q 376 461 248 501 q 411 506 411 480 m 73 399 q 144 355 136 355 q 193 386 167 386 q 385 346 316 355 q 495 421 442 346 l 425 471 q 380 435 410 435 q 184 475 221 475 q 73 399 123 475 z "},"¡":{"ha":456,"x_min":125,"x_max":441,"o":"m 135 -264 l 135 -264 l 171 -264 l 172 -263 q 364 -262 268 -263 q 401 -262 383 -262 q 411 -249 412 -260 q 408 -226 409 -237 l 431 -226 q 437 -223 433 -226 q 441 -217 439 -220 l 441 -214 q 440 -212 440 -212 q 437 -192 439 -202 q 417 101 425 -75 q 396 394 408 277 q 385 403 394 403 q 369 404 376 404 q 191 406 279 405 q 173 395 176 409 l 173 370 q 160 370 166 370 q 155 370 157 370 q 143 359 144 369 q 143 315 142 337 q 126 -227 134 44 q 125 -254 125 -241 q 135 -264 127 -262 m 148 -241 l 148 -241 l 165 347 l 346 346 l 388 -241 l 148 -241 m 146 573 l 146 573 q 198 479 151 512 q 298 448 244 446 q 378 497 351 450 q 391 517 384 508 q 404 533 397 524 q 423 628 433 578 q 371 711 414 678 q 271 732 323 743 q 186 675 219 722 q 177 661 182 667 q 146 582 149 627 q 146 573 146 577 m 281 469 l 281 469 q 185 519 217 469 q 180 627 153 568 q 271 685 213 682 q 366 636 329 688 q 372 528 399 580 q 281 469 345 476 z "},"¢":{"ha":864,"x_min":41,"x_max":786,"o":"m 595 1000 l 595 1000 l 591 1000 q 578 990 582 998 l 567 936 q 551 947 559 941 q 531 937 536 952 l 513 850 q 281 757 384 835 q 210 689 241 726 q 158 633 183 661 q 41 319 48 496 q 41 291 41 305 q 42 277 43 284 q 115 46 50 152 q 307 -125 187 -65 l 281 -246 q 283 -258 280 -253 q 369 -319 326 -290 q 376 -323 372 -322 l 381 -323 q 391 -314 389 -321 l 402 -262 q 417 -273 410 -268 q 433 -276 424 -279 q 443 -265 441 -273 l 462 -173 q 652 -166 557 -186 q 676 -161 664 -164 q 688 -144 689 -158 l 686 -123 q 709 -119 697 -121 q 732 -111 722 -116 q 739 -85 743 -100 q 709 194 724 55 q 687 204 703 209 q 666 195 677 199 q 550 183 610 173 q 538 185 544 184 q 537 186 538 185 l 593 452 q 595 451 593 452 q 599 449 597 450 q 616 456 610 445 l 634 502 q 647 495 640 500 q 667 502 659 492 l 786 808 l 786 813 q 766 828 781 826 q 676 848 722 842 l 692 923 q 685 939 693 933 q 603 997 644 968 q 595 1000 600 999 m 748 800 l 748 800 l 644 533 q 619 544 632 539 q 597 551 609 549 q 579 541 585 553 l 503 176 q 510 160 503 164 q 528 155 518 157 q 680 165 606 136 l 706 -86 q 654 -96 680 -92 q 484 -90 568 -106 q 462 -85 473 -86 q 446 -96 450 -83 l 417 -232 l 416 -233 l 361 -193 l 387 -68 q 385 -59 387 -63 q 356 -43 372 -50 q 147 197 202 43 q 148 516 92 350 q 300 731 196 652 q 547 822 404 810 q 566 823 557 822 q 578 836 574 824 l 604 956 l 658 919 l 641 833 q 648 821 642 825 q 679 815 663 817 q 748 800 714 810 m 497 551 l 497 551 q 476 545 487 549 q 397 494 430 530 q 355 411 364 459 q 362 315 347 362 q 408 231 378 268 q 427 213 416 220 q 448 220 437 205 l 515 535 q 497 551 513 551 m 432 467 l 432 467 l 398 309 q 387 350 391 329 q 406 454 376 406 q 432 467 418 462 z "},"£":{"ha":979,"x_min":50,"x_max":930,"o":"m 544 1013 l 544 1013 l 521 1013 l 519 1012 q 309 917 393 1009 q 296 901 302 909 q 279 887 288 894 q 210 787 233 845 q 194 677 192 734 q 206 566 195 621 l 135 562 l 123 515 l 96 514 q 83 505 87 513 q 52 378 68 441 q 50 376 51 376 l 50 372 q 66 360 54 360 l 233 374 q 233 372 233 374 q 234 363 234 368 q 232 291 235 327 q 219 243 231 265 q 201 231 213 234 q 152 220 178 220 l 157 184 q 123 173 141 176 q 112 170 117 172 q 105 160 106 168 l 146 -94 q 155 -102 149 -100 l 161 -102 q 170 -97 166 -101 q 186 -77 178 -87 q 197 -66 192 -71 l 198 -71 l 235 -28 q 333 17 279 11 q 440 -1 388 22 q 529 -38 483 -22 q 692 -37 612 -60 q 843 28 772 -14 q 875 48 860 37 q 879 70 884 57 l 930 101 l 873 397 q 872 397 872 397 q 871 397 871 397 q 837 352 855 374 q 814 330 825 339 q 810 328 812 329 q 800 317 804 323 q 745 289 775 296 q 712 294 724 286 q 683 311 699 301 q 521 338 606 349 q 509 337 515 338 q 526 397 520 366 l 571 401 q 583 410 580 402 l 592 448 l 630 451 l 662 585 l 516 579 q 503 659 507 618 q 506 740 498 700 q 509 753 507 747 q 515 753 512 754 q 567 728 541 747 q 614 692 593 709 q 629 683 621 687 q 645 686 637 679 l 679 730 l 687 726 l 688 727 l 833 918 q 578 1010 715 991 l 544 1013 m 494 551 l 494 551 l 627 556 l 608 476 l 504 468 q 504 448 504 458 q 482 342 503 393 q 459 295 471 319 q 508 309 484 303 q 677 283 598 326 q 709 265 692 272 q 790 277 751 253 q 857 333 829 302 q 858 334 857 334 l 901 114 q 805 63 854 85 q 701 31 755 41 q 612 31 653 24 q 528 60 572 39 q 473 83 498 74 q 414 94 448 92 q 303 67 349 96 q 217 -8 257 39 q 216 -9 217 -9 l 183 196 q 279 260 242 211 q 307 335 305 293 q 307 451 313 393 l 131 438 l 156 536 l 295 543 q 282 614 288 578 q 271 766 267 693 q 333 903 276 840 q 443 972 382 954 q 574 983 503 991 q 793 910 691 968 l 681 762 q 638 794 659 778 q 586 824 615 812 q 528 825 557 836 q 496 791 507 814 q 479 747 484 769 q 477 648 470 697 q 494 551 484 599 z "},"¤":{"ha":832,"x_min":24,"x_max":802,"o":"m 217 867 l 217 867 l 211 867 q 201 861 205 865 q 75 753 138 807 q 71 739 70 747 l 28 703 q 25 698 26 701 q 24 696 25 696 l 24 691 l 28 684 l 140 579 q 127 385 102 484 q 138 354 132 369 q 109 329 123 341 q 97 309 98 321 l 55 271 q 54 254 48 262 q 164 140 109 197 l 170 138 l 173 138 q 191 151 183 142 q 210 171 201 161 q 231 189 219 182 l 260 218 q 515 203 385 152 q 530 211 524 208 l 599 146 q 618 149 610 139 l 646 192 l 647 192 q 665 192 656 187 q 688 227 677 207 q 761 338 727 281 q 761 359 768 349 q 709 401 735 380 q 707 404 708 403 q 720 599 743 500 q 743 615 731 608 q 751 629 751 620 q 752 633 750 631 q 800 669 777 650 l 802 673 l 802 682 q 795 693 800 688 q 692 827 743 760 q 671 829 682 836 l 602 768 l 602 768 q 382 806 500 834 q 309 774 343 795 q 298 784 303 779 q 237 851 268 818 q 222 865 230 859 q 217 867 220 866 m 654 231 l 654 231 l 652 232 l 593 288 q 572 290 583 296 q 552 279 561 285 q 439 259 498 256 q 328 290 380 263 q 317 297 322 294 q 306 301 311 300 q 293 296 300 302 l 220 224 l 219 224 l 138 311 q 154 326 146 319 q 216 380 186 353 q 221 396 224 389 q 215 412 219 404 q 214 611 176 511 q 220 635 220 623 q 212 648 218 643 q 115 738 164 693 q 111 743 113 740 l 212 828 q 220 821 216 825 q 294 741 257 781 q 315 739 304 733 q 334 751 325 745 q 457 782 391 785 q 578 745 523 780 q 595 734 586 739 q 614 734 604 728 l 678 791 l 764 681 l 690 628 q 683 618 684 624 q 690 588 684 604 q 681 427 707 507 q 671 396 673 411 q 680 383 673 389 q 692 372 687 376 q 727 346 711 360 l 654 231 m 435 654 l 435 654 q 356 621 389 650 q 312 548 323 591 q 324 464 302 506 q 400 403 351 418 q 496 405 449 388 q 568 470 544 421 q 556 601 598 545 q 435 654 514 656 m 389 576 l 389 576 q 463 554 431 578 q 501 488 496 530 q 494 438 504 462 q 404 436 450 418 q 344 502 357 454 q 353 566 337 536 q 389 576 370 574 z "},"¥":{"ha":962,"x_min":13,"x_max":927,"o":"m 380 998 l 380 998 l 374 998 l 71 920 q 65 898 58 911 q 73 886 70 891 q 73 884 74 885 l 22 871 q 16 865 18 869 q 13 861 15 862 l 13 855 l 239 473 l 149 473 q 142 469 148 473 q 139 464 139 465 l 139 425 l 138 424 l 100 424 q 90 414 96 424 l 90 307 q 104 298 95 298 q 122 298 113 298 q 142 298 132 300 q 138 290 139 295 q 138 254 139 272 q 137 254 138 254 q 100 254 119 254 q 90 244 94 252 l 90 138 q 104 128 94 129 q 185 129 144 128 q 311 130 248 130 q 334 130 322 130 l 347 -18 q 357 -31 349 -28 l 697 -31 q 707 -12 710 -26 l 705 18 l 744 18 q 756 28 751 18 q 756 35 757 32 q 747 125 753 80 q 747 134 747 129 l 845 134 q 850 135 846 134 q 859 143 856 138 l 859 182 l 895 182 q 902 186 899 182 q 907 192 906 189 l 907 292 q 903 299 907 295 q 897 302 899 302 l 732 302 q 732 304 732 304 l 842 304 q 857 310 850 304 q 859 313 859 313 l 859 352 l 859 353 l 898 353 q 903 357 899 353 q 907 363 907 361 l 907 461 q 905 466 907 463 q 901 471 903 469 q 897 473 899 473 l 728 473 l 927 982 l 927 985 q 917 998 925 994 l 577 998 q 568 989 571 995 l 557 949 q 530 948 544 949 q 519 940 522 947 q 479 780 499 860 q 475 760 477 770 q 474 759 475 759 l 389 989 q 380 998 386 995 m 894 970 l 894 970 l 694 461 q 699 447 692 452 q 703 445 703 445 l 880 445 l 880 380 q 854 380 867 380 q 741 378 798 379 q 710 378 726 379 q 696 359 694 376 q 703 307 699 332 q 707 281 703 292 q 713 275 711 275 l 880 275 l 880 210 q 777 210 829 210 q 774 210 775 210 q 727 209 750 210 q 717 204 721 209 q 714 191 712 199 q 726 66 719 129 q 728 45 727 56 l 422 45 q 422 51 421 47 q 414 132 418 92 q 410 187 412 160 q 397 206 410 202 q 353 206 376 208 q 265 205 309 205 q 165 205 216 205 l 165 275 l 391 275 q 394 277 392 275 q 397 281 397 279 q 399 302 402 291 q 393 368 397 335 q 377 377 388 377 q 351 376 363 377 q 165 375 258 375 l 165 445 l 345 445 q 349 447 347 445 q 353 453 351 450 q 355 459 355 456 q 354 464 355 462 q 103 888 228 675 q 98 899 99 894 l 369 967 l 487 643 q 512 646 501 629 l 591 970 l 894 970 z "},"¦":{"ha":688,"x_min":197,"x_max":458,"o":"m 448 1002 l 448 1002 l 257 1002 q 248 995 252 1000 q 247 992 247 992 l 247 953 l 208 953 q 200 947 205 953 q 197 943 199 943 l 197 395 q 199 394 199 395 q 212 385 202 385 l 375 385 q 388 396 387 387 q 388 416 389 406 q 389 418 389 417 q 389 433 389 426 l 426 433 q 430 435 427 433 q 433 439 433 437 q 437 458 438 448 q 456 939 446 698 q 457 982 457 960 q 458 985 457 984 l 458 990 q 456 995 457 992 q 448 1002 454 1000 m 430 975 l 430 975 l 410 460 l 274 460 l 274 975 l 430 975 m 458 313 l 458 313 l 457 317 q 446 324 454 323 l 258 324 q 255 323 256 324 q 251 321 253 322 q 248 318 250 319 q 247 315 247 316 l 247 276 l 246 275 l 208 275 q 201 272 208 275 q 197 264 199 268 l 197 -281 q 200 -288 199 -284 q 209 -294 204 -291 l 377 -294 q 382 -290 379 -292 q 388 -270 390 -281 q 389 -267 389 -268 q 389 -244 388 -255 l 427 -244 q 435 -237 429 -244 q 437 -207 438 -223 q 456 258 447 25 q 457 305 457 281 q 458 307 457 307 l 458 313 m 430 297 l 430 297 l 410 -217 l 274 -217 l 274 297 l 430 297 z "},"§":{"ha":688,"x_min":63,"x_max":635,"o":"m 389 891 l 389 891 l 363 891 l 355 890 q 259 867 309 886 q 177 812 209 848 q 167 799 172 806 q 152 787 160 793 q 127 760 138 775 q 80 617 84 697 q 121 474 77 538 q 87 391 96 436 q 86 277 75 336 q 140 180 97 218 q 219 129 177 151 q 298 79 260 106 q 337 42 319 63 q 357 -7 355 20 q 334 -14 347 -12 q 261 5 295 -17 q 205 58 227 28 q 195 73 201 64 q 184 87 189 83 q 168 87 176 94 q 153 38 159 63 q 152 38 153 37 q 151 39 152 38 q 142 50 148 45 q 127 44 132 54 q 67 -171 97 -64 q 63 -180 66 -177 l 63 -184 q 66 -186 65 -184 q 239 -283 132 -271 l 271 -286 l 300 -286 l 328 -283 q 419 -263 378 -279 q 498 -213 460 -247 q 584 -119 546 -170 q 633 -2 622 -67 l 635 22 l 635 44 q 634 60 633 52 q 633 71 633 66 q 587 160 619 120 q 631 261 618 207 q 634 279 633 271 q 635 292 633 286 l 635 320 q 634 325 633 322 q 615 394 633 360 q 567 457 596 427 q 506 512 538 488 q 446 554 473 536 q 401 580 423 567 q 367 601 386 588 q 347 632 349 614 q 353 641 347 640 q 420 636 389 653 q 469 587 451 618 q 474 576 471 582 q 494 578 485 564 q 509 625 500 601 l 515 614 q 533 616 525 605 l 583 777 q 566 801 578 789 q 420 887 507 868 l 389 891 m 522 650 l 522 650 q 518 652 519 650 q 493 680 506 667 q 413 706 458 709 q 340 668 369 704 q 330 612 317 635 q 372 572 343 589 q 424 541 400 555 q 534 459 477 510 q 609 348 591 408 q 609 265 618 307 q 578 187 600 222 q 562 159 567 174 q 564 153 562 156 q 583 127 572 140 q 612 4 622 68 q 560 -115 602 -60 q 425 -212 509 -186 q 264 -219 346 -233 q 127 -140 182 -205 l 180 53 l 200 29 q 278 -27 234 -9 q 372 -26 321 -46 q 415 57 429 -3 q 365 125 402 95 q 283 180 327 155 q 207 227 239 205 q 142 350 149 273 q 172 490 136 427 q 181 504 176 496 q 184 519 186 512 q 143 619 150 560 q 157 733 137 677 q 219 821 176 789 q 311 861 258 848 q 412 867 364 873 q 558 775 502 848 l 522 650 m 353 404 l 353 404 q 334 385 342 397 q 331 334 318 355 q 369 298 343 313 q 398 281 383 288 q 415 290 411 277 q 418 313 419 302 q 400 361 416 336 q 366 399 385 386 q 353 404 360 404 z "},"¨":{"ha":694,"x_min":63,"x_max":520,"o":"m 185 911 l 185 911 l 176 911 q 94 862 123 907 q 90 857 92 859 q 81 846 86 852 q 63 792 64 822 q 63 783 63 787 l 64 772 q 152 686 79 700 l 161 685 l 169 685 l 178 686 q 248 728 222 692 q 256 739 252 733 q 260 744 258 741 q 276 845 296 794 q 197 909 256 897 l 185 911 m 177 888 l 177 888 q 247 853 223 888 q 253 775 270 818 q 189 729 231 734 q 117 761 146 725 q 109 843 90 802 q 177 888 128 883 m 410 911 l 410 911 l 400 911 q 318 862 347 907 q 315 857 317 859 q 307 846 311 852 q 288 792 290 822 q 288 783 288 787 l 289 772 q 377 686 304 700 l 387 685 l 393 685 l 403 686 q 473 728 447 692 q 480 739 477 733 q 485 744 482 741 q 500 845 520 794 q 421 909 481 897 l 410 911 m 402 888 l 402 888 q 471 853 448 888 q 477 775 494 818 q 413 729 456 734 q 341 761 371 725 q 333 843 314 802 q 402 888 353 883 z "},"©":{"ha":907,"x_min":-25,"x_max":928,"o":"m 475 1031 l 475 1031 l 448 1031 q 149 911 277 1024 q 49 787 90 856 q -25 546 -20 677 q -25 526 -25 536 q -24 519 -24 522 q -20 473 -23 496 q 120 198 5 309 q 399 71 235 88 l 425 68 l 460 68 q 464 69 462 70 q 661 123 567 72 q 816 255 754 174 q 894 388 863 316 q 928 538 926 460 q 928 541 927 540 l 928 586 q 928 589 927 587 q 921 649 926 619 q 780 905 890 802 q 514 1028 669 1008 l 475 1031 m 449 1014 l 449 1014 q 671 963 570 1017 q 836 814 772 909 q 911 599 901 719 q 856 346 920 459 q 680 170 793 233 q 427 114 567 106 q 153 235 266 129 q 15 502 39 342 q 52 751 -1 637 q 209 937 105 866 q 449 1014 313 1008 m 446 918 l 446 918 q 214 817 308 909 q 108 587 119 724 q 156 384 102 473 q 303 247 210 294 q 509 212 396 199 q 710 311 628 230 q 812 511 793 393 q 781 717 827 623 q 647 866 735 810 q 446 918 559 921 m 432 874 l 432 874 q 610 830 530 876 q 737 703 690 783 q 781 524 783 623 q 763 428 779 477 q 718 343 747 379 q 505 229 630 245 q 270 285 380 212 q 137 468 170 356 q 150 695 104 581 q 192 763 165 733 q 432 874 289 867 m 551 631 l 551 631 q 561 636 558 629 l 600 782 q 597 791 602 787 q 570 797 585 795 q 429 777 494 805 q 326 682 363 749 q 281 569 293 629 q 309 415 270 481 q 418 319 347 349 q 574 309 490 289 q 606 319 591 313 q 608 332 610 324 q 605 345 606 339 q 619 350 612 348 q 625 361 627 353 l 597 492 q 587 499 595 500 q 570 490 579 495 q 496 486 534 474 q 452 522 469 497 q 435 576 434 547 q 440 587 435 583 q 519 604 475 616 q 533 599 526 602 q 544 604 541 596 l 551 631 m 582 779 l 582 779 l 548 650 q 484 652 516 661 q 432 616 452 644 q 419 558 414 588 q 445 504 424 528 q 570 472 496 448 q 583 477 576 475 l 608 364 q 596 359 603 361 q 441 367 515 337 q 331 473 368 397 q 318 618 300 544 q 398 741 336 693 q 486 778 438 769 q 582 779 534 786 z "},"ª":{"ha":500,"x_min":-26,"x_max":465,"o":"m 429 1035 l 429 1035 l 406 1035 q 295 1033 351 1033 q 279 1027 284 1036 q 281 1009 279 1019 l 260 1010 q 256 1008 258 1009 q 248 1010 253 1009 q 62 972 143 1036 q 44 955 53 963 q 37 949 41 951 q -26 825 -22 899 q -26 814 -26 820 q -26 810 -26 812 q -17 764 -24 787 q 60 666 5 701 q 189 639 115 631 q 289 675 244 646 q 293 646 291 661 q 303 637 293 637 q 412 672 358 654 q 435 680 425 675 q 439 696 441 686 l 460 703 q 465 708 464 705 l 465 715 q 465 716 465 715 q 460 876 463 796 l 455 1027 q 443 1034 452 1035 q 431 1035 437 1035 q 429 1035 430 1034 m 439 1020 l 439 1020 l 449 715 q 361 686 405 699 q 335 678 348 681 q 334 677 335 677 l 329 715 q 319 720 326 721 q 311 714 314 718 q 159 677 243 667 q 34 769 71 696 q 35 917 -3 842 q 160 1001 77 985 q 282 982 224 1009 q 292 977 287 979 q 301 986 302 977 l 296 1019 q 301 1018 298 1019 q 372 1019 336 1018 q 439 1020 405 1021 m 271 901 l 271 901 q 202 871 229 898 q 193 807 174 845 q 244 771 211 779 q 310 772 277 764 q 323 780 319 773 q 317 838 320 808 q 311 888 314 863 q 299 899 311 899 q 271 901 285 902 m 269 861 l 269 861 l 278 782 q 231 792 253 781 q 207 815 216 800 q 203 846 199 829 q 207 852 205 850 q 214 856 210 854 q 269 861 241 867 m 440 581 l 440 581 l 116 581 q 111 571 111 577 l 111 543 l 102 543 q 97 534 98 543 l 97 360 q 100 352 98 355 q 102 351 101 351 l 103 351 q 104 351 104 351 q 178 354 141 353 q 416 363 297 358 q 425 363 421 363 q 430 373 430 366 l 430 400 l 440 401 q 443 404 442 401 q 445 410 444 406 l 445 570 q 443 577 444 574 q 440 581 442 579 m 434 559 l 434 559 l 434 422 l 122 410 l 122 559 l 434 559 z "},"«":{"ha":640,"x_min":43,"x_max":527,"o":"m 43 227 q 47 220 44 223 l 205 68 q 218 71 212 64 q 224 83 221 77 q 231 78 227 80 q 244 83 240 75 q 294 189 269 136 q 294 203 299 197 l 249 239 q 251 241 250 241 q 312 313 281 277 q 312 323 315 318 l 243 410 q 237 414 241 414 q 234 414 235 414 q 230 413 232 414 l 218 401 l 218 401 q 218 401 218 401 q 204 402 211 408 l 45 235 q 43 230 43 233 l 43 227 l 43 227 m 91 243 l 235 395 l 292 323 l 292 323 l 228 249 q 229 236 224 242 l 276 197 l 233 107 l 91 243 l 91 243 m 255 227 q 259 220 256 223 l 418 68 q 431 71 425 64 q 437 83 433 77 q 444 78 439 80 q 456 83 452 75 q 507 189 481 136 q 506 203 511 197 l 461 239 q 463 241 462 241 q 524 313 494 277 q 524 323 527 318 l 456 410 q 449 414 453 414 q 446 414 448 414 q 442 413 444 414 l 431 401 l 430 401 q 430 401 430 401 q 416 402 423 408 l 258 235 q 255 230 256 233 l 255 227 l 255 227 m 303 243 l 448 395 l 504 323 l 504 323 l 440 249 q 441 236 436 242 l 488 197 l 445 107 l 303 243 l 303 243 z "},"¬":{"ha":688,"x_min":54,"x_max":636,"o":"m 627 568 l 627 568 l 104 568 q 96 562 98 567 q 95 559 95 559 l 95 528 l 64 528 q 61 527 63 528 q 58 526 59 526 q 54 519 55 523 l 54 330 q 64 321 56 323 q 87 321 75 321 q 409 328 248 325 q 420 328 414 328 l 420 152 q 421 149 420 151 q 431 143 425 143 l 585 143 q 592 146 589 143 q 595 151 595 149 l 595 183 l 626 183 q 636 193 633 183 l 636 559 q 627 568 635 567 m 614 547 l 614 547 l 614 205 l 483 205 l 483 381 q 472 391 483 389 q 449 390 460 391 l 340 387 l 134 385 q 120 384 127 384 q 117 384 117 382 l 117 547 l 614 547 z "},"®":{"ha":1135,"x_min":137,"x_max":1090,"o":"m 639 992 l 639 992 l 608 992 l 606 991 q 252 807 387 979 q 143 563 165 700 q 138 511 140 537 q 137 507 138 509 l 137 487 q 138 485 138 486 q 140 460 140 473 q 272 170 157 288 q 559 32 388 52 l 581 30 l 624 30 q 627 31 625 31 q 826 85 732 33 q 982 220 919 136 q 1056 347 1025 277 q 1090 490 1088 418 q 1090 493 1089 492 l 1090 555 q 1090 559 1089 557 q 1082 617 1088 589 q 957 852 1053 755 q 724 981 861 950 q 647 991 686 989 q 639 992 642 991 m 616 976 l 616 976 l 633 976 q 930 856 807 968 q 1073 570 1053 743 q 1020 309 1085 426 q 839 128 956 193 q 579 76 723 64 q 316 196 425 94 q 179 451 207 299 q 212 707 159 589 q 371 898 264 825 q 616 976 477 970 m 610 880 l 610 880 q 388 789 481 872 q 273 576 294 705 q 311 358 258 456 q 464 209 365 260 q 683 175 562 157 q 878 277 798 195 q 975 475 958 359 q 943 679 989 586 q 810 827 898 772 q 610 880 722 882 m 598 836 l 598 836 q 819 759 725 836 q 939 557 913 682 q 934 416 951 488 q 870 292 918 345 q 692 194 795 214 q 488 215 589 173 q 311 398 361 275 q 312 654 261 522 q 429 785 349 739 q 598 836 508 832 m 593 283 l 593 283 l 593 303 l 594 304 q 606 302 598 303 q 616 305 614 300 l 606 405 l 608 405 q 627 317 618 361 q 640 274 633 295 q 693 287 667 280 q 747 294 720 291 q 768 298 753 295 q 785 303 783 301 q 784 316 786 310 l 806 318 q 792 394 805 357 q 751 487 774 442 l 751 490 q 804 615 804 542 q 780 686 803 654 q 723 732 756 718 q 650 748 689 746 q 472 724 558 753 q 461 719 465 721 q 453 713 456 716 q 447 707 450 711 q 439 700 444 704 q 424 689 431 694 q 444 416 439 553 q 439 304 446 360 q 452 299 443 296 q 533 292 493 298 q 593 283 563 287 m 793 332 l 793 332 q 732 323 762 328 q 668 309 700 317 q 638 439 654 374 q 629 465 635 454 q 625 467 627 467 q 595 466 609 467 q 591 464 592 465 l 602 316 q 506 330 554 326 q 479 332 492 330 q 475 335 475 331 q 478 375 477 355 q 471 568 481 472 q 458 701 465 635 l 459 701 q 551 729 503 720 q 648 734 593 737 q 744 706 702 730 q 790 627 785 682 q 743 504 794 554 q 734 494 735 500 q 749 467 739 481 q 774 407 764 438 q 793 332 789 371 m 608 643 l 608 643 q 582 638 593 642 q 581 637 581 637 q 587 570 583 603 q 593 545 589 556 q 608 544 600 543 q 667 589 653 547 q 654 631 675 618 q 608 643 634 644 m 597 610 l 597 610 q 634 594 618 610 q 634 577 635 585 q 626 563 634 568 q 605 558 616 557 q 601 566 601 560 q 597 610 597 587 z "},"¯":{"ha":553,"x_min":-6,"x_max":409,"o":"m 399 908 l 399 908 l 20 908 q 11 898 11 905 l 11 871 l 4 871 q -6 861 -3 871 l -6 688 q 5 679 -4 680 q 31 680 18 679 q 359 690 195 685 q 381 691 370 690 q 391 697 388 692 q 392 700 392 699 l 392 728 q 402 729 397 728 q 409 738 408 732 l 409 898 q 408 902 408 900 q 399 908 405 907 m 387 886 l 387 886 l 387 749 l 33 739 l 33 886 l 387 886 z "},"°":{"ha":457,"x_min":41,"x_max":418,"o":"m 230 930 q 130 889 172 930 q 88 789 88 848 q 130 689 88 730 q 230 648 171 648 q 330 689 289 648 q 370 789 370 730 q 329 889 370 848 q 230 930 288 930 m 230 978 q 363 923 308 978 q 418 789 418 867 q 362 656 418 712 q 229 601 307 601 q 95 656 149 601 q 41 789 41 711 q 96 923 41 868 q 230 978 151 978 z "},"±":{"ha":522,"x_min":-5,"x_max":616,"o":"m 380 725 l 380 725 l 202 725 q 193 715 194 723 l 193 696 l 165 696 q 155 686 159 696 l 154 572 l 33 572 q 31 571 33 572 q 28 570 28 570 q 24 564 24 566 l 24 534 l 4 534 q 2 534 3 534 q -1 532 0 533 q -5 526 -4 530 l -5 339 q -3 334 -4 337 q 15 330 4 328 q 69 331 42 330 l 150 332 q 149 231 149 281 q 148 186 148 209 q 157 177 149 179 l 344 177 q 351 183 349 178 q 353 186 353 186 l 353 205 l 380 205 q 390 214 385 205 l 390 336 q 427 336 408 336 q 481 337 454 337 q 507 338 494 336 q 511 341 509 339 q 514 346 514 344 l 514 374 q 518 375 516 374 q 533 375 526 374 q 543 384 541 376 l 543 563 q 533 572 539 572 l 390 572 l 390 717 q 388 720 390 718 q 380 725 385 724 m 368 703 l 368 703 l 368 559 q 370 555 368 557 q 374 552 372 553 q 378 550 376 550 l 522 550 l 522 396 l 425 395 q 378 395 401 395 q 370 389 373 394 q 368 386 368 386 l 368 228 l 207 228 q 208 253 208 240 q 210 359 208 307 q 210 382 210 371 q 193 392 205 393 q 87 390 140 391 q 45 389 66 389 l 45 550 l 203 550 q 212 559 209 550 q 212 589 213 574 q 214 694 213 642 q 214 703 214 699 l 368 703 m 606 114 l 606 114 l 78 114 q 68 104 68 111 l 68 77 l 62 77 q 52 67 54 77 l 52 -106 q 62 -115 54 -115 q 88 -114 75 -115 q 565 -104 327 -109 q 588 -103 576 -104 q 597 -97 594 -102 q 599 -94 599 -95 l 599 -66 q 609 -65 604 -66 q 616 -56 614 -62 l 616 104 q 614 108 615 106 q 606 114 612 113 m 593 92 l 593 92 l 593 -45 l 90 -56 l 90 92 l 593 92 z "},"²":{"ha":808,"x_min":214,"x_max":606,"o":"m 444 1081 l 444 1081 l 429 1081 l 429 1081 q 309 1053 366 1078 q 263 1029 285 1043 q 253 1019 257 1025 q 253 1016 252 1017 q 253 1002 253 1008 q 235 989 244 996 q 231 983 232 987 q 231 973 231 979 q 235 905 233 939 q 236 879 235 892 q 245 871 236 869 q 318 905 280 890 q 352 916 332 911 q 387 916 372 920 q 397 906 395 913 q 369 884 384 894 q 238 802 306 839 q 236 798 237 800 l 236 778 l 217 767 q 214 762 215 765 l 214 625 q 216 623 215 624 q 220 619 217 620 l 224 619 q 226 619 225 619 q 538 624 382 621 q 568 625 553 624 q 577 631 576 624 l 576 659 q 580 659 578 659 q 592 659 586 659 q 599 665 599 660 q 598 675 600 670 q 593 765 595 720 q 591 789 592 777 q 581 796 589 798 l 468 789 q 469 789 469 789 q 494 803 481 796 q 529 825 512 812 q 563 865 550 841 q 568 876 566 871 q 575 884 572 880 q 603 960 600 919 q 578 1035 606 1001 q 518 1069 554 1059 q 449 1081 482 1080 q 444 1081 446 1080 m 250 792 l 250 792 q 378 873 316 829 q 420 909 400 889 q 433 928 429 918 q 429 951 437 939 q 387 966 415 970 q 340 954 359 962 q 271 923 304 941 l 267 1014 l 267 1015 q 319 1043 291 1031 q 458 1067 385 1071 q 526 1053 491 1065 q 578 1010 560 1040 q 588 947 595 981 q 560 888 581 913 q 518 854 543 867 q 399 793 459 823 q 382 782 390 788 q 385 770 375 773 l 578 782 l 585 673 l 250 667 l 250 792 z "},"³":{"ha":652,"x_min":158,"x_max":484,"o":"m 456 1078 l 469 973 l 375 881 q 376 871 372 876 q 418 851 399 864 q 450 819 437 839 q 464 746 471 785 q 429 680 458 706 q 352 643 396 652 q 266 640 307 633 q 193 672 226 647 l 193 758 q 237 744 214 749 q 286 740 258 739 q 332 753 314 740 q 345 777 345 763 q 338 805 345 791 q 321 821 332 816 q 298 828 309 826 q 233 827 266 833 l 233 882 l 352 960 q 351 972 358 966 q 349 972 349 972 l 199 972 l 195 1078 l 456 1078 m 463 1092 l 186 1092 q 182 1088 183 1091 q 181 1081 180 1085 l 181 1078 q 182 1057 181 1067 l 164 1057 q 159 1052 161 1057 q 159 1049 159 1050 q 159 1046 159 1048 q 159 1043 159 1044 q 159 1039 159 1041 q 163 947 161 993 l 163 941 q 164 932 163 937 q 168 925 164 927 l 170 924 l 272 924 l 222 890 q 220 887 220 889 l 220 869 l 201 857 q 199 852 199 854 l 199 783 q 204 778 200 778 q 212 779 208 777 q 216 780 214 779 q 259 782 234 783 q 300 770 284 781 q 307 758 305 765 q 308 755 307 757 q 298 754 302 755 q 245 756 274 751 q 197 772 217 761 q 194 774 195 773 q 183 776 189 779 q 181 774 182 775 q 180 772 180 772 l 180 734 q 174 738 177 736 l 172 739 q 162 741 168 743 q 159 737 159 740 q 158 736 158 736 l 158 633 q 161 628 159 630 q 172 621 166 624 q 278 588 220 589 l 278 588 q 279 588 279 589 l 281 588 q 283 588 282 589 l 283 588 q 376 609 330 589 q 444 672 422 629 q 446 675 445 673 q 447 677 446 676 q 448 679 447 678 q 449 681 448 680 l 451 683 q 477 743 471 709 q 471 809 484 777 q 413 870 453 850 q 407 873 410 872 l 403 876 l 403 876 l 403 876 l 459 931 q 460 941 463 935 q 460 946 460 943 l 481 966 q 483 970 482 968 l 483 972 l 468 1087 q 463 1092 467 1090 z "},"´":{"ha":694,"x_min":200,"x_max":472,"o":"m 314 822 l 314 822 l 311 822 q 307 819 309 821 l 300 808 q 300 809 300 809 q 288 809 294 809 q 279 807 283 810 l 201 684 q 200 682 200 683 q 200 681 200 682 q 204 675 201 677 q 206 675 205 675 l 208 675 q 208 675 208 675 q 281 677 245 675 q 294 678 288 677 l 308 690 q 321 690 315 689 l 467 804 q 462 816 472 813 q 454 816 458 816 q 388 819 421 817 l 314 822 m 444 803 l 444 803 l 315 703 q 253 701 284 702 q 247 701 250 701 l 316 808 q 321 808 319 808 q 366 806 344 807 l 444 803 z "},"µ":{"ha":906,"x_min":37,"x_max":893,"o":"m 684 765 l 684 765 l 680 765 q 677 764 678 764 q 460 740 568 752 q 451 722 448 735 q 458 696 454 709 l 408 690 q 400 675 398 685 q 405 657 402 666 q 445 462 430 561 q 455 381 451 425 q 453 301 460 338 q 450 288 452 294 q 441 287 446 287 q 370 330 393 288 q 359 381 361 351 q 356 434 357 410 q 332 704 345 569 q 331 721 332 713 q 317 730 329 728 q 111 709 214 719 q 98 706 104 708 q 90 698 92 705 q 88 687 88 693 q 90 663 88 675 q 55 659 73 661 q 41 653 47 659 q 37 647 39 650 l 37 616 q 38 614 38 616 q 38 593 38 604 q 41 -14 41 290 q 43 -227 43 -120 q 44 -243 42 -236 q 58 -253 46 -251 q 336 -254 197 -253 q 347 -234 350 -249 q 346 -219 347 -227 q 345 -205 346 -212 l 387 -205 q 398 -193 395 -205 q 396 -151 398 -172 q 389 -7 391 -79 q 389 2 389 -3 q 425 -11 407 -5 q 531 -17 477 -26 q 646 54 599 1 q 668 38 656 45 q 761 5 712 15 q 783 11 775 0 l 796 57 q 817 53 806 56 q 834 60 827 50 l 893 279 l 893 280 q 892 285 892 282 q 881 294 889 292 q 857 291 869 294 q 814 292 834 288 q 806 298 810 294 q 782 326 793 311 q 758 512 777 420 q 713 695 739 605 q 696 751 705 724 q 684 765 694 762 m 673 737 l 673 737 q 722 552 700 646 q 755 338 748 447 q 755 326 755 330 q 756 317 755 321 q 763 306 758 313 q 785 280 772 293 q 814 264 798 267 q 861 264 838 261 l 812 81 l 812 81 q 743 104 777 90 q 714 123 727 112 q 706 133 710 129 q 694 138 703 138 q 683 129 689 136 q 672 116 676 121 q 590 62 637 79 q 488 63 540 47 q 394 107 435 78 q 377 120 387 113 q 359 119 368 126 q 357 93 353 107 q 370 -170 363 -38 q 371 -178 370 -174 l 121 -176 l 116 682 l 306 701 l 334 359 q 375 283 339 312 q 458 262 410 254 q 515 303 498 271 q 534 374 532 336 q 524 505 535 440 q 481 715 508 611 l 673 737 z "},"¶":{"ha":694,"x_min":63,"x_max":630,"o":"m 630 973 l 630 926 l 544 926 l 544 0 l 488 0 l 488 926 l 376 926 l 376 0 l 319 0 l 319 500 q 132 570 201 506 q 63 736 63 634 q 136 908 63 843 q 330 973 209 973 l 630 973 z "},"·":{"ha":345,"x_min":-29,"x_max":196,"o":"m 160 551 l 160 551 q 157 437 196 493 q 155 434 156 435 q 152 431 153 433 q 150 428 151 430 q 149 425 149 427 q 113 392 135 404 q 67 380 92 380 q 40 384 54 380 q -28 465 -18 404 l -28 472 l -28 473 q -28 476 -28 474 q -28 480 -29 478 q -7 537 -27 512 q -5 539 -6 538 q -3 541 -4 541 q -1 545 -2 543 q 1 548 0 547 q 77 592 28 589 l 85 592 l 94 591 q 160 551 136 586 m 158 507 l 158 507 q 131 555 153 536 q 79 573 109 574 q 23 547 45 572 q 5 486 1 520 q 68 420 15 433 q 135 441 106 414 q 158 507 162 468 z "},"∙":{"ha":345,"x_min":-29,"x_max":196,"o":"m 160 551 l 160 551 q 157 437 196 493 q 155 434 156 435 q 152 431 153 433 q 150 428 151 430 q 149 425 149 427 q 113 392 135 404 q 67 380 92 380 q 40 384 54 380 q -28 465 -18 404 l -28 472 l -28 473 q -28 476 -28 474 q -28 480 -29 478 q -7 537 -27 512 q -5 539 -6 538 q -3 541 -4 541 q -1 545 -2 543 q 1 548 0 547 q 77 592 28 589 l 85 592 l 94 591 q 160 551 136 586 m 158 507 l 158 507 q 131 555 153 536 q 79 573 109 574 q 23 547 45 572 q 5 486 1 520 q 68 420 15 433 q 135 441 106 414 q 158 507 162 468 z "},"¸":{"ha":694,"x_min":186,"x_max":444,"o":"m 380 -7 l 380 -7 l 372 -7 q 322 -7 347 -7 q 298 -7 311 -7 q 287 -16 291 -9 q 281 -24 283 -20 q 278 -29 279 -26 q 275 -31 277 -30 q 262 -48 267 -38 q 249 -87 250 -66 q 265 -123 247 -109 l 265 -123 l 208 -165 q 204 -172 205 -168 q 205 -176 204 -174 l 190 -186 q 186 -193 187 -189 q 186 -195 186 -194 q 235 -248 199 -231 q 322 -265 276 -269 q 400 -224 369 -261 q 406 -216 403 -220 q 411 -211 408 -213 q 443 -142 437 -181 l 444 -133 l 444 -129 l 444 -123 q 397 -61 437 -81 q 387 -52 389 -60 q 387 -32 385 -42 q 389 -14 389 -22 q 380 -7 387 -7 m 368 -26 l 368 -26 q 366 -35 367 -31 q 371 -66 364 -51 q 395 -83 380 -78 q 418 -159 437 -111 q 342 -224 400 -215 q 285 -219 315 -227 q 235 -191 255 -210 q 226 -177 229 -184 l 269 -145 l 269 -145 q 311 -158 287 -161 q 340 -118 347 -153 q 315 -94 334 -99 q 300 -89 309 -92 q 288 -79 291 -85 q 289 -53 283 -66 q 302 -29 294 -39 q 303 -27 302 -28 q 368 -26 336 -27 m 301 -138 l 301 -138 q 281 -130 290 -138 q 300 -137 291 -132 q 301 -138 300 -138 z "},"¹":{"ha":596,"x_min":117,"x_max":449,"o":"m 442 1065 l 442 1065 l 290 1065 l 145 992 q 144 977 140 986 q 146 966 145 972 q 136 960 141 963 q 121 953 128 957 q 118 949 119 951 q 117 948 118 948 l 117 945 l 118 945 l 145 813 q 155 810 149 808 l 230 847 l 164 538 q 172 528 163 529 l 358 528 q 366 534 364 528 l 370 568 q 382 567 376 568 q 391 573 388 567 l 448 1055 q 442 1065 449 1062 m 431 1049 l 431 1049 l 376 583 l 205 583 l 273 901 q 263 908 272 909 l 182 867 l 159 981 l 294 1049 l 431 1049 z "},"º":{"ha":451,"x_min":-11,"x_max":446,"o":"m 237 1035 l 237 1035 l 223 1035 q 82 975 140 1030 q 62 957 73 966 q -11 810 -6 897 q -11 798 -11 804 q -9 787 -10 793 q 121 626 5 673 q 198 610 158 612 q 200 610 199 610 l 214 610 l 227 610 q 353 665 301 617 q 362 675 357 670 q 372 682 367 679 q 439 829 437 743 q 440 830 439 829 l 440 842 q 439 843 439 842 q 421 922 439 884 q 249 1034 368 1019 l 237 1035 m 222 1020 l 222 1020 q 338 989 286 1021 q 412 902 390 957 q 383 717 446 803 q 259 649 332 657 q 122 677 186 642 q 37 784 58 713 q 64 930 18 862 q 131 992 90 968 q 222 1020 172 1017 m 224 923 l 224 923 q 171 899 193 920 q 148 849 150 877 q 177 787 147 808 q 244 770 207 766 q 302 810 281 774 q 298 888 321 852 q 224 923 275 924 m 200 885 l 200 885 q 264 847 246 885 q 259 790 275 817 q 174 812 208 772 q 168 867 157 839 q 174 878 171 873 q 180 880 177 879 q 200 885 190 884 m 392 380 l 392 380 l 68 380 q 63 372 63 378 l 63 343 l 54 343 q 49 334 50 343 l 49 161 q 52 153 50 155 q 54 152 53 152 l 55 152 q 56 152 56 152 q 130 155 93 153 q 368 163 249 159 q 377 163 373 163 q 382 173 382 165 l 382 201 l 392 201 q 395 204 394 202 q 397 211 396 207 l 397 371 q 395 377 397 374 q 392 380 394 380 m 386 359 l 386 359 l 386 222 l 74 211 l 74 359 l 386 359 z "},"»":{"ha":640,"x_min":66,"x_max":551,"o":"m 338 269 q 334 275 338 273 l 176 427 q 163 425 169 431 q 157 412 160 418 q 151 418 154 416 q 137 412 141 421 q 87 307 112 359 q 88 292 82 299 l 132 256 q 131 254 132 255 q 69 182 100 218 q 69 172 66 178 l 138 86 q 145 81 140 82 q 148 81 146 81 q 151 83 150 81 l 163 95 l 163 95 q 164 94 163 94 q 178 94 171 88 l 336 260 q 338 266 338 263 l 338 269 l 338 269 m 315 267 l 172 115 l 115 187 l 115 187 l 178 261 q 178 274 183 268 l 131 312 l 174 403 l 315 267 l 315 267 m 551 269 q 547 275 550 273 l 389 427 q 376 425 381 431 q 370 412 372 418 q 363 418 366 416 q 349 412 353 421 q 299 307 324 359 q 300 292 294 299 l 345 256 q 343 254 345 255 q 281 182 312 218 q 281 172 279 178 l 350 86 q 357 81 353 82 q 360 81 359 81 q 363 83 362 81 l 376 95 l 376 95 q 376 94 376 94 q 390 94 383 88 l 549 260 q 551 266 551 263 l 551 269 l 551 269 m 528 267 l 384 115 l 327 187 l 327 187 l 391 261 q 390 274 395 268 l 343 312 l 386 403 l 528 267 l 528 267 z "},"¼":{"ha":1257,"x_min":117,"x_max":1156,"o":"m 935 293 l 908 294 l 943 327 l 935 293 m 977 389 q 973 388 975 389 l 871 292 q 874 281 866 284 q 890 281 882 280 l 899 281 q 920 280 909 280 l 952 279 q 960 283 957 279 l 984 381 q 977 389 984 388 m 1107 509 l 1083 292 q 1082 290 1083 291 q 1088 277 1080 279 q 1101 276 1095 276 q 1109 276 1105 277 l 1121 276 q 1141 275 1131 276 l 1131 184 l 1126 184 q 1097 185 1112 185 l 1082 185 q 1070 179 1073 188 l 1059 87 l 911 87 l 935 180 q 930 189 935 186 q 924 189 928 189 q 893 190 909 190 l 873 190 l 728 193 l 744 297 l 986 509 l 1107 509 m 431 1049 l 376 583 l 205 583 l 273 901 q 263 908 272 909 l 182 867 l 159 981 l 294 1049 l 431 1049 m 321 105 l 882 1015 l 883 1015 l 883 1014 q 890 1007 886 1011 q 895 1004 892 1005 q 938 965 916 984 q 997 912 968 940 l 997 911 l 452 67 l 452 67 q 349 96 400 79 l 322 104 q 321 105 321 105 m 1116 522 l 982 522 l 980 522 l 732 305 q 731 301 731 303 q 730 294 730 298 l 728 286 l 712 271 q 709 267 710 270 q 701 212 705 240 q 692 155 697 183 l 692 154 q 692 153 692 153 l 692 151 q 692 149 692 150 q 693 148 692 149 q 699 145 695 146 l 716 145 q 752 144 734 144 l 888 141 l 898 141 l 874 45 q 880 38 874 39 l 1045 38 q 1050 44 1050 39 l 1054 73 l 1059 73 q 1072 77 1068 71 l 1079 136 l 1097 136 q 1110 136 1103 136 l 1114 136 q 1121 142 1120 136 l 1124 171 l 1130 171 q 1143 176 1140 168 l 1156 280 q 1149 289 1156 288 q 1139 290 1145 290 q 1133 290 1137 289 l 1107 290 q 1097 290 1102 290 l 1122 515 q 1116 522 1122 521 m 442 1065 l 290 1065 l 145 992 q 143 979 140 987 q 144 977 143 978 q 144 973 144 975 q 146 966 146 970 q 136 961 141 963 l 136 960 l 131 958 q 121 953 125 956 q 119 949 119 951 q 118 949 118 949 q 117 948 118 948 l 117 945 l 118 945 l 145 813 q 155 810 149 808 l 230 847 l 164 538 q 172 528 163 529 l 358 528 q 366 534 364 528 l 370 568 q 377 568 374 568 q 391 573 387 566 l 448 1055 q 442 1065 449 1062 m 884 1042 l 880 1042 q 879 1041 880 1042 q 874 1038 876 1040 l 848 1008 q 831 1010 840 1018 l 246 74 l 246 70 q 248 68 247 69 q 248 66 248 67 q 256 61 251 62 q 258 60 257 60 l 294 48 q 307 45 300 47 q 410 16 357 28 l 414 16 l 419 19 l 444 46 q 449 45 447 45 q 463 47 456 42 l 1017 901 l 1019 903 q 1023 909 1021 905 l 1023 913 q 1017 922 1021 918 q 1016 923 1017 923 q 996 943 1006 934 l 996 943 q 953 981 975 963 q 905 1023 928 1002 q 898 1031 901 1027 l 890 1039 q 886 1041 888 1040 q 884 1042 885 1042 z "},"½":{"ha":1375,"x_min":117,"x_max":1230,"o":"m 1068 545 l 1068 545 l 1053 545 l 1053 545 q 932 517 989 543 q 887 493 909 507 q 877 484 881 489 q 877 480 876 481 q 877 466 877 473 q 859 454 868 460 q 855 448 856 452 q 855 437 854 443 q 859 370 857 404 q 860 343 859 356 q 869 335 860 334 q 942 369 904 355 q 976 380 956 375 q 1011 380 996 385 q 1021 370 1019 378 q 993 348 1008 358 q 862 266 930 303 q 860 262 861 264 l 860 242 l 841 231 q 838 227 839 229 l 838 89 q 840 87 839 88 q 844 83 841 84 l 848 83 q 850 83 849 83 q 1162 88 1006 85 q 1192 89 1177 88 q 1201 95 1200 88 l 1200 123 q 1204 123 1202 123 q 1216 123 1210 123 q 1223 129 1223 124 q 1222 140 1223 134 q 1217 229 1219 184 q 1215 254 1216 241 q 1205 260 1213 262 l 1092 253 q 1093 254 1093 254 q 1118 267 1105 260 q 1153 289 1136 277 q 1187 329 1174 305 q 1192 340 1190 335 q 1199 349 1196 345 q 1227 424 1223 383 q 1202 499 1230 465 q 1142 534 1178 524 q 1073 545 1106 544 q 1068 545 1070 545 m 873 256 l 873 256 q 1002 337 940 293 q 1044 373 1024 353 q 1057 393 1053 382 q 1053 415 1061 403 q 1011 430 1039 434 q 964 418 983 427 q 895 387 928 406 l 890 478 l 890 479 q 943 507 915 496 q 1082 531 1009 535 q 1149 517 1115 529 q 1202 475 1184 505 q 1212 411 1219 445 q 1184 352 1204 378 q 1142 319 1166 332 q 1023 257 1083 287 q 1006 246 1014 252 q 1009 234 999 237 l 1202 246 l 1209 137 l 873 132 l 873 256 m 442 1065 l 442 1065 l 290 1065 l 145 992 q 144 977 140 986 q 146 966 145 972 q 136 960 141 963 q 121 953 128 957 q 118 949 119 951 q 117 948 118 948 l 117 945 l 118 945 l 145 813 q 155 810 149 808 l 230 847 l 164 538 q 172 528 163 529 l 358 528 q 366 534 364 528 l 370 568 q 382 567 376 568 q 391 573 388 567 l 448 1055 q 442 1065 449 1062 m 431 1049 l 431 1049 l 376 583 l 205 583 l 273 901 q 263 908 272 909 l 182 867 l 159 981 l 294 1049 l 431 1049 m 884 1042 l 884 1042 l 880 1042 q 874 1038 877 1041 l 848 1008 q 831 1010 840 1018 l 250 79 l 246 74 l 246 70 q 248 66 248 68 q 258 60 252 62 q 307 45 282 52 q 410 16 357 28 l 414 16 l 419 19 l 444 46 q 463 47 454 41 l 1017 901 q 1023 909 1021 905 l 1023 913 q 1016 923 1021 919 q 996 943 1006 934 q 905 1023 950 983 q 890 1039 897 1031 q 884 1042 887 1041 m 321 105 l 321 105 l 882 1015 q 883 1014 883 1015 q 895 1004 889 1009 q 997 912 947 958 l 997 911 l 452 67 l 452 67 q 322 104 386 83 q 321 105 321 105 z "},"¾":{"ha":1158,"x_min":83,"x_max":1075,"o":"m 381 944 l 394 840 l 300 747 q 302 738 297 742 q 343 718 324 730 q 376 686 363 705 q 390 612 396 652 q 354 546 383 572 q 277 509 321 519 q 191 507 233 499 q 119 538 151 513 l 119 625 q 162 610 140 615 q 212 606 184 606 q 258 619 239 606 q 270 644 270 629 q 264 671 271 658 q 246 687 258 682 q 223 694 235 692 q 159 694 191 700 l 159 749 l 277 826 q 276 838 283 833 q 275 839 275 839 l 125 839 l 120 944 l 381 944 m 389 958 l 112 958 q 107 955 109 958 q 106 947 105 951 l 106 945 q 107 923 106 934 l 90 923 q 84 918 87 923 q 84 916 84 917 q 84 912 84 914 q 85 909 84 911 q 85 905 85 907 q 89 813 87 859 l 89 807 q 90 798 89 803 q 93 791 90 793 l 95 790 l 197 790 l 147 757 q 146 753 146 755 l 146 735 l 126 723 q 124 718 124 721 l 124 649 q 130 644 125 644 q 138 645 134 644 q 142 646 140 646 q 184 648 159 650 q 225 636 210 647 q 233 624 231 631 q 233 622 233 623 q 223 621 228 621 q 171 622 199 617 q 122 639 142 627 q 119 640 121 640 q 109 642 115 645 q 107 640 108 642 q 106 638 106 639 l 106 601 q 99 604 102 602 l 97 606 q 87 608 93 610 q 84 604 85 606 q 83 603 83 603 l 83 499 q 87 494 85 496 q 97 487 92 490 q 203 454 145 455 l 203 454 q 205 454 204 455 l 207 454 q 208 454 208 455 l 208 454 q 301 475 256 455 q 370 538 347 496 q 371 541 370 540 q 372 544 372 543 q 373 545 372 545 q 374 547 374 547 l 376 549 q 403 610 397 576 q 397 675 409 644 q 338 736 378 716 q 332 740 336 739 l 328 742 l 328 742 l 328 742 l 385 798 q 386 807 388 802 q 386 812 386 810 l 407 833 q 408 836 408 834 l 408 839 l 393 954 q 389 958 392 957 m 854 307 l 827 308 l 862 340 l 854 307 m 895 403 q 892 401 894 402 l 789 306 q 793 294 785 298 q 809 294 800 294 l 817 294 q 838 294 828 294 l 871 292 q 878 296 876 292 l 903 395 q 895 403 903 401 m 1026 522 l 1002 306 q 1001 303 1002 304 q 1007 290 998 293 q 1020 290 1013 290 q 1027 290 1024 290 l 1040 290 q 1060 289 1050 290 l 1049 198 l 1045 198 q 1016 199 1030 199 l 1001 199 q 989 193 991 201 l 978 100 l 830 100 l 853 194 q 848 202 854 200 q 843 203 846 203 q 812 203 827 203 l 791 203 l 647 207 l 663 311 l 905 522 l 1026 522 m 239 119 l 801 1028 l 802 1028 l 802 1027 q 809 1021 805 1025 q 813 1017 811 1019 q 857 979 834 998 q 916 926 887 954 l 916 925 l 371 81 l 370 81 q 268 110 319 93 l 241 118 q 239 119 240 119 m 1035 536 l 901 536 l 899 535 l 651 319 q 650 315 650 317 q 648 307 649 311 l 647 299 l 631 285 q 628 281 629 283 q 620 225 623 254 q 611 168 616 197 l 611 168 q 610 167 611 167 l 610 164 q 611 163 611 163 q 612 161 611 162 q 617 159 614 159 l 635 159 q 671 157 653 158 l 807 155 l 817 155 l 793 59 q 799 52 793 53 l 964 52 q 969 58 968 53 l 972 87 l 978 87 q 991 91 987 85 l 998 150 l 1015 150 q 1029 149 1022 150 l 1033 149 q 1040 155 1038 150 l 1043 184 l 1048 184 q 1061 190 1059 182 l 1074 294 q 1068 302 1075 301 q 1058 303 1063 303 q 1052 303 1055 302 l 1026 303 q 1015 304 1021 303 l 1041 529 q 1035 536 1040 534 m 803 1055 l 799 1055 q 798 1055 798 1055 q 793 1052 795 1054 l 767 1021 q 749 1024 759 1031 l 165 87 l 165 83 q 166 81 165 83 q 167 80 166 81 q 175 75 170 75 q 176 74 176 74 l 213 62 q 226 58 219 60 q 328 29 276 42 l 332 29 l 338 33 l 363 60 q 368 58 366 59 q 382 61 375 56 l 936 915 l 937 916 q 941 923 940 919 l 941 926 q 935 936 939 932 q 935 937 935 937 q 915 957 925 947 l 914 957 q 871 994 893 977 q 823 1037 847 1015 q 817 1044 820 1040 l 808 1053 q 804 1055 806 1054 q 803 1055 804 1055 z "},"¿":{"ha":722,"x_min":100,"x_max":781,"o":"m 385 -266 l 385 -266 l 410 -266 l 411 -265 q 605 -218 513 -262 q 693 -162 650 -197 q 754 -79 736 -127 q 759 -64 757 -71 q 766 -52 762 -58 q 777 -28 773 -40 q 781 -16 779 -21 l 781 -11 q 776 -3 779 -7 l 605 123 q 593 124 600 126 q 575 101 583 115 q 545 66 564 85 q 505 34 526 47 q 462 20 483 21 q 428 50 436 22 q 420 99 419 77 q 424 121 421 111 q 443 138 432 130 q 505 175 476 158 q 550 232 534 193 q 556 252 553 242 q 566 267 560 258 q 583 321 578 292 q 589 448 596 384 q 576 467 589 463 l 376 467 q 363 456 364 465 q 363 438 363 448 q 363 435 363 437 q 361 418 363 427 q 344 413 351 420 q 342 399 340 406 q 338 360 342 379 q 320 339 332 349 q 277 310 300 322 q 233 281 254 297 q 153 171 181 235 q 134 130 143 151 q 102 24 110 79 l 100 2 l 100 -24 l 102 -45 q 192 -197 121 -138 q 357 -264 262 -256 l 385 -266 m 369 391 l 369 391 l 541 391 q 543 370 543 380 q 524 241 545 303 q 487 196 512 211 q 436 165 463 180 q 379 94 394 141 q 374 17 368 57 q 406 -44 380 -23 q 479 -46 431 -66 q 535 -8 510 -33 q 580 43 561 16 l 581 43 l 730 -68 q 692 -125 717 -100 q 639 -168 668 -150 q 456 -235 557 -220 q 267 -213 355 -250 q 138 -75 179 -176 q 142 76 115 -4 q 223 206 169 157 q 261 233 241 222 q 300 257 281 243 q 362 344 347 290 q 369 391 368 367 m 321 638 l 321 638 q 373 530 326 568 q 481 494 420 492 q 588 551 543 497 q 603 574 596 562 q 618 592 610 583 q 640 703 651 645 q 580 797 629 760 q 465 822 525 833 q 368 756 405 810 q 357 740 362 747 q 321 648 323 700 q 321 638 321 644 m 477 519 l 477 519 q 366 576 403 519 q 360 701 330 633 q 465 767 398 764 q 575 711 532 770 q 582 586 612 646 q 477 519 551 526 z "},"À":{"ha":748,"x_min":-26,"x_max":776,"o":"m 602 910 q 709 532 683 723 q 763 -15 776 13 l 718 -17 l 721 -43 q 361 -68 450 -64 q 391 217 360 -50 l 337 228 q 321 24 328 165 q 307 25 311 24 q 277 45 303 27 q 272 -7 275 -1 q 267 -9 268 -5 l 259 -1 l 151 48 q -26 100 77 79 q 214 889 -16 394 q 255 901 243 877 q 340 905 268 929 q 595 909 454 892 q 602 910 597 912 m 281 886 q 55 156 81 453 l 59 154 q 245 94 132 139 q 289 69 271 77 q 315 294 300 222 q 471 269 370 297 q 445 -5 470 227 q 732 12 726 15 q 616 804 715 396 q 587 878 610 806 q 281 886 345 858 m 383 705 l 387 703 q 479 416 459 558 l 476 408 q 321 424 376 437 q 340 570 308 430 q 383 705 351 627 m 363 525 q 356 457 350 460 q 379 455 372 458 l 383 463 q 363 525 369 522 m 421 1139 l 421 1139 l 418 1139 q 403 1138 411 1139 q 279 1133 341 1136 q 267 1133 273 1133 q 261 1128 262 1132 q 264 1120 260 1124 l 253 1120 q 248 1114 248 1119 q 248 1112 248 1113 q 250 1108 248 1110 l 398 992 q 406 991 402 991 q 477 989 441 990 q 484 989 480 989 q 485 989 485 989 l 487 989 q 488 989 488 989 q 493 996 493 991 q 490 1002 492 999 q 496 1002 493 1002 q 501 1002 498 1002 q 506 1011 508 1004 l 426 1137 q 421 1139 424 1139 m 487 1015 l 487 1015 l 435 1017 q 417 1018 426 1017 l 286 1120 l 366 1123 q 408 1125 387 1124 q 417 1125 412 1125 l 487 1015 z "},"Á":{"ha":748,"x_min":-26,"x_max":776,"o":"m 602 910 q 709 532 683 723 q 763 -15 776 13 l 718 -17 l 721 -43 q 361 -68 450 -64 q 391 217 360 -50 l 337 228 q 321 24 328 165 q 307 25 311 24 q 277 45 303 27 q 272 -7 275 -1 q 267 -9 268 -5 l 259 -1 l 151 48 q -26 100 77 79 q 214 889 -16 394 q 255 901 243 877 q 340 905 268 929 q 595 909 454 892 q 602 910 597 912 m 281 886 q 55 156 81 453 l 59 154 q 245 94 132 139 q 289 69 271 77 q 315 294 300 222 q 471 269 370 297 q 445 -5 470 227 q 732 12 726 15 q 616 804 715 396 q 587 878 610 806 q 281 886 345 858 m 383 705 l 387 703 q 479 416 459 558 l 476 408 q 321 424 376 437 q 340 570 308 430 q 383 705 351 627 m 363 525 q 356 457 350 460 q 379 455 372 458 l 383 463 q 363 525 369 522 m 444 1152 l 444 1152 l 441 1152 q 437 1150 439 1152 l 431 1139 q 430 1139 430 1139 q 418 1139 424 1139 q 409 1137 413 1141 l 329 1012 q 328 1010 328 1011 q 328 1008 328 1009 q 332 1003 329 1004 q 334 1002 334 1002 l 336 1002 q 337 1002 336 1002 q 411 1004 374 1003 q 424 1006 418 1004 l 438 1017 q 452 1019 445 1017 l 600 1135 q 595 1146 606 1143 q 587 1147 591 1147 q 520 1149 553 1148 l 444 1152 m 576 1133 l 576 1133 l 446 1031 q 382 1029 414 1030 q 376 1029 379 1029 l 446 1139 q 452 1139 449 1139 q 498 1137 475 1137 l 576 1133 z "},"Â":{"ha":748,"x_min":-26,"x_max":776,"o":"m 602 910 q 709 532 683 723 q 763 -15 776 13 l 718 -17 l 721 -43 q 361 -68 450 -64 q 391 217 360 -50 l 337 228 q 321 24 328 165 q 307 25 311 24 q 277 45 303 27 q 272 -7 275 -1 q 267 -9 268 -5 l 259 -1 l 151 48 q -26 100 77 79 q 214 889 -16 394 q 255 901 243 877 q 340 905 268 929 q 595 909 454 892 q 602 910 597 912 m 281 886 q 55 156 81 453 l 59 154 q 245 94 132 139 q 289 69 271 77 q 315 294 300 222 q 471 269 370 297 q 445 -5 470 227 q 732 12 726 15 q 616 804 715 396 q 587 878 610 806 q 281 886 345 858 m 383 705 l 387 703 q 479 416 459 558 l 476 408 q 321 424 376 437 q 340 570 308 430 q 383 705 351 627 m 363 525 q 356 457 350 460 q 379 455 372 458 l 383 463 q 363 525 369 522 m 429 1174 l 429 1174 l 427 1174 q 424 1172 425 1173 l 308 1059 q 308 1049 304 1054 q 309 1049 308 1049 l 309 1049 l 300 1040 q 299 1038 299 1040 q 299 1036 299 1037 q 302 1031 300 1033 l 362 982 q 370 982 366 980 q 419 1026 395 1004 q 420 1027 420 1027 l 446 996 q 456 995 450 991 q 529 1030 492 1013 q 533 1040 536 1034 q 530 1045 532 1042 q 538 1049 534 1046 q 540 1058 543 1053 l 434 1171 q 429 1174 432 1173 m 428 1157 l 428 1157 l 523 1057 l 460 1026 l 433 1059 q 424 1060 429 1063 l 373 1015 l 372 1015 l 323 1055 l 428 1157 z "},"Ã":{"ha":748,"x_min":-26,"x_max":776,"o":"m 602 910 q 709 532 683 723 q 763 -15 776 13 l 718 -17 l 721 -43 q 361 -68 450 -64 q 391 217 360 -50 l 337 228 q 321 24 328 165 q 307 25 311 24 q 277 45 303 27 q 272 -7 275 -1 q 267 -9 268 -5 l 259 -1 l 151 48 q -26 100 77 79 q 214 889 -16 394 q 255 901 243 877 q 340 905 268 929 q 595 909 454 892 q 602 910 597 912 m 281 886 q 55 156 81 453 l 59 154 q 245 94 132 139 q 289 69 271 77 q 315 294 300 222 q 471 269 370 297 q 445 -5 470 227 q 732 12 726 15 q 616 804 715 396 q 587 878 610 806 q 281 886 345 858 m 383 705 l 387 703 q 479 416 459 558 l 476 408 q 321 424 376 437 q 340 570 308 430 q 383 705 351 627 m 363 525 q 356 457 350 460 q 379 455 372 458 l 383 463 q 363 525 369 522 m 353 1162 l 353 1162 l 347 1162 q 281 1122 303 1158 q 276 1113 277 1118 q 276 1111 276 1112 l 277 1109 l 281 1099 q 276 1089 278 1095 l 276 1088 l 277 1085 l 314 1005 q 322 1002 317 1001 q 330 1010 326 1005 q 360 1032 343 1023 q 397 1038 378 1040 q 425 1027 412 1036 q 452 1013 438 1018 q 494 1013 473 1006 q 560 1060 535 1025 q 563 1066 562 1063 l 563 1067 l 562 1069 l 557 1079 q 562 1086 559 1083 q 563 1089 563 1088 l 563 1090 l 563 1093 q 527 1152 545 1122 q 517 1152 522 1156 q 510 1145 513 1149 q 482 1128 498 1134 q 450 1129 467 1122 q 423 1143 437 1136 q 359 1161 393 1156 l 353 1162 m 321 1044 l 321 1044 l 290 1112 q 326 1144 303 1134 q 365 1147 345 1151 q 404 1136 385 1143 q 424 1128 414 1132 q 463 1112 442 1116 q 520 1137 496 1112 l 548 1090 q 542 1082 545 1086 q 475 1046 515 1052 q 446 1054 458 1046 q 420 1069 433 1061 q 369 1073 393 1080 q 326 1047 345 1066 q 322 1044 323 1046 q 321 1044 322 1044 z "},"Ä":{"ha":748,"x_min":-26,"x_max":776,"o":"m 602 910 q 709 532 683 723 q 763 -15 776 13 l 718 -17 l 721 -43 q 361 -68 450 -64 q 391 217 360 -50 l 337 228 q 321 24 328 165 q 307 25 311 24 q 277 45 303 27 q 272 -7 275 -1 q 267 -9 268 -5 l 259 -1 l 151 48 q -26 100 77 79 q 214 889 -16 394 q 255 901 243 877 q 340 905 268 929 q 595 909 454 892 q 602 910 597 912 m 281 886 q 55 156 81 453 l 59 154 q 245 94 132 139 q 289 69 271 77 q 315 294 300 222 q 471 269 370 297 q 445 -5 470 227 q 732 12 726 15 q 616 804 715 396 q 587 878 610 806 q 281 886 345 858 m 383 705 l 387 703 q 479 416 459 558 l 476 408 q 321 424 376 437 q 340 570 308 430 q 383 705 351 627 m 363 525 q 356 457 350 460 q 379 455 372 458 l 383 463 q 363 525 369 522 m 353 1090 l 353 1090 l 347 1090 q 298 1061 315 1088 q 296 1058 297 1059 q 291 1051 294 1055 q 280 1019 281 1037 q 280 1013 280 1016 l 281 1007 q 334 956 290 964 l 339 955 l 343 955 l 349 956 q 391 981 375 960 q 395 987 393 984 q 398 990 397 989 q 407 1051 419 1020 q 360 1089 395 1082 l 353 1090 m 349 1076 l 349 1076 q 390 1056 376 1076 q 393 1009 404 1035 q 355 981 380 984 q 312 1000 330 979 q 307 1049 296 1025 q 349 1076 319 1074 m 501 1090 l 501 1090 l 495 1090 q 446 1061 463 1088 q 444 1058 445 1059 q 439 1051 441 1055 q 428 1019 429 1037 q 428 1013 428 1016 l 429 1007 q 481 956 437 964 l 487 955 l 491 955 l 497 956 q 538 981 523 960 q 543 987 541 984 q 546 990 545 989 q 555 1051 567 1020 q 508 1089 543 1082 l 501 1090 m 496 1076 l 496 1076 q 537 1056 524 1076 q 541 1009 551 1035 q 503 981 528 984 q 460 1000 478 979 q 455 1049 444 1025 q 496 1076 467 1074 z "},"Å":{"ha":748,"x_min":-26,"x_max":776,"o":"m 602 910 q 709 532 683 723 q 763 -15 776 13 l 718 -17 l 721 -43 q 361 -68 450 -64 q 391 217 360 -50 l 337 228 q 321 24 328 165 q 307 25 311 24 q 277 45 303 27 q 272 -7 275 -1 q 267 -9 268 -5 l 259 -1 l 151 48 q -26 100 77 79 q 214 889 -16 394 q 255 901 243 877 q 340 905 268 929 q 595 909 454 892 q 602 910 597 912 m 281 886 q 55 156 81 453 l 59 154 q 245 94 132 139 q 289 69 271 77 q 315 294 300 222 q 471 269 370 297 q 445 -5 470 227 q 732 12 726 15 q 616 804 715 396 q 587 878 610 806 q 281 886 345 858 m 383 705 l 387 703 q 479 416 459 558 l 476 408 q 321 424 376 437 q 340 570 308 430 q 383 705 351 627 m 363 525 q 356 457 350 460 q 379 455 372 458 l 383 463 q 363 525 369 522 m 429 1170 l 429 1170 l 422 1170 q 356 1131 380 1166 q 352 1125 354 1128 q 349 1121 351 1123 q 330 1072 332 1100 q 330 1065 330 1068 l 330 1059 q 390 988 339 1006 q 484 1024 449 975 q 487 1029 486 1027 q 492 1035 489 1032 q 494 1134 526 1084 q 437 1169 473 1164 l 429 1170 m 424 1156 l 424 1156 q 495 1096 483 1153 q 474 1036 498 1059 q 414 1017 450 1013 q 357 1074 368 1027 q 372 1130 353 1107 q 424 1156 391 1154 m 425 1115 l 425 1115 q 401 1099 408 1113 q 404 1069 394 1084 q 428 1058 414 1057 q 451 1072 442 1059 q 451 1101 459 1087 q 425 1115 443 1115 z "},"Æ":{"ha":969,"x_min":-31,"x_max":996,"o":"m 288 706 l 288 706 l 292 705 q 442 447 393 580 l 441 439 q 288 421 338 445 q 280 438 283 422 q 276 487 277 455 q 275 566 275 519 q 288 706 274 624 m 340 471 l 340 471 q 307 528 313 526 q 308 491 307 506 q 311 469 309 477 q 315 460 313 461 q 338 464 330 465 l 340 471 m 995 181 l 995 181 q 987 171 996 172 l 962 167 l 970 119 q 962 109 972 111 q 421 78 616 79 q 399 236 407 149 l 345 235 q 373 35 350 172 q 359 33 364 33 q 326 45 355 34 q 332 -5 334 1 q 203 22 203 22 q 119 32 165 29 q 22 34 74 35 q 86 847 -31 320 q 127 881 109 868 q 146 894 146 894 q 231 902 146 894 q 368 922 316 910 q 370 919 369 921 l 368 922 l 393 927 l 435 869 q 787 975 623 947 q 827 977 814 978 q 841 971 840 976 q 874 725 857 829 q 840 720 840 720 q 841 704 840 711 q 842 689 842 696 q 842 678 842 683 q 842 669 842 673 q 842 663 842 665 q 841 659 842 661 q 788 659 833 661 q 827 486 811 576 q 793 472 806 475 q 806 425 804 435 q 932 469 869 445 q 989 212 951 436 l 995 181 m 484 170 l 484 170 q 965 199 827 181 q 916 431 952 275 q 678 363 831 403 l 648 457 l 656 463 l 674 465 q 801 505 728 475 q 755 667 795 516 q 634 618 721 647 l 628 627 l 625 644 q 608 717 613 684 q 624 724 614 722 l 682 734 q 843 753 724 741 l 839 774 q 814 948 827 838 l 766 941 q 448 845 619 916 l 419 833 l 385 892 q 151 859 214 847 q 88 105 50 397 q 155 103 88 105 q 285 86 222 101 q 332 72 314 77 q 311 295 311 222 q 465 303 362 309 q 484 170 471 277 z "},"Ç":{"ha":558,"x_min":-35,"x_max":595,"o":"m 345 924 q 571 907 439 937 l 571 903 q 538 845 564 893 l 549 833 q 486 646 475 730 l 477 646 l 468 649 q 458 576 467 576 q 353 594 398 600 q 247 478 238 551 q 245 448 242 477 l 248 435 q 372 333 261 320 l 380 334 l 549 385 l 558 386 q 595 373 591 385 q 575 169 564 264 l 583 107 l 590 87 q 555 73 569 74 l 559 42 l 567 21 q 454 -16 528 -7 l 419 -20 q 30 233 174 -49 q -11 384 -1 302 l -14 402 q 92 791 -35 581 q 345 924 200 907 m 39 453 q 269 105 68 218 q 448 77 355 66 l 461 79 q 555 104 524 87 l 548 134 q 562 359 534 242 l 557 359 l 380 302 q 243 361 292 292 q 216 435 227 388 q 330 676 198 589 q 378 692 347 688 q 458 683 414 695 l 458 688 q 528 888 451 747 q 349 894 432 904 l 340 893 q 39 565 79 861 q 39 453 31 522 m 426 -132 l 426 -132 l 417 -132 q 368 -132 393 -132 q 344 -132 355 -132 q 332 -140 336 -134 q 326 -149 329 -144 q 323 -154 324 -151 q 319 -155 321 -155 q 307 -173 312 -163 q 293 -212 295 -191 q 310 -248 292 -233 l 311 -248 l 253 -290 q 250 -297 250 -293 q 250 -300 250 -299 l 235 -311 q 232 -317 233 -314 q 232 -320 232 -319 q 279 -372 244 -356 q 367 -390 321 -394 q 445 -349 414 -386 q 451 -340 448 -345 q 456 -336 453 -338 q 488 -267 482 -306 l 489 -258 l 489 -254 l 488 -248 q 442 -186 482 -205 q 432 -176 434 -184 q 432 -157 430 -167 q 434 -138 435 -147 q 426 -132 432 -132 m 413 -151 l 413 -151 q 412 -159 412 -155 q 416 -191 409 -176 q 441 -208 426 -203 q 464 -283 482 -236 q 387 -349 445 -340 q 330 -343 360 -352 q 281 -315 300 -335 q 271 -302 275 -309 l 313 -270 l 314 -270 q 357 -283 332 -286 q 386 -243 391 -277 q 361 -218 380 -224 q 345 -213 353 -216 q 333 -203 336 -210 q 334 -177 328 -191 q 347 -154 339 -163 q 349 -152 347 -153 q 413 -151 380 -152 m 347 -263 l 347 -263 q 326 -254 335 -262 q 345 -262 336 -256 q 347 -263 346 -262 z "},"È":{"ha":587,"x_min":-34,"x_max":629,"o":"m 418 816 q 473 811 472 821 q 506 565 488 669 q 503 559 502 564 l 480 560 l 472 558 q 473 496 476 503 q 420 496 465 498 q 458 321 443 412 q 424 307 437 309 q 437 259 435 269 q 565 303 502 279 q 623 43 584 271 l 629 13 q 621 2 629 3 l 595 -2 l 603 -50 q 596 -60 605 -58 q 79 -91 222 -98 l 77 -87 q 54 207 81 54 l 53 211 q -34 612 19 404 q 3 631 -8 629 l -5 680 q 418 816 222 781 m 25 663 q 109 279 76 467 q 130 -1 138 108 q 598 31 483 10 q 548 265 585 108 q 309 197 463 237 l 278 292 l 286 297 l 304 300 q 433 340 358 309 q 386 504 426 351 q 264 455 352 484 l 258 463 l 255 480 q 237 555 243 522 q 254 561 244 560 l 312 572 q 475 591 354 579 l 471 612 q 445 788 459 677 l 397 781 q 25 663 227 751 m 298 984 l 298 984 l 296 984 q 280 983 288 984 q 156 979 218 981 q 144 978 150 979 q 138 973 140 977 q 141 966 137 969 l 130 965 q 125 960 125 964 q 125 958 125 958 q 127 954 125 956 l 275 838 q 283 837 279 836 q 354 835 319 836 q 361 834 357 834 q 362 834 362 834 l 364 834 q 366 835 365 834 q 370 842 370 836 q 368 847 370 844 q 373 847 370 847 q 378 847 376 847 q 383 857 385 850 l 303 982 q 298 984 301 984 m 364 861 l 364 861 l 312 863 q 294 863 303 863 l 163 965 l 243 968 q 286 970 264 969 q 294 970 290 970 l 364 861 z "},"É":{"ha":587,"x_min":-34,"x_max":629,"o":"m 418 816 q 473 811 472 821 q 506 565 488 669 q 503 559 502 564 l 480 560 l 472 558 q 473 496 476 503 q 420 496 465 498 q 458 321 443 412 q 424 307 437 309 q 437 259 435 269 q 565 303 502 279 q 623 43 584 271 l 629 13 q 621 2 629 3 l 595 -2 l 603 -50 q 596 -60 605 -58 q 79 -91 222 -98 l 77 -87 q 54 207 81 54 l 53 211 q -34 612 19 404 q 3 631 -8 629 l -5 680 q 418 816 222 781 m 25 663 q 109 279 76 467 q 130 -1 138 108 q 598 31 483 10 q 548 265 585 108 q 309 197 463 237 l 278 292 l 286 297 l 304 300 q 433 340 358 309 q 386 504 426 351 q 264 455 352 484 l 258 463 l 255 480 q 237 555 243 522 q 254 561 244 560 l 312 572 q 475 591 354 579 l 471 612 q 445 788 459 677 l 397 781 q 25 663 227 751 m 321 998 l 321 998 l 319 998 q 315 996 317 998 l 308 984 q 307 985 307 985 q 296 985 301 985 q 286 983 290 986 l 206 857 q 205 855 205 857 q 205 854 205 854 q 210 848 206 850 q 212 848 211 848 l 214 848 q 214 848 214 848 q 288 850 251 848 q 301 851 295 850 l 315 863 q 329 864 322 863 l 477 980 q 473 991 483 989 q 465 992 469 992 q 397 995 431 994 l 321 998 m 454 979 l 454 979 l 323 877 q 259 875 291 876 q 254 874 256 875 l 323 984 q 330 984 326 984 q 375 982 352 983 l 454 979 z "},"Ê":{"ha":587,"x_min":-34,"x_max":629,"o":"m 418 816 q 473 811 472 821 q 506 565 488 669 q 503 559 502 564 l 480 560 l 472 558 q 473 496 476 503 q 420 496 465 498 q 458 321 443 412 q 424 307 437 309 q 437 259 435 269 q 565 303 502 279 q 623 43 584 271 l 629 13 q 621 2 629 3 l 595 -2 l 603 -50 q 596 -60 605 -58 q 79 -91 222 -98 l 77 -87 q 54 207 81 54 l 53 211 q -34 612 19 404 q 3 631 -8 629 l -5 680 q 418 816 222 781 m 25 663 q 109 279 76 467 q 130 -1 138 108 q 598 31 483 10 q 548 265 585 108 q 309 197 463 237 l 278 292 l 286 297 l 304 300 q 433 340 358 309 q 386 504 426 351 q 264 455 352 484 l 258 463 l 255 480 q 237 555 243 522 q 254 561 244 560 l 312 572 q 475 591 354 579 l 471 612 q 445 788 459 677 l 397 781 q 25 663 227 751 m 307 1019 l 307 1019 l 304 1019 q 301 1017 302 1019 l 185 905 q 185 895 181 899 q 186 895 185 895 l 186 895 l 177 886 q 176 884 176 885 q 176 882 176 882 q 180 876 177 878 l 239 827 q 247 827 243 825 q 296 871 272 849 q 298 873 297 872 l 323 841 q 333 840 328 837 q 406 876 370 858 q 410 885 413 879 q 407 890 409 888 q 416 895 411 892 q 417 903 420 899 l 311 1016 q 307 1019 309 1019 m 305 1002 l 305 1002 l 400 902 l 337 871 l 311 905 q 301 905 306 908 l 250 860 l 250 860 l 200 901 l 305 1002 z "},"Ë":{"ha":587,"x_min":-34,"x_max":629,"o":"m 418 816 q 473 811 472 821 q 506 565 488 669 q 503 559 502 564 l 480 560 l 472 558 q 473 496 476 503 q 420 496 465 498 q 458 321 443 412 q 424 307 437 309 q 437 259 435 269 q 565 303 502 279 q 623 43 584 271 l 629 13 q 621 2 629 3 l 595 -2 l 603 -50 q 596 -60 605 -58 q 79 -91 222 -98 l 77 -87 q 54 207 81 54 l 53 211 q -34 612 19 404 q 3 631 -8 629 l -5 680 q 418 816 222 781 m 25 663 q 109 279 76 467 q 130 -1 138 108 q 598 31 483 10 q 548 265 585 108 q 309 197 463 237 l 278 292 l 286 297 l 304 300 q 433 340 358 309 q 386 504 426 351 q 264 455 352 484 l 258 463 l 255 480 q 237 555 243 522 q 254 561 244 560 l 312 572 q 475 591 354 579 l 471 612 q 445 788 459 677 l 397 781 q 25 663 227 751 m 231 935 l 231 935 l 224 935 q 176 907 193 933 q 174 903 174 905 q 168 897 171 900 q 157 865 158 882 q 157 859 157 861 l 158 852 q 211 801 167 809 l 216 800 l 220 800 l 227 801 q 268 826 252 805 q 273 833 271 829 q 275 836 274 834 q 284 896 296 865 q 237 935 273 927 l 231 935 m 226 922 l 226 922 q 267 901 253 922 q 271 854 281 880 q 233 827 258 829 q 189 846 208 824 q 184 895 173 871 q 226 922 196 919 m 378 935 l 378 935 l 372 935 q 323 907 340 933 q 321 903 322 905 q 316 897 319 900 q 305 865 306 882 q 305 859 305 861 l 306 852 q 359 801 315 809 l 364 800 l 368 800 l 374 801 q 416 826 400 805 q 420 833 418 829 q 423 836 422 834 q 432 896 444 865 q 385 935 420 927 l 378 935 m 374 922 l 374 922 q 415 901 401 922 q 418 854 429 880 q 380 827 406 829 q 337 846 355 824 q 332 895 321 871 q 374 922 344 919 z "},"Ì":{"ha":355,"x_min":-13,"x_max":355,"o":"m 13 805 q 330 851 309 846 l 332 847 q 355 94 318 638 q 334 57 325 87 l 326 50 q 105 16 111 -6 q 88 62 93 43 l 85 75 q -13 762 34 269 q 7 789 13 768 q 13 805 4 802 m 37 779 q 135 111 92 277 q 149 78 149 81 l 328 116 q 304 817 290 623 l 37 779 m 172 1017 l 172 1017 l 170 1017 q 154 1017 162 1017 q 30 1012 92 1015 q 18 1011 24 1012 q 12 1006 14 1010 q 15 999 11 1002 l 4 998 q -1 993 -1 998 q -1 991 -1 991 q 1 987 -1 989 l 149 871 q 157 870 153 869 q 228 868 193 869 q 235 867 231 867 q 236 867 236 867 l 238 867 q 239 868 239 867 q 244 875 244 869 q 241 880 243 878 q 247 880 244 880 q 252 880 250 880 q 257 890 259 883 l 177 1015 q 172 1017 175 1017 m 238 894 l 238 894 l 186 896 q 168 897 177 896 l 37 998 l 117 1002 q 159 1004 138 1002 q 168 1004 163 1004 l 238 894 z "},"Í":{"ha":355,"x_min":-13,"x_max":357,"o":"m 13 805 q 330 851 309 846 l 332 847 q 355 94 318 638 q 334 57 325 87 l 326 50 q 105 16 111 -6 q 88 62 93 43 l 85 75 q -13 762 34 269 q 7 789 13 768 q 13 805 4 802 m 37 779 q 135 111 92 277 q 149 78 149 81 l 328 116 q 304 817 290 623 l 37 779 m 195 1031 l 195 1031 l 193 1031 q 189 1029 191 1031 l 182 1017 q 181 1018 181 1018 q 170 1018 175 1018 q 160 1016 164 1019 l 80 890 q 79 888 79 890 q 79 887 79 888 q 83 882 80 883 q 85 881 85 881 l 87 881 q 88 881 87 881 q 162 883 125 882 q 175 884 169 883 l 189 896 q 203 897 196 896 l 351 1013 q 347 1025 357 1022 q 338 1025 342 1025 q 271 1028 304 1027 l 195 1031 m 328 1012 l 328 1012 l 197 910 q 133 908 165 909 q 127 907 130 908 l 197 1017 q 203 1017 200 1017 q 249 1015 226 1016 l 328 1012 z "},"Î":{"ha":355,"x_min":-13,"x_max":355,"o":"m 13 805 q 330 851 309 846 l 332 847 q 355 94 318 638 q 334 57 325 87 l 326 50 q 105 16 111 -6 q 88 62 93 43 l 85 75 q -13 762 34 269 q 7 789 13 768 q 13 805 4 802 m 37 779 q 135 111 92 277 q 149 78 149 81 l 328 116 q 304 817 290 623 l 37 779 m 180 1053 l 180 1053 l 178 1053 q 175 1050 176 1052 l 59 938 q 59 928 55 932 q 60 928 59 928 l 60 928 l 51 919 q 50 917 50 918 q 50 915 50 916 q 54 909 51 911 l 113 861 q 121 861 117 859 q 170 905 146 882 q 172 906 171 905 l 197 874 q 207 873 201 870 q 280 909 243 891 q 284 918 287 912 q 281 924 283 921 q 290 928 285 925 q 291 937 294 932 l 185 1049 q 180 1053 183 1052 m 179 1036 l 179 1036 l 274 935 l 211 905 l 184 938 q 175 939 180 941 l 124 893 l 123 893 l 74 934 l 179 1036 z "},"Ï":{"ha":355,"x_min":-13,"x_max":355,"o":"m 13 805 q 330 851 309 846 l 332 847 q 355 94 318 638 q 334 57 325 87 l 326 50 q 105 16 111 -6 q 88 62 93 43 l 85 75 q -13 762 34 269 q 7 789 13 768 q 13 805 4 802 m 37 779 q 135 111 92 277 q 149 78 149 81 l 328 116 q 304 817 290 623 l 37 779 m 104 968 l 104 968 l 98 968 q 50 940 66 966 q 47 937 48 938 q 42 930 45 933 q 31 898 32 916 q 31 892 31 895 l 32 886 q 85 834 41 842 l 90 833 l 94 833 l 100 834 q 142 859 126 838 q 146 866 144 863 q 149 869 148 867 q 158 929 170 899 q 111 968 146 960 l 104 968 m 100 955 l 100 955 q 141 934 127 955 q 144 888 155 913 q 106 860 132 863 q 63 879 81 857 q 58 928 47 904 q 100 955 70 952 m 252 968 l 252 968 l 246 968 q 197 940 214 966 q 195 937 196 938 q 190 930 193 933 q 179 898 180 916 q 179 892 179 895 l 180 886 q 233 834 189 842 l 238 833 l 242 833 l 248 834 q 290 859 274 838 q 294 866 292 863 q 297 869 296 867 q 306 929 318 899 q 259 968 294 960 l 252 968 m 248 955 l 248 955 q 289 934 275 955 q 292 888 302 913 q 254 860 279 863 q 211 879 229 857 q 206 928 195 904 q 248 955 218 952 z "},"Ð":{"ha":858,"x_min":-35,"x_max":878,"o":"m 397 798 l 397 798 q 589 587 534 798 q 593 532 593 569 q 505 380 593 425 q 446 370 471 370 l 427 370 q 382 419 382 370 q 378 489 382 428 l 472 489 l 460 633 l 362 633 l 362 646 q 349 783 356 707 q 397 798 360 793 m 391 658 l 391 658 l 465 658 q 387 709 434 689 l 387 705 q 391 658 389 680 m 530 479 l 530 479 l 530 488 q 484 637 530 578 l 498 465 l 471 465 l 469 425 l 411 425 q 412 410 412 414 q 437 400 428 400 q 530 479 530 400 m 839 753 l 839 753 q 878 587 878 673 l 878 537 q 593 56 878 292 q 323 -18 486 -18 q 107 -7 302 -18 q 98 12 98 5 q 66 400 98 94 l -13 400 l -35 584 l 6 584 l -1 629 l 41 629 q -1 979 22 785 l 14 989 l 39 989 l 34 1023 l 34 1028 q 64 1042 41 1036 q 126 1050 87 1047 q 220 1053 165 1053 l 284 1053 q 839 753 684 1053 m 848 542 l 848 542 l 848 582 q 505 989 848 866 q 250 1023 387 1023 q 171 1020 205 1022 q 114 1016 136 1019 q 80 1010 91 1013 q 68 1004 68 1007 q 112 630 94 793 l 113 630 l 113 605 l 28 604 l 52 452 l 132 454 l 132 442 q 161 81 161 160 l 172 76 q 368 66 340 66 q 829 419 686 66 q 848 542 848 487 z "},"Ñ":{"ha":663,"x_min":-24,"x_max":661,"o":"m 655 311 q 654 301 654 304 q 652 292 653 297 q 655 309 654 301 l 656 313 l 655 311 m 247 730 q 345 544 286 673 l 349 544 l 349 553 q 340 628 340 623 q 362 633 348 633 l 362 637 l 358 659 q 620 690 389 671 q 661 473 661 651 l 661 428 q 651 10 661 345 q 629 -17 646 -17 l 629 -39 q 371 -70 629 -55 l 327 64 l 322 64 q 331 10 331 28 q 309 -7 309 5 q 313 -21 313 -17 q 96 -52 313 -33 q -24 548 66 -52 l -24 566 q -2 574 -9 574 l -7 583 l -7 593 q 247 730 9 610 m 20 574 q 122 10 69 211 q 304 28 142 10 q 260 326 260 268 l 260 330 l 269 330 q 402 -12 384 73 l 625 10 q 633 370 633 176 l 633 495 q 611 659 630 659 q 385 642 576 659 l 385 637 q 420 344 411 448 l 411 344 q 247 694 337 524 l 237 694 q 20 574 33 591 m 252 920 l 252 920 l 245 920 q 179 880 201 916 q 174 871 176 876 q 174 869 174 870 l 175 867 l 180 857 q 174 847 176 852 l 174 846 l 175 843 l 212 763 q 220 760 215 759 q 229 768 224 763 q 259 790 241 781 q 295 796 276 798 q 323 785 311 793 q 351 770 336 776 q 392 770 372 764 q 458 818 433 783 q 461 824 460 821 l 461 825 l 460 827 l 455 837 q 460 844 458 841 q 461 847 461 846 l 461 848 l 461 850 q 425 909 444 880 q 415 910 420 914 q 408 903 412 907 q 380 886 396 892 q 349 887 365 880 q 321 901 335 894 q 257 919 291 914 l 252 920 m 220 802 l 220 802 l 189 869 q 224 902 201 892 q 263 905 243 909 q 302 894 283 901 q 322 886 312 890 q 361 870 340 873 q 418 895 395 870 l 446 848 q 440 840 444 844 q 373 804 414 810 q 344 811 357 804 q 318 827 332 819 q 268 831 292 838 q 224 805 243 824 q 220 802 222 804 q 220 802 220 802 z "},"Ò":{"ha":749,"x_min":-28,"x_max":777,"o":"m 386 728 q 755 437 650 728 q 777 307 777 355 q 648 2 777 159 q 404 -101 524 -101 l 368 -101 q -1 180 122 -101 q -28 303 -28 241 l -28 347 q 96 616 -18 479 q 386 728 231 728 m 21 374 q 217 31 21 176 q 399 -20 300 -20 l 421 -20 q 723 181 614 -20 q 745 295 745 243 l 745 314 q 559 654 745 523 q 404 697 475 697 l 363 697 q 52 512 176 697 q 21 374 21 436 m 345 488 q 501 347 435 488 l 505 306 q 381 197 505 221 l 372 197 q 248 347 266 197 l 248 375 q 345 488 261 488 m 275 383 l 275 371 q 355 227 275 250 q 376 222 369 227 q 452 254 414 222 l 452 258 q 350 399 452 340 q 332 404 342 404 l 315 404 q 275 383 275 395 m 388 894 l 388 894 l 385 894 q 370 893 378 894 q 245 888 308 891 q 234 888 239 888 q 228 883 229 887 q 231 876 227 879 l 220 875 q 214 869 215 874 q 214 867 214 868 q 216 863 214 865 l 365 747 q 373 747 369 746 q 444 745 408 745 q 451 744 447 744 q 452 744 452 744 l 454 744 q 455 745 454 744 q 460 751 460 746 q 457 757 459 754 q 463 757 460 757 q 468 757 465 757 q 473 766 475 760 l 393 892 q 388 894 391 894 m 454 770 l 454 770 l 401 772 q 384 773 393 772 l 253 875 l 332 878 q 375 880 353 879 q 384 880 379 880 l 454 770 z "},"Ó":{"ha":749,"x_min":-28,"x_max":777,"o":"m 386 728 q 755 437 650 728 q 777 307 777 355 q 648 2 777 159 q 404 -101 524 -101 l 368 -101 q -1 180 122 -101 q -28 303 -28 241 l -28 347 q 96 616 -18 479 q 386 728 231 728 m 21 374 q 217 31 21 176 q 399 -20 300 -20 l 421 -20 q 723 181 614 -20 q 745 295 745 243 l 745 314 q 559 654 745 523 q 404 697 475 697 l 363 697 q 52 512 176 697 q 21 374 21 436 m 345 488 q 501 347 435 488 l 505 306 q 381 197 505 221 l 372 197 q 248 347 266 197 l 248 375 q 345 488 261 488 m 275 383 l 275 371 q 355 227 275 250 q 376 222 369 227 q 452 254 414 222 l 452 258 q 350 399 452 340 q 332 404 342 404 l 315 404 q 275 383 275 395 m 411 907 l 411 907 l 408 907 q 404 905 406 907 l 397 894 q 397 895 397 895 q 385 895 391 895 q 376 892 380 896 l 296 767 q 295 765 295 766 q 295 764 295 764 q 299 758 296 760 q 301 758 300 758 l 303 758 q 304 758 303 758 q 378 760 340 758 q 391 761 385 760 l 405 772 q 418 774 412 772 l 567 890 q 562 901 572 899 q 554 902 558 902 q 487 905 520 903 l 411 907 m 543 888 l 543 888 l 413 787 q 349 785 380 785 q 343 784 346 785 l 413 894 q 419 894 416 894 q 465 892 441 892 l 543 888 z "},"Ô":{"ha":749,"x_min":-28,"x_max":777,"o":"m 386 728 q 755 437 650 728 q 777 307 777 355 q 648 2 777 159 q 404 -101 524 -101 l 368 -101 q -1 180 122 -101 q -28 303 -28 241 l -28 347 q 96 616 -18 479 q 386 728 231 728 m 21 374 q 217 31 21 176 q 399 -20 300 -20 l 421 -20 q 723 181 614 -20 q 745 295 745 243 l 745 314 q 559 654 745 523 q 404 697 475 697 l 363 697 q 52 512 176 697 q 21 374 21 436 m 345 488 q 501 347 435 488 l 505 306 q 381 197 505 221 l 372 197 q 248 347 266 197 l 248 375 q 345 488 261 488 m 275 383 l 275 371 q 355 227 275 250 q 376 222 369 227 q 452 254 414 222 l 452 258 q 350 399 452 340 q 332 404 342 404 l 315 404 q 275 383 275 395 m 396 929 l 396 929 l 394 929 q 391 927 392 928 l 275 814 q 275 804 271 809 q 275 804 275 804 l 275 804 l 267 795 q 266 793 266 795 q 266 791 266 792 q 269 786 267 788 l 329 737 q 336 737 333 735 q 386 781 361 759 q 387 783 387 782 l 413 751 q 422 750 417 747 q 496 785 459 768 q 500 795 503 789 q 496 800 498 798 q 505 804 500 802 q 507 813 509 808 l 401 926 q 396 929 399 928 m 395 912 l 395 912 l 490 812 l 427 781 l 400 814 q 391 815 395 818 l 340 770 l 339 770 l 290 810 l 395 912 z "},"Õ":{"ha":749,"x_min":-28,"x_max":777,"o":"m 386 728 q 755 437 650 728 q 777 307 777 355 q 648 2 777 159 q 404 -101 524 -101 l 368 -101 q -1 180 122 -101 q -28 303 -28 241 l -28 347 q 96 616 -18 479 q 386 728 231 728 m 21 374 q 217 31 21 176 q 399 -20 300 -20 l 421 -20 q 723 181 614 -20 q 745 295 745 243 l 745 314 q 559 654 745 523 q 404 697 475 697 l 363 697 q 52 512 176 697 q 21 374 21 436 m 345 488 q 501 347 435 488 l 505 306 q 381 197 505 221 l 372 197 q 248 347 266 197 l 248 375 q 345 488 261 488 m 275 383 l 275 371 q 355 227 275 250 q 376 222 369 227 q 452 254 414 222 l 452 258 q 350 399 452 340 q 332 404 342 404 l 315 404 q 275 383 275 395 m 320 917 l 320 917 l 313 917 q 248 877 270 913 q 243 868 244 873 q 243 866 243 867 l 243 864 l 248 854 q 243 844 245 850 l 243 843 l 243 840 l 281 760 q 289 758 283 756 q 297 765 293 760 q 327 787 310 779 q 363 793 345 795 q 392 782 379 791 q 419 768 405 773 q 460 768 440 762 q 527 815 502 780 q 530 821 529 818 l 530 823 l 529 825 l 524 834 q 529 842 526 838 q 530 844 530 843 l 530 846 l 530 848 q 494 907 512 878 q 484 907 489 911 q 477 901 480 904 q 449 883 465 889 q 417 884 433 878 q 390 898 404 891 q 326 916 359 911 l 320 917 m 288 799 l 288 799 l 257 867 q 293 899 270 889 q 332 902 312 906 q 370 891 352 898 q 391 883 380 887 q 430 867 409 871 q 487 892 463 867 l 515 846 q 509 838 512 842 q 441 802 482 807 q 413 809 425 801 q 387 824 400 817 q 336 828 360 836 q 292 802 312 821 q 289 800 290 801 q 288 799 289 799 z "},"Ö":{"ha":749,"x_min":-28,"x_max":777,"o":"m 386 728 q 755 437 650 728 q 777 307 777 355 q 648 2 777 159 q 404 -101 524 -101 l 368 -101 q -1 180 122 -101 q -28 303 -28 241 l -28 347 q 96 616 -18 479 q 386 728 231 728 m 21 374 q 217 31 21 176 q 399 -20 300 -20 l 421 -20 q 723 181 614 -20 q 745 295 745 243 l 745 314 q 559 654 745 523 q 404 697 475 697 l 363 697 q 52 512 176 697 q 21 374 21 436 m 345 488 q 501 347 435 488 l 505 306 q 381 197 505 221 l 372 197 q 248 347 266 197 l 248 375 q 345 488 261 488 m 275 383 l 275 371 q 355 227 275 250 q 376 222 369 227 q 452 254 414 222 l 452 258 q 350 399 452 340 q 332 404 342 404 l 315 404 q 275 383 275 395 m 320 845 l 320 845 l 314 845 q 265 817 282 843 q 263 813 264 814 q 258 806 260 810 q 247 774 248 792 q 247 768 247 771 l 248 762 q 300 711 256 719 l 306 710 l 310 710 l 316 711 q 357 736 342 715 q 362 743 360 739 q 365 745 363 744 q 374 806 386 775 q 327 844 362 837 l 320 845 m 315 831 l 315 831 q 356 811 342 831 q 360 764 370 790 q 322 736 347 739 q 279 755 297 734 q 274 805 262 781 q 315 831 286 829 m 468 845 l 468 845 l 462 845 q 413 817 430 843 q 411 813 412 814 q 406 806 408 810 q 395 774 395 792 q 395 768 395 771 l 395 762 q 448 711 404 719 l 454 710 l 458 710 l 464 711 q 505 736 490 715 q 510 743 508 739 q 513 745 511 744 q 522 806 534 775 q 475 844 510 837 l 468 845 m 463 831 l 463 831 q 504 811 490 831 q 508 764 518 790 q 470 736 495 739 q 427 755 445 734 q 422 805 410 781 q 463 831 433 829 z "},"×":{"ha":720,"x_min":81,"x_max":644,"o":"m 524 743 l 524 743 l 438 743 l 437 742 q 416 734 423 745 q 411 715 414 723 q 394 716 404 715 q 379 709 385 716 q 368 676 373 693 q 368 679 368 676 q 353 732 360 705 q 344 740 349 739 q 333 740 339 741 q 158 733 245 739 q 132 732 145 733 q 121 715 119 730 q 124 707 123 710 q 107 706 115 707 q 87 703 96 707 q 81 694 83 700 l 81 690 l 161 500 l 81 298 l 81 294 q 83 288 83 291 q 94 282 87 282 q 107 281 101 281 q 287 274 197 276 q 308 275 298 272 q 315 286 313 278 q 319 300 317 294 l 342 300 q 353 309 350 301 q 361 338 357 323 l 378 279 q 389 271 381 272 q 579 273 484 270 q 601 279 591 271 q 601 300 605 290 q 610 300 605 300 q 634 302 623 299 q 642 314 642 306 q 638 330 641 322 q 618 373 629 352 q 538 527 580 451 q 618 669 579 597 q 635 705 627 686 q 642 723 640 713 q 635 739 644 733 q 614 740 625 741 q 526 742 570 742 q 524 743 524 741 m 612 713 l 612 713 q 555 608 585 659 q 512 530 533 569 l 513 524 q 585 385 549 454 q 612 327 600 357 q 589 326 601 327 q 541 325 565 326 q 437 325 489 325 q 425 366 431 345 q 391 475 408 420 q 370 473 379 488 l 332 327 l 151 334 l 225 523 q 225 530 227 526 l 152 706 l 332 713 l 370 578 q 391 575 379 563 q 413 641 402 608 q 437 715 425 678 q 534 715 485 715 q 587 713 560 715 q 612 713 600 713 z "},"Ø":{"ha":956,"x_min":-20,"x_max":995,"o":"m 866 1060 l 866 1060 l 859 1060 l 851 1055 l 817 1009 q 804 1004 810 1008 l 730 905 q 569 964 655 949 q 384 955 475 978 q 216 876 293 931 q 98 764 152 826 q 12 635 44 705 q -20 485 -20 565 q 27 275 -18 369 q 140 119 72 180 l 77 35 q 79 16 71 24 q 129 -73 103 -29 l 135 -77 l 142 -77 q 149 -71 146 -75 q 180 -30 165 -52 q 199 -26 191 -33 q 222 5 211 -13 q 245 36 233 22 q 248 38 246 37 q 413 -27 326 -7 q 589 -33 500 -47 q 791 68 705 -12 q 833 109 812 89 q 962 325 930 199 q 967 580 995 452 q 852 806 939 709 q 836 823 842 816 q 836 825 835 825 l 928 949 q 928 963 931 956 q 902 1007 914 983 q 877 1051 890 1031 q 866 1060 873 1057 m 861 1014 l 861 1014 l 893 956 l 800 831 q 801 811 793 821 q 808 805 804 808 q 905 669 869 747 q 947 460 947 570 q 902 254 947 351 q 763 96 857 157 q 539 40 656 31 q 317 110 422 50 q 288 127 302 120 q 270 123 277 130 l 189 16 l 157 75 l 219 159 q 220 180 226 170 q 66 447 97 287 q 95 683 45 576 q 242 856 146 789 q 457 935 339 922 q 691 890 576 947 q 734 865 713 876 q 753 869 745 861 l 861 1014 m 637 608 l 637 608 q 629 604 633 607 l 439 349 q 446 330 437 337 q 464 319 454 323 q 577 295 518 290 q 675 351 636 299 q 703 466 709 403 q 667 582 698 530 q 656 601 663 591 q 637 608 649 610 m 612 338 l 612 338 q 545 327 580 323 q 479 349 509 332 l 597 507 q 606 492 603 502 q 625 415 622 456 q 612 338 628 374 m 486 688 l 486 688 q 419 663 449 685 q 371 608 389 640 q 363 432 326 522 q 376 406 367 419 q 399 401 385 393 l 584 645 q 582 666 591 659 q 562 677 574 673 q 486 688 526 692 m 500 601 l 500 601 l 390 452 q 391 577 366 515 q 402 599 396 589 q 418 606 409 602 q 500 601 460 618 z "},"Ù":{"ha":794,"x_min":-10,"x_max":794,"o":"m 701 870 q 794 306 794 610 l 794 288 q 568 -68 794 113 q 376 -121 473 -121 q 75 87 211 -121 q -10 643 -10 333 l -1 648 l 35 648 q 30 736 30 707 l 30 764 q 39 772 31 772 l 132 772 q 306 781 211 772 q 310 777 306 777 q 288 496 288 602 l 288 470 q 399 243 288 243 l 434 243 q 483 319 483 243 q 488 350 488 336 q 399 701 488 477 q 452 719 412 710 l 425 794 q 701 870 572 830 m 456 777 q 550 412 550 530 l 550 368 q 470 221 550 268 q 421 212 430 216 q 261 492 261 212 q 283 750 270 677 q 141 745 188 745 l 56 745 l 56 719 q 199 61 56 202 q 421 -45 307 -45 q 754 208 641 -45 q 772 306 772 273 q 692 839 772 555 q 456 777 592 803 m 393 1036 l 393 1036 l 391 1036 q 375 1036 383 1036 q 251 1031 313 1034 q 239 1030 245 1031 q 233 1025 235 1029 q 236 1018 232 1021 l 225 1017 q 220 1012 220 1017 q 220 1010 220 1010 q 222 1006 220 1008 l 370 890 q 378 889 374 888 q 449 887 414 888 q 456 886 452 886 q 457 886 457 886 l 459 886 q 460 887 460 886 q 465 894 465 888 q 463 899 465 897 q 468 899 465 899 q 473 899 471 899 q 478 909 480 902 l 398 1034 q 393 1036 396 1036 m 459 913 l 459 913 l 407 915 q 389 916 398 915 l 258 1017 l 338 1021 q 380 1023 359 1021 q 389 1023 385 1023 l 459 913 z "},"Ú":{"ha":794,"x_min":-10,"x_max":794,"o":"m 701 870 q 794 306 794 610 l 794 288 q 568 -68 794 113 q 376 -121 473 -121 q 75 87 211 -121 q -10 643 -10 333 l -1 648 l 35 648 q 30 736 30 707 l 30 764 q 39 772 31 772 l 132 772 q 306 781 211 772 q 310 777 306 777 q 288 496 288 602 l 288 470 q 399 243 288 243 l 434 243 q 483 319 483 243 q 488 350 488 336 q 399 701 488 477 q 452 719 412 710 l 425 794 q 701 870 572 830 m 456 777 q 550 412 550 530 l 550 368 q 470 221 550 268 q 421 212 430 216 q 261 492 261 212 q 283 750 270 677 q 141 745 188 745 l 56 745 l 56 719 q 199 61 56 202 q 421 -45 307 -45 q 754 208 641 -45 q 772 306 772 273 q 692 839 772 555 q 456 777 592 803 m 416 1050 l 416 1050 l 414 1050 q 410 1048 412 1050 l 403 1036 q 402 1037 402 1037 q 391 1037 396 1037 q 381 1035 385 1038 l 301 909 q 300 907 300 909 q 300 906 300 907 q 304 901 301 902 q 307 900 306 900 l 309 900 q 309 900 309 900 q 383 902 346 901 q 396 903 390 902 l 410 915 q 424 916 417 915 l 572 1032 q 568 1044 578 1041 q 559 1044 564 1044 q 492 1047 526 1046 l 416 1050 m 549 1031 l 549 1031 l 418 929 q 354 927 386 928 q 349 926 351 927 l 418 1036 q 425 1036 421 1036 q 470 1034 447 1035 l 549 1031 z "},"Û":{"ha":794,"x_min":-10,"x_max":794,"o":"m 701 870 q 794 306 794 610 l 794 288 q 568 -68 794 113 q 376 -121 473 -121 q 75 87 211 -121 q -10 643 -10 333 l -1 648 l 35 648 q 30 736 30 707 l 30 764 q 39 772 31 772 l 132 772 q 306 781 211 772 q 310 777 306 777 q 288 496 288 602 l 288 470 q 399 243 288 243 l 434 243 q 483 319 483 243 q 488 350 488 336 q 399 701 488 477 q 452 719 412 710 l 425 794 q 701 870 572 830 m 456 777 q 550 412 550 530 l 550 368 q 470 221 550 268 q 421 212 430 216 q 261 492 261 212 q 283 750 270 677 q 141 745 188 745 l 56 745 l 56 719 q 199 61 56 202 q 421 -45 307 -45 q 754 208 641 -45 q 772 306 772 273 q 692 839 772 555 q 456 777 592 803 m 401 1072 l 401 1072 l 399 1072 q 396 1069 397 1071 l 280 957 q 280 947 276 951 q 281 947 280 947 l 281 947 l 272 938 q 271 936 271 937 q 271 934 271 935 q 275 928 272 930 l 334 880 q 342 880 338 878 q 391 924 367 901 q 393 925 392 924 l 418 893 q 428 892 422 889 q 501 928 465 910 q 505 937 508 931 q 502 943 504 940 q 511 947 506 944 q 512 956 515 951 l 406 1068 q 401 1072 404 1071 m 400 1055 l 400 1055 l 495 954 l 432 924 l 406 957 q 396 958 401 960 l 345 912 l 345 912 l 295 953 l 400 1055 z "},"Ü":{"ha":794,"x_min":-10,"x_max":794,"o":"m 701 870 q 794 306 794 610 l 794 288 q 568 -68 794 113 q 376 -121 473 -121 q 75 87 211 -121 q -10 643 -10 333 l -1 648 l 35 648 q 30 736 30 707 l 30 764 q 39 772 31 772 l 132 772 q 306 781 211 772 q 310 777 306 777 q 288 496 288 602 l 288 470 q 399 243 288 243 l 434 243 q 483 319 483 243 q 488 350 488 336 q 399 701 488 477 q 452 719 412 710 l 425 794 q 701 870 572 830 m 456 777 q 550 412 550 530 l 550 368 q 470 221 550 268 q 421 212 430 216 q 261 492 261 212 q 283 750 270 677 q 141 745 188 745 l 56 745 l 56 719 q 199 61 56 202 q 421 -45 307 -45 q 754 208 641 -45 q 772 306 772 273 q 692 839 772 555 q 456 777 592 803 m 326 987 l 326 987 l 319 987 q 271 959 288 985 q 269 956 269 957 q 263 949 266 952 q 252 917 253 935 q 252 911 252 913 l 253 905 q 306 853 262 861 l 311 852 l 315 852 l 321 853 q 363 878 347 857 q 368 885 366 882 q 370 888 369 886 q 379 948 391 918 q 332 987 368 979 l 326 987 m 321 974 l 321 974 q 362 953 348 974 q 366 907 376 932 q 328 879 353 882 q 284 898 302 876 q 279 947 268 923 q 321 974 291 971 m 473 987 l 473 987 l 467 987 q 418 959 435 985 q 416 956 417 957 q 411 949 414 952 q 400 917 401 935 q 400 911 400 913 l 401 905 q 454 853 410 861 l 459 852 l 463 852 l 469 853 q 511 878 495 857 q 515 885 513 882 q 518 888 517 886 q 527 948 539 918 q 480 987 515 979 l 473 987 m 469 974 l 469 974 q 510 953 496 974 q 513 907 524 932 q 475 879 500 882 q 432 898 450 876 q 427 947 416 923 q 469 974 439 971 z "},"Ý":{"ha":637,"x_min":-41,"x_max":684,"o":"m 684 775 l 683 770 q 456 105 492 100 q 293 -111 329 -117 l 5 -52 q 2 -46 6 -47 l 175 203 l -41 701 l -40 705 l -1 725 q -15 749 -7 726 l 265 832 q 329 596 309 688 l 333 596 q 375 710 353 713 q 437 753 390 762 q 684 775 440 757 m 341 455 l 332 456 q 250 795 302 598 q 23 734 242 796 l 237 247 q 79 13 220 215 l 84 12 l 328 -39 q 525 351 496 179 q 648 745 531 354 q 413 722 435 727 q 341 455 345 479 m 346 1012 l 346 1012 l 343 1012 q 339 1010 341 1012 l 332 998 q 332 999 332 999 q 320 999 326 999 q 311 997 315 1000 l 231 871 q 230 869 230 871 q 230 868 230 869 q 234 863 231 864 q 236 862 235 862 l 238 862 q 239 862 238 862 q 313 864 275 863 q 326 865 319 864 l 340 877 q 353 878 347 877 l 502 994 q 497 1006 507 1003 q 489 1006 493 1006 q 422 1009 455 1008 l 346 1012 m 478 993 l 478 993 l 348 891 q 283 889 315 890 q 278 888 281 889 l 348 998 q 354 998 351 998 q 399 996 376 997 l 478 993 z "},"Þ":{"ha":724,"x_min":-17,"x_max":764,"o":"m 755 636 l 755 636 q 764 569 764 600 l 764 540 q 654 262 764 415 q 361 161 539 161 q 380 -79 380 -40 l 352 -79 l 357 -127 l 357 -142 l 352 -142 q 44 -109 131 -109 q 39 -103 44 -103 q 54 60 54 -14 q 30 456 54 151 q -17 1000 6 760 q 9 1004 9 1004 q 7 1017 9 1004 q 5 1044 6 1030 q 6 1057 5 1057 l 313 1057 q 326 1045 323 1057 l 330 832 q 366 833 349 833 l 418 833 q 755 636 680 833 m 721 449 l 721 449 q 741 569 741 525 q 695 693 741 634 q 578 783 650 751 q 424 804 506 815 l 376 804 q 326 803 351 804 q 318 800 322 800 q 305 812 307 801 l 301 1033 l 25 1033 q 64 642 33 965 q 102 195 96 319 q 109 -17 109 77 q 109 -18 109 -18 q 357 -50 269 -32 q 332 252 332 161 q 347 257 342 257 q 385 252 367 257 q 721 449 638 252 m 370 617 l 370 617 q 440 603 412 613 q 482 575 468 592 q 496 536 496 559 l 496 531 q 357 415 496 437 l 337 415 q 328 430 328 415 q 313 608 328 473 q 370 617 321 612 m 357 444 l 357 444 q 443 488 413 444 q 347 526 443 515 q 352 454 352 478 l 352 444 l 357 444 z "},"ß":{"ha":585,"x_min":7,"x_max":618,"o":"m 535 572 l 535 572 q 616 374 618 517 q 593 244 615 298 q 538 155 570 191 q 473 100 505 120 q 417 72 440 80 q 395 64 395 64 l 326 294 l 345 346 q 347 347 346 347 q 371 372 361 357 q 378 406 382 387 q 338 432 368 435 q 327 433 332 433 q 318 432 321 433 q 315 431 315 431 l 300 576 q 308 591 300 576 q 320 623 317 606 q 309 650 323 640 q 283 658 297 659 q 264 640 270 653 q 262 637 263 639 l 262 637 l 262 635 q 262 625 261 629 l 321 119 q 317 96 321 119 q 315 54 314 72 q 87 22 205 20 l 52 23 q 18 52 29 23 q 18 345 20 182 q 8 623 16 509 q 16 669 7 635 q 37 739 24 703 q 66 791 50 775 q 169 853 112 832 q 271 881 227 873 q 323 887 315 888 l 338 887 q 559 753 515 883 q 535 572 573 634 m 589 391 l 589 391 q 503 562 592 515 q 491 570 491 562 q 537 694 535 612 q 431 846 541 806 q 349 859 390 858 l 314 859 q 251 851 307 861 q 134 814 194 842 q 62 684 59 771 q 74 97 79 406 l 113 97 q 236 106 172 97 q 301 116 301 116 l 239 600 q 233 641 236 617 q 247 689 231 669 q 292 713 263 710 q 335 715 312 715 q 388 685 374 713 l 388 665 q 332 608 387 633 l 357 478 l 364 478 q 422 431 422 471 l 422 415 q 412 388 421 404 q 391 358 404 373 q 364 334 378 344 l 422 160 q 494 203 460 179 q 577 311 552 244 q 589 372 589 342 l 589 391 z "},"à":{"ha":709,"x_min":-40,"x_max":705,"o":"m 651 653 l 651 653 l 615 653 q 447 650 531 650 q 433 650 439 650 q 423 641 426 650 q 427 610 424 626 l 394 611 q 389 609 391 610 q 376 612 383 610 q 226 618 298 633 q 94 548 154 603 q 67 519 80 534 q 56 509 62 515 q -40 304 -33 427 q -40 285 -40 295 q -39 279 -39 282 q -26 202 -37 239 q 92 39 8 97 q 286 -7 175 -19 q 438 54 370 4 q 444 6 441 30 q 460 -9 444 -9 q 625 48 543 18 q 659 62 643 54 q 666 74 666 66 q 665 88 665 81 l 698 101 q 705 109 703 104 l 705 119 q 704 122 704 121 q 696 389 701 256 l 689 640 q 671 652 686 654 q 653 653 662 653 q 651 653 652 652 m 665 628 l 665 628 l 680 119 q 547 71 614 94 q 508 58 527 64 q 507 58 507 58 l 498 119 q 483 127 494 130 q 470 119 476 124 q 362 64 420 81 q 241 58 304 47 q 97 140 153 75 q 27 291 41 205 q 54 456 14 376 q 132 548 83 511 q 243 597 182 586 q 338 596 286 604 q 427 565 389 588 q 441 556 434 559 q 456 572 457 556 l 449 626 q 456 625 452 626 q 563 627 509 625 q 665 628 614 629 m 410 430 l 410 430 q 335 406 370 427 q 286 350 300 385 q 293 273 272 315 q 370 214 320 227 q 469 215 420 201 q 481 219 475 216 q 489 229 488 222 q 479 324 485 276 q 471 408 475 366 q 453 427 471 426 q 410 430 432 431 m 408 363 l 408 363 l 421 232 q 351 249 384 231 q 314 287 327 262 q 309 338 301 311 q 313 349 310 345 q 325 355 319 353 q 408 363 365 373 m 557 816 l 557 816 l 555 816 q 539 815 547 816 q 415 810 477 813 q 404 810 409 810 q 397 805 399 809 q 400 798 396 801 l 389 797 q 384 791 385 796 q 384 789 384 790 q 386 785 384 787 l 534 669 q 543 669 538 668 q 613 667 578 667 q 621 666 616 666 q 621 666 621 666 l 623 666 q 625 667 624 666 q 629 673 629 668 q 627 679 629 676 q 632 679 629 679 q 637 679 635 679 q 642 688 644 682 l 562 814 q 557 816 560 816 m 623 692 l 623 692 l 571 694 q 553 695 562 694 l 422 797 l 502 800 q 545 802 523 801 q 553 802 549 802 l 623 692 z "},"á":{"ha":709,"x_min":-40,"x_max":742,"o":"m 651 653 l 651 653 l 615 653 q 447 650 531 650 q 433 650 439 650 q 423 641 426 650 q 427 610 424 626 l 394 611 q 389 609 391 610 q 376 612 383 610 q 226 618 298 633 q 94 548 154 603 q 67 519 80 534 q 56 509 62 515 q -40 304 -33 427 q -40 285 -40 295 q -39 279 -39 282 q -26 202 -37 239 q 92 39 8 97 q 286 -7 175 -19 q 438 54 370 4 q 444 6 441 30 q 460 -9 444 -9 q 625 48 543 18 q 659 62 643 54 q 666 74 666 66 q 665 88 665 81 l 698 101 q 705 109 703 104 l 705 119 q 704 122 704 121 q 696 389 701 256 l 689 640 q 671 652 686 654 q 653 653 662 653 q 651 653 652 652 m 665 628 l 665 628 l 680 119 q 547 71 614 94 q 508 58 527 64 q 507 58 507 58 l 498 119 q 483 127 494 130 q 470 119 476 124 q 362 64 420 81 q 241 58 304 47 q 97 140 153 75 q 27 291 41 205 q 54 456 14 376 q 132 548 83 511 q 243 597 182 586 q 338 596 286 604 q 427 565 389 588 q 441 556 434 559 q 456 572 457 556 l 449 626 q 456 625 452 626 q 563 627 509 625 q 665 628 614 629 m 410 430 l 410 430 q 335 406 370 427 q 286 350 300 385 q 293 273 272 315 q 370 214 320 227 q 469 215 420 201 q 481 219 475 216 q 489 229 488 222 q 479 324 485 276 q 471 408 475 366 q 453 427 471 426 q 410 430 432 431 m 408 363 l 408 363 l 421 232 q 351 249 384 231 q 314 287 327 262 q 309 338 301 311 q 313 349 310 345 q 325 355 319 353 q 408 363 365 373 m 581 829 l 581 829 l 578 829 q 574 827 576 829 l 567 816 q 566 817 566 817 q 555 817 560 817 q 545 814 549 818 l 465 689 q 465 687 465 688 q 465 686 465 686 q 469 680 465 682 q 471 680 470 680 l 473 680 q 473 680 473 680 q 547 682 510 680 q 560 683 554 682 l 574 694 q 588 696 581 694 l 736 812 q 732 823 742 821 q 724 824 728 824 q 656 827 690 825 l 581 829 m 713 810 l 713 810 l 583 709 q 518 707 550 707 q 513 706 515 707 l 583 816 q 589 816 585 816 q 634 814 611 814 l 713 810 z "},"â":{"ha":709,"x_min":-40,"x_max":705,"o":"m 651 653 l 651 653 l 615 653 q 447 650 531 650 q 433 650 439 650 q 423 641 426 650 q 427 610 424 626 l 394 611 q 389 609 391 610 q 376 612 383 610 q 226 618 298 633 q 94 548 154 603 q 67 519 80 534 q 56 509 62 515 q -40 304 -33 427 q -40 285 -40 295 q -39 279 -39 282 q -26 202 -37 239 q 92 39 8 97 q 286 -7 175 -19 q 438 54 370 4 q 444 6 441 30 q 460 -9 444 -9 q 625 48 543 18 q 659 62 643 54 q 666 74 666 66 q 665 88 665 81 l 698 101 q 705 109 703 104 l 705 119 q 704 122 704 121 q 696 389 701 256 l 689 640 q 671 652 686 654 q 653 653 662 653 q 651 653 652 652 m 665 628 l 665 628 l 680 119 q 547 71 614 94 q 508 58 527 64 q 507 58 507 58 l 498 119 q 483 127 494 130 q 470 119 476 124 q 362 64 420 81 q 241 58 304 47 q 97 140 153 75 q 27 291 41 205 q 54 456 14 376 q 132 548 83 511 q 243 597 182 586 q 338 596 286 604 q 427 565 389 588 q 441 556 434 559 q 456 572 457 556 l 449 626 q 456 625 452 626 q 563 627 509 625 q 665 628 614 629 m 410 430 l 410 430 q 335 406 370 427 q 286 350 300 385 q 293 273 272 315 q 370 214 320 227 q 469 215 420 201 q 481 219 475 216 q 489 229 488 222 q 479 324 485 276 q 471 408 475 366 q 453 427 471 426 q 410 430 432 431 m 408 363 l 408 363 l 421 232 q 351 249 384 231 q 314 287 327 262 q 309 338 301 311 q 313 349 310 345 q 325 355 319 353 q 408 363 365 373 m 566 851 l 566 851 l 564 851 q 560 849 562 850 l 444 736 q 444 726 440 731 q 445 726 444 726 l 445 726 l 436 718 q 435 715 435 717 q 435 713 435 714 q 439 708 436 710 l 498 659 q 506 659 503 657 q 555 703 531 681 q 557 705 556 704 l 583 673 q 592 672 587 669 q 665 707 629 690 q 669 717 672 711 q 666 722 668 720 q 675 726 670 724 q 676 735 679 730 l 570 848 q 566 851 568 850 m 564 834 l 564 834 l 659 734 l 596 703 l 570 736 q 560 737 565 740 l 509 692 l 509 692 l 459 732 l 564 834 z "},"ã":{"ha":709,"x_min":-40,"x_max":705,"o":"m 651 653 l 651 653 l 615 653 q 447 650 531 650 q 433 650 439 650 q 423 641 426 650 q 427 610 424 626 l 394 611 q 389 609 391 610 q 376 612 383 610 q 226 618 298 633 q 94 548 154 603 q 67 519 80 534 q 56 509 62 515 q -40 304 -33 427 q -40 285 -40 295 q -39 279 -39 282 q -26 202 -37 239 q 92 39 8 97 q 286 -7 175 -19 q 438 54 370 4 q 444 6 441 30 q 460 -9 444 -9 q 625 48 543 18 q 659 62 643 54 q 666 74 666 66 q 665 88 665 81 l 698 101 q 705 109 703 104 l 705 119 q 704 122 704 121 q 696 389 701 256 l 689 640 q 671 652 686 654 q 653 653 662 653 q 651 653 652 652 m 665 628 l 665 628 l 680 119 q 547 71 614 94 q 508 58 527 64 q 507 58 507 58 l 498 119 q 483 127 494 130 q 470 119 476 124 q 362 64 420 81 q 241 58 304 47 q 97 140 153 75 q 27 291 41 205 q 54 456 14 376 q 132 548 83 511 q 243 597 182 586 q 338 596 286 604 q 427 565 389 588 q 441 556 434 559 q 456 572 457 556 l 449 626 q 456 625 452 626 q 563 627 509 625 q 665 628 614 629 m 410 430 l 410 430 q 335 406 370 427 q 286 350 300 385 q 293 273 272 315 q 370 214 320 227 q 469 215 420 201 q 481 219 475 216 q 489 229 488 222 q 479 324 485 276 q 471 408 475 366 q 453 427 471 426 q 410 430 432 431 m 408 363 l 408 363 l 421 232 q 351 249 384 231 q 314 287 327 262 q 309 338 301 311 q 313 349 310 345 q 325 355 319 353 q 408 363 365 373 m 490 839 l 490 839 l 483 839 q 417 799 439 836 q 412 790 414 795 q 412 788 412 789 l 413 786 l 418 777 q 412 766 414 772 l 412 765 l 413 762 l 450 682 q 458 680 453 678 q 467 687 463 682 q 497 709 479 701 q 533 715 514 718 q 562 704 549 713 q 589 690 574 695 q 630 690 610 684 q 696 737 671 702 q 699 743 699 740 l 699 745 l 699 747 l 693 756 q 699 764 696 760 q 699 766 699 765 l 699 768 l 699 770 q 663 829 682 800 q 653 829 659 833 q 646 823 650 826 q 618 805 634 811 q 587 806 603 800 q 559 820 573 813 q 495 838 529 833 l 490 839 m 458 721 l 458 721 l 427 789 q 463 821 439 811 q 502 824 481 828 q 540 813 522 820 q 560 805 550 809 q 600 789 578 793 q 656 814 633 789 l 684 768 q 678 760 682 764 q 611 724 652 729 q 582 731 595 723 q 556 746 570 739 q 506 750 530 758 q 462 724 481 743 q 458 722 460 723 q 458 721 458 721 z "},"ä":{"ha":709,"x_min":-40,"x_max":705,"o":"m 651 653 l 651 653 l 615 653 q 447 650 531 650 q 433 650 439 650 q 423 641 426 650 q 427 610 424 626 l 394 611 q 389 609 391 610 q 376 612 383 610 q 226 618 298 633 q 94 548 154 603 q 67 519 80 534 q 56 509 62 515 q -40 304 -33 427 q -40 285 -40 295 q -39 279 -39 282 q -26 202 -37 239 q 92 39 8 97 q 286 -7 175 -19 q 438 54 370 4 q 444 6 441 30 q 460 -9 444 -9 q 625 48 543 18 q 659 62 643 54 q 666 74 666 66 q 665 88 665 81 l 698 101 q 705 109 703 104 l 705 119 q 704 122 704 121 q 696 389 701 256 l 689 640 q 671 652 686 654 q 653 653 662 653 q 651 653 652 652 m 665 628 l 665 628 l 680 119 q 547 71 614 94 q 508 58 527 64 q 507 58 507 58 l 498 119 q 483 127 494 130 q 470 119 476 124 q 362 64 420 81 q 241 58 304 47 q 97 140 153 75 q 27 291 41 205 q 54 456 14 376 q 132 548 83 511 q 243 597 182 586 q 338 596 286 604 q 427 565 389 588 q 441 556 434 559 q 456 572 457 556 l 449 626 q 456 625 452 626 q 563 627 509 625 q 665 628 614 629 m 410 430 l 410 430 q 335 406 370 427 q 286 350 300 385 q 293 273 272 315 q 370 214 320 227 q 469 215 420 201 q 481 219 475 216 q 489 229 488 222 q 479 324 485 276 q 471 408 475 366 q 453 427 471 426 q 410 430 432 431 m 408 363 l 408 363 l 421 232 q 351 249 384 231 q 314 287 327 262 q 309 338 301 311 q 313 349 310 345 q 325 355 319 353 q 408 363 365 373 m 490 767 l 490 767 l 484 767 q 435 739 452 765 q 433 735 433 736 q 427 728 430 732 q 416 696 417 714 q 416 690 416 693 l 417 684 q 470 633 426 641 l 475 632 l 479 632 l 486 633 q 527 658 511 637 q 532 665 530 661 q 534 667 533 666 q 544 728 555 697 q 496 766 532 759 l 490 767 m 485 753 l 485 753 q 526 733 512 753 q 530 686 540 712 q 492 659 517 661 q 448 677 467 656 q 444 727 432 703 q 485 753 455 751 m 637 767 l 637 767 l 631 767 q 583 739 600 765 q 581 735 581 736 q 575 728 578 732 q 564 696 565 714 q 564 690 564 693 l 565 684 q 618 633 574 641 l 623 632 l 627 632 l 633 633 q 675 658 659 637 q 680 665 677 661 q 682 667 681 666 q 691 728 703 697 q 644 766 680 759 l 637 767 m 633 753 l 633 753 q 674 733 660 753 q 677 686 688 712 q 640 659 665 661 q 596 677 614 656 q 591 727 580 703 q 633 753 603 751 z "},"å":{"ha":709,"x_min":-40,"x_max":705,"o":"m 651 653 l 651 653 l 615 653 q 447 650 531 650 q 433 650 439 650 q 423 641 426 650 q 427 610 424 626 l 394 611 q 389 609 391 610 q 376 612 383 610 q 226 618 298 633 q 94 548 154 603 q 67 519 80 534 q 56 509 62 515 q -40 304 -33 427 q -40 285 -40 295 q -39 279 -39 282 q -26 202 -37 239 q 92 39 8 97 q 286 -7 175 -19 q 438 54 370 4 q 444 6 441 30 q 460 -9 444 -9 q 625 48 543 18 q 659 62 643 54 q 666 74 666 66 q 665 88 665 81 l 698 101 q 705 109 703 104 l 705 119 q 704 122 704 121 q 696 389 701 256 l 689 640 q 671 652 686 654 q 653 653 662 653 q 651 653 652 652 m 665 628 l 665 628 l 680 119 q 547 71 614 94 q 508 58 527 64 q 507 58 507 58 l 498 119 q 483 127 494 130 q 470 119 476 124 q 362 64 420 81 q 241 58 304 47 q 97 140 153 75 q 27 291 41 205 q 54 456 14 376 q 132 548 83 511 q 243 597 182 586 q 338 596 286 604 q 427 565 389 588 q 441 556 434 559 q 456 572 457 556 l 449 626 q 456 625 452 626 q 563 627 509 625 q 665 628 614 629 m 410 430 l 410 430 q 335 406 370 427 q 286 350 300 385 q 293 273 272 315 q 370 214 320 227 q 469 215 420 201 q 481 219 475 216 q 489 229 488 222 q 479 324 485 276 q 471 408 475 366 q 453 427 471 426 q 410 430 432 431 m 408 363 l 408 363 l 421 232 q 351 249 384 231 q 314 287 327 262 q 309 338 301 311 q 313 349 310 345 q 325 355 319 353 q 408 363 365 373 m 566 847 l 566 847 l 559 847 q 492 808 516 844 q 488 802 490 805 q 485 798 487 800 q 466 749 468 777 q 466 742 466 745 l 467 736 q 526 665 475 683 q 621 701 585 652 q 623 707 622 704 q 628 712 625 709 q 631 811 662 761 q 573 846 609 841 l 566 847 m 560 833 l 560 833 q 631 773 619 830 q 611 713 635 736 q 551 694 587 690 q 494 751 505 705 q 508 807 489 784 q 560 833 527 831 m 562 792 l 562 792 q 537 776 544 790 q 541 747 530 762 q 564 735 550 734 q 587 749 578 736 q 587 778 595 764 q 562 792 579 792 z "},"æ":{"ha":1051,"x_min":-41,"x_max":1088,"o":"m 418 373 l 418 373 q 426 297 422 336 q 435 212 431 254 q 418 199 431 201 q 329 198 374 186 q 259 251 283 210 q 252 320 239 289 q 296 371 265 351 q 364 393 328 391 q 402 389 383 394 q 418 373 418 389 m 320 224 l 320 224 q 374 214 346 213 l 361 333 q 284 324 321 341 q 277 320 280 322 q 271 302 272 313 q 282 256 267 276 q 320 224 296 235 m 1080 161 l 1080 161 q 1075 139 1088 147 q 1061 127 1068 133 q 1048 118 1054 122 q 1048 113 1048 116 q 1033 98 1042 104 q 909 29 981 54 q 769 2 838 3 q 767 2 768 3 l 749 2 q 747 2 748 3 q 574 56 652 3 q 564 52 567 53 q 409 -3 487 22 q 395 11 395 -3 q 389 54 392 33 q 280 4 340 18 q 73 43 168 -22 q -41 253 -30 123 q -41 262 -40 258 q -41 279 -41 271 q 43 463 -35 389 q 55 473 50 468 q 78 498 66 486 q 198 562 133 548 q 335 557 263 575 q 344 554 340 555 q 349 556 347 555 l 378 555 q 376 583 376 569 q 384 591 378 590 q 396 591 390 591 q 548 594 472 591 q 596 593 548 594 q 684 639 634 624 q 778 656 730 653 l 796 656 q 798 655 797 655 q 958 593 890 652 q 1059 452 1026 534 q 1064 439 1062 446 q 1060 427 1066 432 l 1027 410 q 1025 392 1033 400 l 758 259 q 804 237 777 240 q 896 250 848 233 q 978 292 943 267 q 997 305 987 300 q 1008 298 1005 305 q 1080 161 1044 230 m 947 88 l 947 88 q 1059 154 1008 111 l 995 277 q 994 277 994 277 q 987 271 990 274 q 892 226 947 243 q 789 218 838 208 q 728 264 748 227 q 725 277 726 271 q 730 287 724 283 l 1040 441 q 1024 475 1033 458 q 941 578 992 536 q 820 631 890 621 q 629 590 718 642 q 602 570 615 580 q 494 570 567 572 q 449 569 471 570 q 446 568 448 568 l 399 568 l 405 521 q 392 507 406 507 q 378 515 385 509 q 300 542 345 534 q 216 543 254 549 q 114 499 160 534 q 42 415 68 465 q 19 267 7 343 q 82 132 31 190 q 212 58 132 73 q 320 63 268 48 q 417 112 372 78 q 436 120 425 121 q 444 112 442 118 l 450 58 q 475 66 463 62 q 590 106 533 85 q 593 106 591 106 q 610 117 602 111 q 773 60 684 64 q 947 88 863 56 m 848 454 l 848 454 q 847 437 855 445 q 682 361 765 399 q 670 372 671 361 q 680 463 663 420 q 751 503 705 500 q 804 487 780 503 q 848 454 828 472 m 690 389 l 690 389 l 770 425 q 753 437 763 431 q 701 456 730 454 q 692 425 694 441 q 690 389 689 407 z "},"ç":{"ha":545,"x_min":-11,"x_max":590,"o":"m 405 696 l 405 696 l 376 696 q 249 676 311 695 q 138 611 187 656 q 115 586 126 598 q 90 563 102 574 q -11 319 -5 460 q -11 296 -11 308 q -10 285 -9 291 q 71 82 -3 170 q 174 9 114 33 q 300 -14 234 -14 q 302 -15 301 -14 l 313 -15 q 315 -14 314 -14 q 530 35 427 -10 q 546 42 538 37 q 550 57 553 47 q 545 64 547 60 q 566 72 555 68 q 588 83 578 77 q 590 90 589 86 l 590 92 l 589 96 l 443 300 q 429 305 436 308 q 414 298 422 302 q 325 296 370 278 q 272 349 291 313 q 269 420 253 385 q 285 435 273 432 q 341 444 312 447 q 396 430 370 441 q 418 420 407 423 q 431 432 428 422 q 448 463 439 447 q 466 464 457 456 l 569 658 q 563 674 572 670 q 544 679 553 677 q 407 696 477 694 q 405 696 406 696 m 540 655 l 540 655 l 452 488 l 451 488 q 397 506 425 500 q 256 448 308 520 q 253 334 220 392 q 326 270 280 286 q 424 275 372 255 q 429 277 427 277 l 559 96 q 427 56 495 68 q 259 59 341 41 q 120 146 176 78 q 55 379 43 251 q 159 597 66 507 q 323 668 229 657 q 505 662 418 678 q 540 655 523 659 m 384 -7 l 384 -7 l 375 -7 q 326 -7 351 -7 q 302 -7 313 -7 q 290 -16 294 -9 q 284 -24 287 -20 q 281 -29 282 -26 q 277 -31 279 -30 q 264 -48 270 -38 q 251 -87 253 -66 q 268 -123 250 -109 l 269 -123 l 211 -165 q 208 -172 208 -168 q 208 -176 208 -174 l 193 -186 q 190 -193 191 -189 q 190 -195 190 -194 q 237 -248 202 -231 q 325 -265 279 -269 q 403 -224 372 -261 q 409 -216 406 -220 q 414 -211 411 -213 q 446 -142 440 -181 l 447 -133 l 447 -129 l 446 -123 q 400 -61 440 -81 q 390 -52 392 -60 q 390 -32 388 -42 q 392 -14 393 -22 q 384 -7 390 -7 m 371 -26 l 371 -26 q 370 -35 370 -31 q 374 -66 367 -51 q 399 -83 384 -78 q 422 -159 440 -111 q 345 -224 403 -215 q 288 -219 318 -227 q 239 -191 258 -210 q 229 -177 233 -184 l 271 -145 l 272 -145 q 315 -158 290 -161 q 344 -118 349 -153 q 319 -94 338 -99 q 303 -89 311 -92 q 291 -79 294 -85 q 292 -53 286 -66 q 304 -29 297 -39 q 307 -27 305 -28 q 371 -26 338 -27 m 304 -138 l 304 -138 q 284 -130 293 -138 q 302 -137 294 -132 q 304 -138 304 -138 z "},"è":{"ha":642,"x_min":-43,"x_max":679,"o":"m 358 681 l 358 681 l 338 681 q 232 662 284 678 q 100 578 155 637 q 75 553 87 566 q -43 298 -33 448 q -43 279 -43 288 q -42 262 -42 271 q -3 143 -35 202 q 75 43 30 84 q 304 -45 172 -43 q 307 -46 305 -45 l 326 -46 q 328 -45 327 -45 q 484 -16 404 -44 q 622 61 564 13 q 639 83 635 70 q 668 106 654 94 q 677 117 675 113 q 674 132 679 122 q 594 283 634 208 q 582 291 590 292 q 560 277 570 286 q 469 230 522 249 q 368 216 416 211 q 317 240 338 218 l 612 387 q 615 408 622 397 l 652 427 q 656 440 659 432 q 651 455 654 448 q 538 611 614 546 q 361 680 462 676 q 358 681 359 680 m 629 442 l 629 442 l 285 271 q 280 255 277 265 q 288 239 283 245 q 368 191 317 195 q 466 203 420 188 q 570 254 522 220 q 578 260 574 257 q 579 260 578 260 l 650 123 q 526 51 595 76 q 327 19 429 13 q 142 90 225 24 q 37 239 71 151 q 44 445 1 340 q 172 608 86 549 q 385 654 271 665 q 528 588 468 642 q 622 460 588 534 q 629 442 627 450 m 309 511 l 309 511 q 263 499 286 511 q 230 467 241 487 q 218 366 210 418 q 232 354 220 354 q 415 438 324 395 q 417 456 425 446 q 367 493 394 477 q 309 511 340 510 m 329 425 l 329 425 l 241 385 q 242 425 239 405 q 253 458 245 443 q 311 438 285 456 q 314 436 311 438 q 321 432 317 434 q 327 427 324 429 q 329 425 330 425 m 347 816 l 347 816 l 345 816 q 329 815 337 816 q 205 810 267 813 q 193 810 199 810 q 187 805 189 809 q 190 798 186 801 l 179 797 q 174 791 174 796 q 174 789 174 790 q 176 785 174 787 l 324 669 q 332 669 328 668 q 403 667 368 667 q 410 666 406 666 q 411 666 411 666 l 413 666 q 414 667 414 666 q 419 673 419 668 q 416 679 418 676 q 422 679 419 679 q 427 679 425 679 q 432 688 434 682 l 352 814 q 347 816 350 816 m 413 692 l 413 692 l 361 694 q 343 695 352 694 l 212 797 l 292 800 q 334 802 313 801 q 343 802 338 802 l 413 692 z "},"é":{"ha":642,"x_min":-43,"x_max":679,"o":"m 358 681 l 358 681 l 338 681 q 232 662 284 678 q 100 578 155 637 q 75 553 87 566 q -43 298 -33 448 q -43 279 -43 288 q -42 262 -42 271 q -3 143 -35 202 q 75 43 30 84 q 304 -45 172 -43 q 307 -46 305 -45 l 326 -46 q 328 -45 327 -45 q 484 -16 404 -44 q 622 61 564 13 q 639 83 635 70 q 668 106 654 94 q 677 117 675 113 q 674 132 679 122 q 594 283 634 208 q 582 291 590 292 q 560 277 570 286 q 469 230 522 249 q 368 216 416 211 q 317 240 338 218 l 612 387 q 615 408 622 397 l 652 427 q 656 440 659 432 q 651 455 654 448 q 538 611 614 546 q 361 680 462 676 q 358 681 359 680 m 629 442 l 629 442 l 285 271 q 280 255 277 265 q 288 239 283 245 q 368 191 317 195 q 466 203 420 188 q 570 254 522 220 q 578 260 574 257 q 579 260 578 260 l 650 123 q 526 51 595 76 q 327 19 429 13 q 142 90 225 24 q 37 239 71 151 q 44 445 1 340 q 172 608 86 549 q 385 654 271 665 q 528 588 468 642 q 622 460 588 534 q 629 442 627 450 m 309 511 l 309 511 q 263 499 286 511 q 230 467 241 487 q 218 366 210 418 q 232 354 220 354 q 415 438 324 395 q 417 456 425 446 q 367 493 394 477 q 309 511 340 510 m 329 425 l 329 425 l 241 385 q 242 425 239 405 q 253 458 245 443 q 311 438 285 456 q 314 436 311 438 q 321 432 317 434 q 327 427 324 429 q 329 425 330 425 m 370 829 l 370 829 l 368 829 q 363 827 366 829 l 357 816 q 356 817 356 817 q 345 817 350 817 q 335 814 339 818 l 255 689 q 254 687 254 688 q 254 686 254 686 q 258 680 255 682 q 260 680 260 680 l 262 680 q 263 680 262 680 q 337 682 300 680 q 350 683 344 682 l 364 694 q 378 696 371 694 l 526 812 q 522 823 532 821 q 513 824 517 824 q 446 827 479 825 l 370 829 m 503 810 l 503 810 l 372 709 q 308 707 340 707 q 302 706 305 707 l 372 816 q 378 816 375 816 q 424 814 401 814 l 503 810 z "}}}
